<svg width="115" height="15" viewBox="0 0 115 15" fill="none" xmlns="http://www.w3.org/2000/svg">
<path d="M0.564 10.296V8.976L4.488 3.36H6.444V8.832H7.5V10.296H6.444V12H4.764V10.296H0.564ZM4.872 5.16L2.412 8.832H4.872V5.16ZM9.50559 12.084C9.20159 12.084 8.94959 11.992 8.74959 11.808C8.55759 11.616 8.46159 11.38 8.46159 11.1C8.46159 10.82 8.55759 10.588 8.74959 10.404C8.94959 10.212 9.20159 10.116 9.50559 10.116C9.80159 10.116 10.0456 10.212 10.2376 10.404C10.4296 10.588 10.5256 10.82 10.5256 11.1C10.5256 11.38 10.4296 11.616 10.2376 11.808C10.0456 11.992 9.80159 12.084 9.50559 12.084ZM13.6308 9.54C13.6948 9.892 13.8388 10.164 14.0628 10.356C14.2948 10.54 14.6028 10.632 14.9868 10.632C15.4828 10.632 15.8428 10.428 16.0668 10.02C16.2908 9.604 16.4028 8.908 16.4028 7.932C16.2188 8.188 15.9588 8.388 15.6228 8.532C15.2948 8.676 14.9388 8.748 14.5548 8.748C14.0428 8.748 13.5788 8.644 13.1628 8.436C12.7548 8.22 12.4308 7.904 12.1908 7.488C11.9508 7.064 11.8308 6.552 11.8308 5.952C11.8308 5.064 12.0948 4.36 12.6228 3.84C13.1508 3.312 13.8708 3.048 14.7828 3.048C15.9188 3.048 16.7188 3.412 17.1828 4.14C17.6548 4.868 17.8908 5.964 17.8908 7.428C17.8908 8.468 17.7988 9.32 17.6148 9.984C17.4388 10.648 17.1308 11.152 16.6908 11.496C16.2588 11.84 15.6668 12.012 14.9148 12.012C14.3228 12.012 13.8188 11.9 13.4028 11.676C12.9868 11.444 12.6668 11.144 12.4428 10.776C12.2268 10.4 12.1028 9.988 12.0708 9.54H13.6308ZM14.9028 7.38C15.3188 7.38 15.6468 7.252 15.8868 6.996C16.1268 6.74 16.2468 6.396 16.2468 5.964C16.2468 5.492 16.1188 5.128 15.8628 4.872C15.6148 4.608 15.2748 4.476 14.8428 4.476C14.4108 4.476 14.0668 4.612 13.8108 4.884C13.5628 5.148 13.4388 5.5 13.4388 5.94C13.4388 6.364 13.5588 6.712 13.7988 6.984C14.0468 7.248 14.4148 7.38 14.9028 7.38Z" fill="#575757"/>
<path d="M28.0133 14.232C27.2453 13.48 26.6453 12.524 26.2133 11.364C25.7893 10.204 25.5773 8.952 25.5773 7.608C25.5773 6.232 25.8013 4.948 26.2493 3.756C26.7053 2.556 27.3533 1.568 28.1933 0.792H29.3333V0.899999C28.4373 1.74 27.7613 2.752 27.3053 3.936C26.8573 5.112 26.6333 6.336 26.6333 7.608C26.6333 8.848 26.8453 10.032 27.2693 11.16C27.7013 12.288 28.3293 13.276 29.1533 14.124V14.232H28.0133ZM30.1865 4.32V3.324H32.4425V12H31.3385V4.32H30.1865ZM34.8462 12.072C34.6382 12.072 34.4622 12 34.3182 11.856C34.1742 11.712 34.1022 11.536 34.1022 11.328C34.1022 11.12 34.1742 10.944 34.3182 10.8C34.4622 10.656 34.6382 10.584 34.8462 10.584C35.0462 10.584 35.2142 10.656 35.3502 10.8C35.4942 10.944 35.5662 11.12 35.5662 11.328C35.5662 11.536 35.4942 11.712 35.3502 11.856C35.2142 12 35.0462 12.072 34.8462 12.072ZM38.2418 9.672C38.3218 10.128 38.5058 10.48 38.7938 10.728C39.0898 10.976 39.4858 11.1 39.9818 11.1C40.6458 11.1 41.1338 10.84 41.4458 10.32C41.7658 9.8 41.9178 8.924 41.9018 7.692C41.7338 8.052 41.4538 8.336 41.0618 8.544C40.6698 8.744 40.2338 8.844 39.7538 8.844C39.2178 8.844 38.7378 8.736 38.3138 8.52C37.8978 8.296 37.5698 7.972 37.3298 7.548C37.0898 7.124 36.9698 6.612 36.9698 6.012C36.9698 5.156 37.2178 4.468 37.7138 3.948C38.2098 3.42 38.9138 3.156 39.8258 3.156C40.9458 3.156 41.7298 3.52 42.1778 4.248C42.6338 4.976 42.8618 6.06 42.8618 7.5C42.8618 8.508 42.7698 9.34 42.5858 9.996C42.4098 10.652 42.1058 11.152 41.6738 11.496C41.2498 11.84 40.6658 12.012 39.9218 12.012C39.1058 12.012 38.4698 11.792 38.0138 11.352C37.5578 10.912 37.2978 10.352 37.2338 9.672H38.2418ZM39.9338 7.92C40.4698 7.92 40.9098 7.756 41.2538 7.428C41.5978 7.092 41.7698 6.64 41.7698 6.072C41.7698 5.472 41.6018 4.988 41.2658 4.62C40.9298 4.252 40.4578 4.068 39.8498 4.068C39.2898 4.068 38.8418 4.244 38.5058 4.596C38.1778 4.948 38.0138 5.412 38.0138 5.988C38.0138 6.572 38.1778 7.04 38.5058 7.392C38.8338 7.744 39.3098 7.92 39.9338 7.92ZM45.9803 7.488C45.5323 7.312 45.1883 7.056 44.9483 6.72C44.7083 6.384 44.5883 5.976 44.5883 5.496C44.5883 5.064 44.6963 4.676 44.9123 4.332C45.1283 3.98 45.4483 3.704 45.8723 3.504C46.3043 3.296 46.8243 3.192 47.4323 3.192C48.0403 3.192 48.5563 3.296 48.9803 3.504C49.4123 3.704 49.7363 3.98 49.9523 4.332C50.1763 4.676 50.2883 5.064 50.2883 5.496C50.2883 5.96 50.1643 6.368 49.9163 6.72C49.6683 7.064 49.3283 7.32 48.8963 7.488C49.3923 7.64 49.7843 7.908 50.0723 8.292C50.3683 8.668 50.5163 9.124 50.5163 9.66C50.5163 10.18 50.3883 10.636 50.1323 11.028C49.8763 11.412 49.5123 11.712 49.0403 11.928C48.5763 12.136 48.0403 12.24 47.4323 12.24C46.8243 12.24 46.2883 12.136 45.8243 11.928C45.3683 11.712 45.0123 11.412 44.7563 11.028C44.5003 10.636 44.3723 10.18 44.3723 9.66C44.3723 9.124 44.5163 8.664 44.8043 8.28C45.0923 7.896 45.4843 7.632 45.9803 7.488ZM49.2323 5.628C49.2323 5.14 49.0723 4.764 48.7523 4.5C48.4323 4.236 47.9923 4.104 47.4323 4.104C46.8803 4.104 46.4443 4.236 46.1243 4.5C45.8043 4.764 45.6443 5.144 45.6443 5.64C45.6443 6.088 45.8083 6.448 46.1363 6.72C46.4723 6.992 46.9043 7.128 47.4323 7.128C47.9683 7.128 48.4003 6.992 48.7283 6.72C49.0643 6.44 49.2323 6.076 49.2323 5.628ZM47.4323 7.968C46.8403 7.968 46.3563 8.108 45.9803 8.388C45.6043 8.66 45.4163 9.072 45.4163 9.624C45.4163 10.136 45.5963 10.548 45.9563 10.86C46.3243 11.172 46.8163 11.328 47.4323 11.328C48.0483 11.328 48.5363 11.172 48.8963 10.86C49.2563 10.548 49.4363 10.136 49.4363 9.624C49.4363 9.088 49.2523 8.68 48.8843 8.4C48.5163 8.112 48.0323 7.968 47.4323 7.968ZM53.3707 9.672C53.4507 10.128 53.6347 10.48 53.9227 10.728C54.2187 10.976 54.6147 11.1 55.1107 11.1C55.7747 11.1 56.2627 10.84 56.5747 10.32C56.8947 9.8 57.0467 8.924 57.0307 7.692C56.8627 8.052 56.5827 8.336 56.1907 8.544C55.7987 8.744 55.3627 8.844 54.8827 8.844C54.3467 8.844 53.8667 8.736 53.4427 8.52C53.0267 8.296 52.6987 7.972 52.4587 7.548C52.2187 7.124 52.0987 6.612 52.0987 6.012C52.0987 5.156 52.3467 4.468 52.8427 3.948C53.3387 3.42 54.0427 3.156 54.9547 3.156C56.0747 3.156 56.8587 3.52 57.3067 4.248C57.7627 4.976 57.9907 6.06 57.9907 7.5C57.9907 8.508 57.8987 9.34 57.7147 9.996C57.5387 10.652 57.2347 11.152 56.8027 11.496C56.3787 11.84 55.7947 12.012 55.0507 12.012C54.2347 12.012 53.5987 11.792 53.1427 11.352C52.6867 10.912 52.4267 10.352 52.3627 9.672H53.3707ZM55.0627 7.92C55.5987 7.92 56.0387 7.756 56.3827 7.428C56.7267 7.092 56.8987 6.64 56.8987 6.072C56.8987 5.472 56.7307 4.988 56.3947 4.62C56.0587 4.252 55.5867 4.068 54.9787 4.068C54.4187 4.068 53.9707 4.244 53.6347 4.596C53.3067 4.948 53.1427 5.412 53.1427 5.988C53.1427 6.572 53.3067 7.04 53.6347 7.392C53.9627 7.744 54.4387 7.92 55.0627 7.92ZM67.3085 12L65.3165 8.58H63.9965V12H62.9045V3.636H65.6045C66.2365 3.636 66.7685 3.744 67.2005 3.96C67.6405 4.176 67.9685 4.468 68.1845 4.836C68.4005 5.204 68.5085 5.624 68.5085 6.096C68.5085 6.672 68.3405 7.18 68.0045 7.62C67.6765 8.06 67.1805 8.352 66.5165 8.496L68.6165 12H67.3085ZM63.9965 7.704H65.6045C66.1965 7.704 66.6405 7.56 66.9365 7.272C67.2325 6.976 67.3805 6.584 67.3805 6.096C67.3805 5.6 67.2325 5.216 66.9365 4.944C66.6485 4.672 66.2045 4.536 65.6045 4.536H63.9965V7.704ZM76.2053 8.46C76.2053 8.668 76.1933 8.888 76.1693 9.12H70.9133C70.9533 9.768 71.1733 10.276 71.5733 10.644C71.9813 11.004 72.4733 11.184 73.0493 11.184C73.5213 11.184 73.9133 11.076 74.2253 10.86C74.5453 10.636 74.7693 10.34 74.8973 9.972H76.0733C75.8973 10.604 75.5453 11.12 75.0173 11.52C74.4893 11.912 73.8333 12.108 73.0493 12.108C72.4253 12.108 71.8653 11.968 71.3693 11.688C70.8813 11.408 70.4973 11.012 70.2173 10.5C69.9373 9.98 69.7973 9.38 69.7973 8.7C69.7973 8.02 69.9333 7.424 70.2053 6.912C70.4773 6.4 70.8573 6.008 71.3453 5.736C71.8413 5.456 72.4093 5.316 73.0493 5.316C73.6733 5.316 74.2253 5.452 74.7053 5.724C75.1853 5.996 75.5533 6.372 75.8093 6.852C76.0733 7.324 76.2053 7.86 76.2053 8.46ZM75.0773 8.232C75.0773 7.816 74.9853 7.46 74.8013 7.164C74.6173 6.86 74.3653 6.632 74.0453 6.48C73.7333 6.32 73.3853 6.24 73.0013 6.24C72.4493 6.24 71.9773 6.416 71.5853 6.768C71.2013 7.12 70.9813 7.608 70.9253 8.232H75.0773ZM80.0947 10.992L82.1347 5.424H83.2987L80.7187 12H79.4467L76.8667 5.424H78.0427L80.0947 10.992ZM84.9372 4.356C84.7292 4.356 84.5532 4.284 84.4092 4.14C84.2652 3.996 84.1932 3.82 84.1932 3.612C84.1932 3.404 84.2652 3.228 84.4092 3.084C84.5532 2.94 84.7292 2.868 84.9372 2.868C85.1372 2.868 85.3052 2.94 85.4412 3.084C85.5852 3.228 85.6572 3.404 85.6572 3.612C85.6572 3.82 85.5852 3.996 85.4412 4.14C85.3052 4.284 85.1372 4.356 84.9372 4.356ZM85.4652 5.424V12H84.3732V5.424H85.4652ZM93.3263 8.46C93.3263 8.668 93.3143 8.888 93.2903 9.12H88.0343C88.0743 9.768 88.2943 10.276 88.6943 10.644C89.1023 11.004 89.5943 11.184 90.1703 11.184C90.6423 11.184 91.0343 11.076 91.3463 10.86C91.6663 10.636 91.8903 10.34 92.0183 9.972H93.1943C93.0183 10.604 92.6663 11.12 92.1383 11.52C91.6103 11.912 90.9543 12.108 90.1703 12.108C89.5463 12.108 88.9863 11.968 88.4903 11.688C88.0023 11.408 87.6183 11.012 87.3383 10.5C87.0583 9.98 86.9183 9.38 86.9183 8.7C86.9183 8.02 87.0543 7.424 87.3263 6.912C87.5983 6.4 87.9783 6.008 88.4663 5.736C88.9623 5.456 89.5303 5.316 90.1703 5.316C90.7943 5.316 91.3463 5.452 91.8263 5.724C92.3063 5.996 92.6743 6.372 92.9303 6.852C93.1943 7.324 93.3263 7.86 93.3263 8.46ZM92.1983 8.232C92.1983 7.816 92.1063 7.46 91.9223 7.164C91.7383 6.86 91.4863 6.632 91.1663 6.48C90.8543 6.32 90.5063 6.24 90.1223 6.24C89.5703 6.24 89.0983 6.416 88.7063 6.768C88.3223 7.12 88.1023 7.608 88.0463 8.232H92.1983ZM103.528 5.424L101.476 12H100.348L98.7638 6.78L97.1798 12H96.0518L93.9878 5.424H95.1038L96.6158 10.944L98.2478 5.424H99.3638L100.96 10.956L102.448 5.424H103.528ZM106.94 12.108C106.436 12.108 105.984 12.024 105.584 11.856C105.184 11.68 104.868 11.44 104.636 11.136C104.404 10.824 104.276 10.468 104.252 10.068H105.38C105.412 10.396 105.564 10.664 105.836 10.872C106.116 11.08 106.48 11.184 106.928 11.184C107.344 11.184 107.672 11.092 107.912 10.908C108.152 10.724 108.272 10.492 108.272 10.212C108.272 9.924 108.144 9.712 107.888 9.576C107.632 9.432 107.236 9.292 106.7 9.156C106.212 9.028 105.812 8.9 105.5 8.772C105.196 8.636 104.932 8.44 104.708 8.184C104.492 7.92 104.384 7.576 104.384 7.152C104.384 6.816 104.484 6.508 104.684 6.228C104.884 5.948 105.168 5.728 105.536 5.568C105.904 5.4 106.324 5.316 106.796 5.316C107.524 5.316 108.112 5.5 108.56 5.868C109.008 6.236 109.248 6.74 109.28 7.38H108.188C108.164 7.036 108.024 6.76 107.768 6.552C107.52 6.344 107.184 6.24 106.76 6.24C106.368 6.24 106.056 6.324 105.824 6.492C105.592 6.66 105.476 6.88 105.476 7.152C105.476 7.368 105.544 7.548 105.68 7.692C105.824 7.828 106 7.94 106.208 8.028C106.424 8.108 106.72 8.2 107.096 8.304C107.568 8.432 107.952 8.56 108.248 8.688C108.544 8.808 108.796 8.992 109.004 9.24C109.22 9.488 109.332 9.812 109.34 10.212C109.34 10.572 109.24 10.896 109.04 11.184C108.84 11.472 108.556 11.7 108.188 11.868C107.828 12.028 107.412 12.108 106.94 12.108ZM110.533 14.232V14.124C111.357 13.276 111.981 12.288 112.405 11.16C112.837 10.032 113.053 8.848 113.053 7.608C113.053 6.336 112.825 5.112 112.369 3.936C111.921 2.752 111.249 1.74 110.353 0.899999V0.792H111.493C112.333 1.568 112.977 2.556 113.425 3.756C113.881 4.948 114.109 6.232 114.109 7.608C114.109 8.952 113.893 10.204 113.461 11.364C113.037 12.524 112.441 13.48 111.673 14.232H110.533Z" fill="#575757" fill-opacity="0.5"/>
</svg>
