<svg width="46" height="46" viewBox="0 0 46 46" fill="none" xmlns="http://www.w3.org/2000/svg">
<path d="M13.5124 21.498C5.86078 20.7794 0 14.4347 0 6.73828V4.04297C0 1.81359 1.81359 0 4.04297 0C6.27235 0 8.08594 1.81359 8.08594 4.04297C8.08594 4.78652 8.69005 5.39062 9.43359 5.39062H12.2188C12.9636 5.39062 13.5664 5.99339 13.5664 6.73828C13.5664 7.48318 12.9636 8.08594 12.2188 8.08594H9.43359C7.20421 8.08594 5.39062 6.27235 5.39062 4.04297C5.39062 3.29942 4.78652 2.69531 4.04297 2.69531C3.29942 2.69531 2.69531 3.29942 2.69531 4.04297V6.73828C2.69531 13.0357 7.50591 18.2262 13.7651 18.8132C14.5061 18.8829 15.0496 19.541 14.9812 20.282C14.9115 21.0206 14.2574 21.5657 13.5124 21.498Z" fill="#FB9333"/>
<path d="M31.1085 20.282C31.04 19.541 31.5836 18.883 32.3245 18.8132C38.5838 18.2262 43.3045 13.0357 43.3045 6.73828V4.04297C43.3045 3.29942 42.7004 2.69531 41.9568 2.69531C41.2133 2.69531 40.6092 3.29942 40.6092 4.04297C40.6092 6.27235 38.7956 8.08594 36.5662 8.08594H33.8709C33.126 8.08594 32.5233 7.48317 32.5233 6.73828C32.5233 5.99339 33.126 5.39062 33.8709 5.39062H36.5662C37.3098 5.39062 37.9139 4.78651 37.9139 4.04297C37.9139 1.81359 39.7275 0 41.9568 0C44.1862 0 45.9998 1.81359 45.9998 4.04297V6.73828C45.9998 14.4347 40.2289 20.7794 32.5772 21.498C31.8324 21.5657 31.1782 21.0206 31.1085 20.282Z" fill="#FB9333"/>
<path d="M33.8711 0H23H12.2188C11.4739 0 10.8711 0.602762 10.8711 1.34766V14.8242C10.8711 19.9767 14.1468 24.5223 18.957 26.2201V36.5664H23H27.043V26.2201C31.8532 24.5224 35.2188 19.9767 35.2188 14.8242V1.34766C35.2188 0.602762 34.616 0 33.8711 0Z" fill="#FFDF40"/>
<path d="M27.043 26.2201C31.8532 24.5224 35.2188 19.9767 35.2188 14.8242V1.34766C35.2188 0.602762 34.616 0 33.8711 0H23V36.5664H27.043V26.2201Z" fill="#FFBE40"/>
<path d="M29.8831 10.3917C29.7239 9.90338 29.3027 9.54805 28.7947 9.47438L25.6256 9.01375L24.2083 6.14207C23.9819 5.68144 23.491 5.45117 23.0001 5.45117C22.5092 5.45117 22.0183 5.68144 21.792 6.14207L20.3746 9.01375L17.2056 9.47438C16.6976 9.54805 16.2764 9.90338 16.1172 10.3917C15.9593 10.8786 16.0909 11.4143 16.4581 11.7722L18.752 14.0083L18.211 17.1642C18.1241 17.6696 18.3321 18.1802 18.7467 18.4816C19.1612 18.7843 19.7166 18.8238 20.1654 18.5843L23 17.0957L25.8349 18.5842C26.2822 18.8214 26.8359 18.7867 27.2536 18.4815C27.6681 18.1801 27.8761 17.6695 27.7893 17.1641L27.2483 14.0082L29.5422 11.7721C29.9094 11.4143 30.041 10.8786 29.8831 10.3917V10.3917Z" fill="#FFBE40"/>
<path d="M27.2537 18.4816C27.6682 18.1802 27.8762 17.6696 27.7893 17.1642L27.2484 14.0083L29.5422 11.7722C29.9094 11.4143 30.0411 10.8786 29.8831 10.3917C29.7239 9.90338 29.3027 9.54805 28.7947 9.47438L25.6257 9.01375L24.2083 6.14207C23.9819 5.68144 23.4911 5.45117 23.0002 5.45117V17.0957L25.835 18.5842C26.2822 18.8215 26.836 18.7868 27.2537 18.4816V18.4816Z" fill="#FB9333"/>
<path d="M33.7812 40.6094H32.4336V36.5664C32.4336 35.8215 31.8308 35.2188 31.0859 35.2188H23H14.9141C14.1692 35.2188 13.5664 35.8215 13.5664 36.5664V40.6094H12.2188C11.4739 40.6094 10.8711 41.2121 10.8711 41.957V44.6523C10.8711 45.3972 11.4739 46 12.2188 46H23H33.7812C34.5261 46 35.1289 45.3972 35.1289 44.6523V41.957C35.1289 41.2121 34.5261 40.6094 33.7812 40.6094Z" fill="#FB9333"/>
<path d="M35.1289 44.6523V41.957C35.1289 41.2121 34.5261 40.6094 33.7812 40.6094H32.4336V36.5664C32.4336 35.8215 31.8308 35.2188 31.0859 35.2188H23V46H33.7812C34.5261 46 35.1289 45.3972 35.1289 44.6523Z" fill="#FB9333"/>
<path d="M25.6953 39.2617H23H20.3047C19.5598 39.2617 18.957 39.8645 18.957 40.6094C18.957 41.3543 19.5598 41.957 20.3047 41.957H23H25.6953C26.4402 41.957 27.043 41.3543 27.043 40.6094C27.043 39.8645 26.4402 39.2617 25.6953 39.2617Z" fill="white"/>
<path d="M27.043 40.6094C27.043 39.8645 26.4402 39.2617 25.6953 39.2617H23V41.957H25.6953C26.4402 41.957 27.043 41.3543 27.043 40.6094Z" fill="white"/>
</svg>
