<svg width="138" height="138" viewBox="0 0 138 138" fill="none" xmlns="http://www.w3.org/2000/svg">
<path d="M63.3606 92.2763C60.6214 94.114 57.8128 94.4723 55.0736 92.3572C52.3575 90.2653 52.1032 87.3989 53.155 83.8853C49.5952 84.6597 46.3937 84.6366 44.2901 81.4697C42.4871 78.7536 42.9263 76.0953 44.7062 73.5295C44.9258 73.3099 45.1454 73.1018 45.365 72.8822C46.6364 71.9692 48.1158 71.0792 49.5952 71.3797C52.2997 71.9229 51.8027 70.6747 51.953 68.7676C52.1495 66.1324 51.8721 65.0576 48.9248 65.4852C47.8499 65.6355 46.6132 64.6877 45.4575 64.2369C45.1454 63.9249 44.8333 63.6128 44.5213 63.3123C42.961 60.6887 42.4755 58.0188 44.371 55.3721C46.4745 52.4364 49.4449 52.1821 53.0972 53.153C52.1726 49.5585 52.3113 46.4032 55.4666 44.3112C58.1711 42.5313 60.8294 42.9705 63.3721 44.7388C63.5917 44.9584 63.7998 45.178 64.0194 45.3976C64.5395 46.6806 65.6606 48.0559 65.4641 49.2117C64.944 52.3324 66.4234 51.766 68.5848 51.9394C71.1853 52.1474 71.4049 51.4424 71.3355 49.2233C71.2893 47.9635 72.2833 46.6806 72.8034 45.3976C73.0345 45.1665 73.2657 44.9238 73.4968 44.6926C76.2245 42.774 79.0331 42.4504 81.7723 44.5308C84.4999 46.6112 84.8235 49.4544 83.7718 52.9449C87.2391 52.3439 90.4753 52.1937 92.602 55.3952C94.405 58.1113 93.9889 60.7696 92.2784 63.3586C92.0125 63.6244 91.7467 63.8787 91.4924 64.1445C90.198 64.653 88.8457 65.6932 87.6205 65.5545C84.9738 65.254 85.0085 66.1902 85.0431 68.4324C85.0778 70.6053 84.9507 71.6456 87.6321 71.345C88.8573 71.2064 90.2095 72.2581 91.4924 72.7666C91.7583 73.0325 92.0241 73.2983 92.3015 73.5641C94.1276 76.2918 94.4859 79.1004 92.394 81.8165C90.3135 84.5095 87.5165 84.9371 83.9914 83.7813C84.708 87.4105 84.5924 90.716 81.2406 92.7964C78.6632 94.3914 76.1205 93.9522 73.6702 92.3919C73.335 92.0567 73.0114 91.7215 72.6762 91.3979C71.3818 89.4793 71.0466 87.3411 71.4049 85.1104C67.7179 84.6944 64.6551 84.7984 65.0365 89.6874C65.0827 90.2768 64.4355 90.9125 64.1003 91.5251C63.846 91.7909 63.6033 92.0336 63.3606 92.2763ZM81.021 81.0305C78.9059 79.7476 83.3441 75.7139 78.6285 75.6908C76.2245 75.6792 75.6581 76.4998 75.6813 78.7305C75.7159 83.4114 79.6919 78.9848 81.021 81.0305ZM55.9982 81.0883C57.3043 79.32 62.0083 83.5155 61.1877 77.7596C60.5289 73.1827 57.6279 76.7888 56.0214 75.6099C56.6802 77.5169 55.9867 79.1119 55.9982 81.0883ZM81.1828 55.9962C75.6004 56.5741 75.7391 56.5972 75.5772 57.8917C75.034 62.3877 78.432 60.862 81.0672 61.5671C80.2813 59.4751 80.8939 57.7645 81.1828 55.9962ZM55.952 55.7535C56.2641 57.7877 56.4605 59.5329 56.1485 61.4977C57.6857 60.1223 60.7716 63.5204 61.2917 58.9897C61.9274 53.3841 57.2003 57.8339 55.952 55.7535ZM66.3078 68.132C66.4003 69.3224 65.4988 71.033 67.9375 70.5476C69.1742 70.3048 70.7692 71.1832 70.5611 68.6174C70.4224 66.8721 70.33 66.1902 68.3305 66.3174C66.828 66.4098 65.7531 66.2596 66.3078 68.132Z" fill="#FFE8C8"/>
<path d="M64.0421 45.3975C63.8225 45.1779 63.6145 44.9583 63.3949 44.7387C63.3602 44.4613 63.3949 44.1493 63.2909 43.9066C61.8692 40.7744 61.823 37.8156 64.7356 35.5271C67.105 33.6663 69.7748 33.6548 72.1557 35.504C75.0799 37.7694 75.0452 40.7397 73.6582 43.8719C73.5542 44.1146 73.5773 44.4267 73.5427 44.7041C73.3115 44.9352 73.0804 45.1779 72.8492 45.4091C69.9019 46.5996 66.9663 46.5764 64.0421 45.3975Z" fill="#FFE8C8"/>
<path d="M92.3013 73.5757C92.0354 73.3099 91.7696 73.044 91.4922 72.7782C90.2555 69.9003 90.2787 67.034 91.4922 64.1561C91.7581 63.8902 92.0239 63.6359 92.2782 63.3701C93.2143 63.0811 94.1274 62.7228 95.0867 62.5379C97.8028 62.0178 100.137 62.6766 101.698 65.0922C103.119 67.2998 103.119 69.6229 101.709 71.8305C100.161 74.246 97.8144 74.9164 95.0983 74.3963C94.1505 74.2345 93.2375 73.8646 92.3013 73.5757Z" fill="#FFE8C8"/>
<path d="M72.6643 91.4095C72.9994 91.7446 73.323 92.0798 73.6582 92.4034C73.8431 93.0738 74.0281 93.7557 74.2014 94.4261C74.9642 97.2924 74.502 99.8467 71.9592 101.615C69.6246 103.233 67.1049 103.198 64.8049 101.523C62.3084 99.6964 61.9039 97.1306 62.7476 94.2873C62.9441 93.617 63.1637 92.9466 63.3602 92.2763C63.6029 92.0336 63.8456 91.7793 64.0883 91.5366C66.9315 90.3346 69.7979 90.3692 72.6643 91.4095Z" fill="#FFE8C8"/>
<path d="M45.3756 72.8821C45.156 73.1017 44.9364 73.3098 44.7168 73.5294C41.2841 74.6274 37.8399 75.6098 35.2856 71.9113C33.7946 69.7615 33.76 67.4153 35.1816 65.1962C37.6203 61.4167 41.0761 62.2489 44.5434 63.2891C44.8555 63.6012 45.1676 63.9132 45.4796 64.2137C46.6007 67.1263 46.4967 70.0158 45.3756 72.8821Z" fill="#FFE8C8"/>
<path d="M102.484 87.1331C102.553 90.3115 99.6868 93.1779 96.5083 93.1201C93.4917 93.0623 90.7988 90.3809 90.741 87.3527C90.6716 84.1627 93.5264 81.3079 96.7164 81.3657C99.7214 81.4351 102.414 84.1165 102.484 87.1331Z" fill="#FFE8C8"/>
<path d="M40.3366 93.0738C37.1928 93.1084 34.3612 90.2305 34.4652 87.0983C34.5576 84.1049 37.2391 81.4697 40.2325 81.435C43.3763 81.4003 46.2079 84.2783 46.1039 87.4104C46.023 90.4039 43.33 93.0391 40.3366 93.0738Z" fill="#FFE8C8"/>
<path d="M55.5117 96.4255C55.6388 99.5693 52.8303 102.47 49.6634 102.47C46.6699 102.47 43.9538 99.8351 43.8267 96.8416C43.6995 93.6979 46.5081 90.7969 49.6749 90.7969C52.68 90.7969 55.3961 93.4205 55.5117 96.4255Z" fill="#FFE8C8"/>
<path d="M96.2769 55.557C93.0869 55.3605 90.4517 52.2976 90.7754 49.1655C91.0874 46.1373 93.9538 43.6639 96.9241 43.8489C100.114 44.0453 102.749 47.1197 102.426 50.2403C102.125 53.2685 99.2588 55.7419 96.2769 55.557Z" fill="#FFE8C8"/>
<path d="M40.0827 43.8835C43.0415 43.7679 45.8501 46.2875 46.0928 49.2925C46.3471 52.4016 43.6541 55.4067 40.4872 55.5338C37.3551 55.6609 34.4541 52.8639 34.4656 49.7086C34.4772 46.7151 37.0892 43.999 40.0827 43.8835Z" fill="#FFE8C8"/>
<path d="M93.0758 40.3468C93.0643 43.5252 90.1401 46.3222 86.9849 46.1719C83.9683 46.0332 81.3562 43.3056 81.3677 40.289C81.3793 37.1106 84.3034 34.3135 87.4587 34.4638C90.4753 34.6025 93.0874 37.3417 93.0758 40.3468Z" fill="#FFE8C8"/>
<path d="M49.6992 34.4986C52.8545 34.5101 55.6399 37.4227 55.4897 40.5549C55.351 43.5599 52.6233 46.1604 49.6414 46.1373C46.4861 46.1258 43.7006 43.2132 43.8393 40.081C43.9896 37.0875 46.7172 34.4754 49.6992 34.4986Z" fill="#FFE8C8"/>
<path d="M93.0756 96.5642C93.1218 99.7426 90.2439 102.574 87.0771 102.493C84.0605 102.412 81.4022 99.7195 81.3675 96.7029C81.3213 93.5245 84.1876 90.6928 87.366 90.7853C90.3826 90.8662 93.0294 93.5476 93.0756 96.5642Z" fill="#FFE8C8"/>
<path d="M53.6406 105.683C54.1145 102.378 55.9869 100.61 59.3155 100.644C62.4939 100.679 64.817 103.383 64.4125 106.573C63.9849 109.914 61.9045 111.589 58.6105 111.358C55.2472 111.116 53.7331 108.943 53.6406 105.683Z" fill="#FFE8C8"/>
<path d="M105.985 83.3189C102.68 83.03 100.75 81.3079 100.588 77.9561C100.438 74.7661 103.026 72.2234 106.216 72.4545C109.545 72.6973 111.441 74.6505 111.371 77.9792C111.313 81.331 109.279 83.0415 105.985 83.3189Z" fill="#FFE8C8"/>
<path d="M36.2917 77.8059C36.0374 81.1114 34.3615 83.1456 30.9635 83.1687C27.6002 83.1918 25.6353 81.2964 25.5891 77.9215C25.5544 74.5581 27.4615 72.6048 30.8248 72.5471C34.2228 72.5008 35.9681 74.4888 36.2917 77.8059Z" fill="#FFE8C8"/>
<path d="M83.2977 105.961C83.055 109.232 81.3791 111.301 78.0273 111.405C74.7102 111.497 72.7222 109.648 72.4333 106.308C72.1559 103.118 74.6755 100.494 77.8655 100.61C81.2172 100.737 82.9625 102.644 83.2977 105.961Z" fill="#FFE8C8"/>
<path d="M105.905 64.549C102.588 64.2023 100.693 62.4339 100.589 59.0821C100.496 55.8922 103.131 53.3841 106.321 53.6846C109.65 53.9967 111.499 55.9846 111.384 59.3017C111.257 62.6651 109.176 64.3178 105.905 64.549Z" fill="#FFE8C8"/>
<path d="M31.1254 53.7078C34.431 54.1123 36.338 55.9384 36.2109 59.3018C36.0837 62.6767 34.038 64.5144 30.6978 64.3988C27.3229 64.2832 25.4967 62.2375 25.6008 58.8857C25.7048 55.4877 27.8083 53.8811 31.1254 53.7078Z" fill="#FFE8C8"/>
<path d="M64.4924 30.8116C64.1341 34.3367 62.3773 36.3247 58.9909 36.2669C55.616 36.2091 53.6974 34.2327 53.7436 30.8578C53.7898 27.4829 55.7778 25.5758 59.1411 25.599C62.5622 25.6221 64.1803 27.7256 64.4924 30.8116Z" fill="#FFE8C8"/>
<path d="M83.2623 30.9965C82.9503 34.2905 81.2166 36.1975 77.8648 36.3131C74.6633 36.4287 72.1899 33.8513 72.4557 30.6497C72.7216 27.3211 74.6864 25.4834 78.0035 25.5758C81.3553 25.6683 83.0196 27.714 83.2623 30.9965Z" fill="#FFE8C8"/>
<path d="M40.4292 110.965C37.4819 110.63 35.5171 109.081 35.4477 106.123C35.3899 103.175 37.2392 101.257 40.1749 101.187C43.1222 101.118 45.0408 102.979 45.1101 105.915C45.2026 108.873 43.2724 110.48 40.4292 110.965Z" fill="#FFE8C8"/>
<path d="M68.5264 120.373C65.6254 120.027 63.649 118.478 63.5797 115.508C63.5219 112.549 65.3942 110.619 68.3299 110.538C71.2887 110.468 73.2189 112.341 73.2998 115.288C73.3923 118.281 71.4621 119.9 68.5264 120.373Z" fill="#FFE8C8"/>
<path d="M115.729 63.5318C118.352 63.9595 120.144 65.5313 120.306 68.4786C120.444 71.1484 117.682 73.749 115.07 73.3907C112.192 72.9977 110.505 71.2062 110.47 68.259C110.424 65.7394 112.99 63.4625 115.729 63.5318Z" fill="#FFE8C8"/>
<path d="M26.4443 68.4324C25.9704 71.4722 24.3523 73.3677 21.405 73.2868C18.4809 73.2059 16.6316 71.2988 16.701 68.3631C16.7703 65.439 18.6889 63.6012 21.6246 63.659C24.5835 63.7168 26.0629 65.7279 26.4443 68.4324Z" fill="#FFE8C8"/>
<path d="M68.3761 16.6069C71.2655 16.9421 73.2304 18.4909 73.2766 21.4497C73.3344 24.3969 71.4736 26.3155 68.5379 26.3733C65.5906 26.4311 63.6836 24.5703 63.6142 21.6346C63.5449 18.6758 65.4635 17.0692 68.3761 16.6069Z" fill="#FFE8C8"/>
<path d="M45.2025 30.8578C44.8789 33.7357 43.3417 35.6775 40.3944 35.7468C37.4587 35.8046 35.5517 33.9669 35.4824 31.0428C35.413 28.1071 37.2623 26.2 40.1864 26.1307C43.1337 26.0498 44.7402 27.9452 45.2025 30.8578Z" fill="#FFE8C8"/>
<path d="M101.571 106.111C101.086 109.035 99.4676 110.965 96.4972 110.884C93.55 110.803 91.6776 108.873 91.747 105.914C91.8279 102.967 93.758 101.095 96.7168 101.164C99.6872 101.222 101.236 103.21 101.571 106.111Z" fill="#FFE8C8"/>
<path d="M96.532 25.9689C99.433 26.3156 101.409 27.8644 101.479 30.8347C101.537 33.7935 99.6641 35.7237 96.7169 35.7931C93.7581 35.8624 91.8279 33.9785 91.7586 31.0312C91.6661 28.0609 93.5963 26.4427 96.532 25.9689Z" fill="#FFE8C8"/>
<path d="M30.8597 91.71C33.8994 92.1723 35.7949 93.7904 35.714 96.7376C35.6446 99.6618 33.7376 101.511 30.8019 101.453C27.8778 101.384 26.0401 99.4768 26.0863 96.5411C26.1441 93.5708 28.1436 92.0914 30.8597 91.71Z" fill="#FFE8C8"/>
<path d="M106.066 45.2819C103.165 44.9352 101.189 43.3749 101.131 40.4045C101.073 37.4457 102.946 35.5155 105.905 35.4462C108.863 35.3768 110.782 37.2608 110.863 40.208C110.932 43.2015 108.991 44.8196 106.066 45.2819Z" fill="#FFE8C8"/>
<path d="M35.8174 40.1734C35.4823 43.1207 33.9451 45.0739 30.9978 45.1317C28.0621 45.1895 26.1551 43.3403 26.0857 40.4161C26.0164 37.4804 27.8656 35.5849 30.7898 35.504C33.7601 35.4231 35.3436 37.3533 35.8174 40.1734Z" fill="#FFE8C8"/>
<path d="M110.978 96.7376C110.504 99.6155 108.921 101.407 105.973 101.546C103.304 101.684 100.715 98.9104 101.073 96.2868C101.477 93.4089 103.28 91.5827 106.216 91.733C109.14 91.8948 110.666 93.8596 110.978 96.7376Z" fill="#FFE8C8"/>
<path d="M115.521 45.1896C118.399 45.4901 119.971 47.0735 119.832 49.9514C119.682 52.864 117.867 54.3203 115.024 54.1469C112.354 53.9851 110.886 52.3323 110.921 49.6509C110.955 46.7499 112.678 45.3398 115.521 45.1896Z" fill="#FFE8C8"/>
<path d="M115.497 91.8024C112.492 91.525 110.851 90.034 110.897 87.1792C110.944 84.3244 112.596 82.7294 115.44 82.7641C118.294 82.7988 119.866 84.4631 119.866 87.3064C119.855 90.219 118.086 91.5596 115.497 91.8024Z" fill="#FFE8C8"/>
<path d="M21.3357 91.7215C18.5041 91.3979 16.9553 89.826 17.1171 86.9713C17.2789 84.0818 19.0819 82.6602 21.9021 82.8451C24.5604 83.0185 25.982 84.6712 25.9242 87.318C25.878 90.219 24.1558 91.5828 21.3357 91.7215Z" fill="#FFE8C8"/>
<path d="M87.2151 17.0577C90.0583 17.2773 91.7111 18.7567 91.6533 21.6462C91.5839 24.5472 89.8734 26.0613 87.0186 25.9804C84.3487 25.8995 82.8347 24.3276 82.7884 21.6578C82.7422 18.7568 84.3718 17.2773 87.2151 17.0577Z" fill="#FFE8C8"/>
<path d="M21.8096 54.1815C18.8046 54.0082 17.1056 52.5981 17.1056 49.7086C17.1171 46.8307 18.7468 45.2589 21.6131 45.2935C24.2715 45.3166 25.8087 46.8307 25.9242 49.489C26.0514 52.39 24.4217 53.8463 21.8096 54.1815Z" fill="#FFE8C8"/>
<path d="M91.7583 115.404C91.4231 118.455 89.8166 120.015 86.9502 119.853C84.0376 119.692 82.5929 117.854 82.7779 115.011C82.9512 112.329 84.6271 110.896 87.297 110.931C90.2442 110.988 91.5503 112.78 91.7583 115.404Z" fill="#FFE8C8"/>
<path d="M49.8253 119.911C46.7855 119.657 45.1559 118.143 45.2484 115.253C45.3408 112.352 47.0745 110.861 49.9293 110.965C52.5991 111.069 54.0786 112.664 54.1133 115.334C54.1595 118.281 52.4258 119.645 49.8253 119.911Z" fill="#FFE8C8"/>
<path d="M54.149 21.7271C53.8254 24.5588 52.2535 26.1076 49.3987 25.9457C46.5093 25.7839 45.0877 23.9809 45.2726 21.1608C45.446 18.5025 47.0988 17.0809 49.7455 17.1387C52.6465 17.1849 54.0104 18.907 54.149 21.7271Z" fill="#FFE8C8"/>
<path d="M124.733 81.9436C122.167 81.4466 120.583 80.0365 120.803 77.5631C121.011 75.1591 122.675 73.6566 125.172 73.9109C127.403 74.1305 128.824 75.6792 128.743 77.9561C128.651 80.4411 126.963 81.6431 124.733 81.9436Z" fill="#FFE8C8"/>
<path d="M12.1481 81.7933C9.75565 81.5506 8.21844 80.2215 8.27623 77.7366C8.32246 75.4712 9.79031 74.0149 12.0672 74.0034C14.5406 73.9918 16.0547 75.5174 16.0084 78.0024C15.9507 80.2562 14.4713 81.516 12.1481 81.7933Z" fill="#FFE8C8"/>
<path d="M77.7152 8.19287C79.8996 8.34312 81.4946 9.46424 81.7142 11.7527C81.9454 14.2607 80.5006 15.9135 78.0388 16.0522C75.5539 16.1909 73.9705 14.6422 73.9358 12.1572C73.9011 9.86877 75.3689 8.56272 77.7152 8.19287Z" fill="#FFE8C8"/>
<path d="M128.823 58.955C128.592 61.3475 127.321 63.0118 124.848 63.058C122.386 63.1042 120.825 61.5208 120.791 59.059C120.768 56.7937 122.247 55.268 124.478 55.1178C126.951 54.956 128.35 56.5047 128.823 58.955Z" fill="#FFE8C8"/>
<path d="M12.0194 55.1639C14.1807 55.3026 15.7526 56.4006 15.9722 58.6775C16.2034 61.1625 14.7817 62.8037 12.3314 62.9424C9.86962 63.0695 8.29777 61.567 8.26309 59.0821C8.23998 56.8052 9.67315 55.5107 12.0194 55.1639Z" fill="#FFE8C8"/>
<path d="M63.0827 124.708C62.84 127.077 61.557 128.718 59.1068 128.73C56.6681 128.741 55.1309 127.181 55.1309 124.731C55.1309 122.477 56.6103 120.986 58.8294 120.859C61.2797 120.72 62.6666 122.246 63.0827 124.708Z" fill="#FFE8C8"/>
<path d="M63.025 12.0879C62.8516 14.307 61.6727 15.8673 59.3958 16.0407C56.8993 16.2256 55.2465 14.7578 55.1656 12.2844C55.0731 9.79943 56.645 8.23912 59.1415 8.25067C61.4184 8.27379 62.7014 9.76474 63.025 12.0879Z" fill="#FFE8C8"/>
<path d="M77.842 128.811C75.438 128.499 73.8314 127.169 73.8892 124.708C73.947 122.269 75.5651 120.766 78.0154 120.847C80.246 120.928 81.7254 122.419 81.7717 124.661C81.8295 127.135 80.2692 128.464 77.842 128.811Z" fill="#FFE8C8"/>
<path d="M115.336 109.613C113.013 109.428 111.718 108.18 111.822 105.799C111.915 103.638 113.221 102.436 115.37 102.459C117.763 102.482 119.011 103.869 118.919 106.227C118.849 108.411 117.509 109.474 115.336 109.613Z" fill="#FFE8C8"/>
<path d="M105.65 17.9592C108.169 18.0864 109.533 19.219 109.51 21.6115C109.487 23.7613 108.273 25.0211 106.124 25.0673C103.766 25.1251 102.46 23.8422 102.448 21.4844C102.46 19.2999 103.777 18.2482 105.65 17.9592Z" fill="#FFE8C8"/>
<path d="M106.043 111.809C108.216 111.994 109.511 113.104 109.546 115.288C109.58 117.657 108.286 118.987 105.905 118.963C103.743 118.94 102.495 117.704 102.437 115.531C102.391 113.138 103.732 111.948 106.043 111.809Z" fill="#FFE8C8"/>
<path d="M115.059 27.321C117.578 27.4482 118.954 28.5924 118.931 30.9964C118.908 33.1578 117.694 34.4291 115.521 34.4754C113.152 34.5332 111.823 33.2387 111.823 30.8577C111.823 28.6733 113.14 27.5984 115.059 27.321Z" fill="#FFE8C8"/>
<path d="M34.4307 21.6231C34.2227 23.7497 33.1015 25.0327 30.9287 25.0211C28.5362 25.0095 27.2879 23.5995 27.4382 21.2648C27.5653 19.115 28.9407 17.9824 31.0905 18.0748C33.2633 18.1673 34.3036 19.4964 34.4307 21.6231Z" fill="#FFE8C8"/>
<path d="M21.6482 102.47C23.7864 102.701 25.0462 103.846 25.0115 106.042C24.9653 108.457 23.5321 109.682 21.1743 109.509C19.0015 109.359 17.8919 107.949 18.0075 105.787C18.1462 103.591 19.4984 102.563 21.6482 102.47Z" fill="#FFE8C8"/>
<path d="M99.9526 12.0416C99.7793 13.9833 98.7622 15.324 96.8205 15.428C94.6591 15.5436 93.3069 14.226 93.33 12.0647C93.3531 10.123 94.6361 8.89783 96.5893 8.87471C98.5657 8.86315 99.6175 10.1461 99.9526 12.0416Z" fill="#FFE8C8"/>
<path d="M43.6081 12.1687C43.3308 14.0642 42.3021 15.3934 40.372 15.4049C38.2453 15.4165 36.9162 14.0642 37.0433 11.9376C37.1589 10.0537 38.4534 8.82851 40.4066 8.90942C42.3484 8.99032 43.3539 10.2848 43.6081 12.1687Z" fill="#FFE8C8"/>
<path d="M30.894 111.855C33.0438 112.006 34.3729 113.092 34.4076 115.288C34.4423 117.681 33.09 118.987 30.7091 118.894C28.5247 118.813 27.3573 117.472 27.4035 115.311C27.4498 113.115 28.7442 112.029 30.894 111.855Z" fill="#FFE8C8"/>
<path d="M124.744 100.032C122.676 99.7427 121.335 98.6101 121.45 96.4372C121.554 94.507 122.814 93.2819 124.756 93.305C126.906 93.3397 128.189 94.6688 128.096 96.8301C128.004 98.7834 126.698 99.8005 124.744 100.032Z" fill="#FFE8C8"/>
<path d="M11.8812 93.2935C13.9501 93.5246 15.2908 94.5302 15.3717 96.4488C15.4641 98.5754 14.135 99.9277 12.0083 99.8815C10.1013 99.8468 8.88773 98.5523 8.87617 96.6221C8.86461 94.6457 10.2284 93.698 11.8812 93.2935Z" fill="#FFE8C8"/>
<path d="M21.6476 34.487C19.3014 34.2327 18.0185 33.1231 18.0416 30.9503C18.0647 28.5578 19.4748 27.3211 21.821 27.4714C23.9708 27.61 25.0919 28.9854 24.9994 31.1352C24.907 33.3312 23.4969 34.2789 21.6476 34.487Z" fill="#FFE8C8"/>
<path d="M124.559 43.687C122.56 43.2594 121.242 42.092 121.485 39.9423C121.693 38.0699 122.999 36.8679 124.929 37.0066C127.033 37.1684 128.269 38.5438 128.05 40.6704C127.853 42.5775 126.524 43.5714 124.559 43.687Z" fill="#FFE8C8"/>
<path d="M43.6429 124.927C43.2962 126.823 42.2328 128.094 40.268 128.071C38.3147 128.048 37.0434 126.811 37.0318 124.87C37.0203 122.708 38.3841 121.402 40.5338 121.529C42.4524 121.633 43.4695 122.986 43.6429 124.927Z" fill="#FFE8C8"/>
<path d="M96.3804 121.379C98.6341 121.703 99.9864 122.801 99.9055 124.95C99.8246 126.857 98.5764 128.094 96.6462 128.082C94.5196 128.071 93.2482 126.753 93.2944 124.615C93.3522 122.685 94.7391 121.76 96.3804 121.379Z" fill="#FFE8C8"/>
<path d="M15.43 40.4046C15.0717 42.3232 13.9968 43.6177 12.0204 43.5252C10.0787 43.4443 8.842 42.1498 8.91134 40.1966C8.99225 38.2548 10.2752 37.0181 12.24 37.0875C14.1933 37.1684 15.2104 38.4975 15.43 40.4046Z" fill="#FFE8C8"/>
<path d="M137.111 68.3977C136.914 70.3047 135.932 71.4027 134.129 71.3796C132.326 71.3565 131.228 70.2469 131.251 68.4439C131.274 66.6409 132.384 65.5545 134.187 65.566C136.001 65.5776 136.926 66.7333 137.111 68.3977Z" fill="#FFE8C8"/>
<path d="M89.7934 133.85C89.724 135.572 88.9843 136.566 87.528 136.705C85.8637 136.867 84.7657 135.988 84.7079 134.278C84.6501 132.579 85.6557 131.631 87.3431 131.654C88.8572 131.677 89.5391 132.694 89.7934 133.85Z" fill="#FFE8C8"/>
<path d="M65.5686 134.231C65.8344 132.209 66.8978 131.215 68.7008 131.365C70.5385 131.515 71.44 132.763 71.2551 134.543C71.0933 136.127 70.0299 137.051 68.3887 137.005C66.5395 136.959 65.7189 135.792 65.5686 134.231Z" fill="#FFE8C8"/>
<path d="M52.2302 134.162C52.0453 135.757 51.2016 136.751 49.5257 136.682C48.081 136.612 47.1794 135.688 47.1794 134.243C47.1794 132.59 48.1734 131.631 49.8262 131.689C51.2825 131.735 52.0337 132.706 52.2302 134.162Z" fill="#FFE8C8"/>
<path d="M52.1947 2.79539C51.9982 4.24012 51.2238 5.22254 49.7559 5.2341C48.08 5.24565 47.0861 4.20545 47.2248 2.54111C47.3403 1.1195 48.3228 0.217992 49.8137 0.310455C51.27 0.39136 52.0213 1.35065 52.1947 2.79539Z" fill="#FFE8C8"/>
<path d="M71.2651 2.78377C71.034 4.81796 69.9013 5.71947 68.0867 5.5461C66.4455 5.38429 65.5671 4.27473 65.6711 2.63352C65.7867 0.726469 67.0003 -0.151922 68.8149 0.0214459C70.4676 0.16014 71.2073 1.30437 71.2651 2.78377Z" fill="#FFE8C8"/>
<path d="M89.8043 2.67967C89.5038 4.4827 88.5676 5.44201 86.9264 5.26864C85.5279 5.11839 84.6264 4.14753 84.7304 2.69124C84.8345 1.03847 85.8862 0.136954 87.5274 0.287206C88.9606 0.414342 89.6194 1.47766 89.8043 2.67967Z" fill="#FFE8C8"/>
<path d="M5.25941 49.6971C5.08604 51.1418 4.31168 52.1358 2.85539 52.1589C1.1795 52.1936 0.18552 51.1649 0.28954 49.4891C0.382003 48.0559 1.36441 47.1659 2.84382 47.2237C4.32322 47.3046 5.07448 48.2639 5.25941 49.6971Z" fill="#FFE8C8"/>
<path d="M136.753 49.4313C136.638 51.2806 135.806 52.2514 134.118 52.2514C132.65 52.2514 131.726 51.4193 131.61 49.9746C131.471 48.3449 132.292 47.27 133.98 47.1429C135.679 47.0273 136.488 48.0444 136.753 49.4313Z" fill="#FFE8C8"/>
<path d="M5.51318 68.4902C5.3976 70.2586 4.4383 71.2872 2.58904 71.2179C0.947828 71.1601 0.0116521 70.1776 9.42644e-05 68.5364C-0.0114636 66.6756 1.0403 65.6817 2.88956 65.7394C4.54233 65.7857 5.38604 66.7912 5.51318 68.4902Z" fill="#FFE8C8"/>
<path d="M5.25892 87.318C5.03932 88.7512 4.2534 89.7336 2.78556 89.7105C1.10967 89.6874 0.127243 88.6356 0.289053 86.9713C0.427747 85.5613 1.43327 84.6597 2.91267 84.7753C4.36897 84.8909 5.13178 85.8617 5.25892 87.318Z" fill="#FFE8C8"/>
<path d="M136.742 87.1909C136.638 88.8205 135.806 89.803 134.118 89.803C132.65 89.803 131.726 88.9708 131.61 87.5261C131.471 85.8964 132.292 84.8099 133.98 84.6944C135.644 84.5903 136.545 85.5265 136.742 87.1909Z" fill="#FFE8C8"/>
</svg>
