<svg width="100" height="100" viewBox="0 0 100 100" fill="none" xmlns="http://www.w3.org/2000/svg">
<rect x="36.2535" y="2.36353" width="70" height="70" rx="10" transform="rotate(30.1351 36.2535 2.36353)" fill="#FFAC37"/>
<path fill-rule="evenodd" clip-rule="evenodd" d="M36.3814 41.2136C37.6378 35.4871 42.6492 31.0172 48.6667 32.3269C51.8328 33.0143 54.4816 35.2303 55.7304 38.1849C58.769 37.7808 62.1384 39.0044 64.3059 41.4054C68.4273 45.9814 67.0425 52.5565 62.6943 56.4882C55.8441 62.7447 41.6733 62.4006 41.6733 62.4006C41.6733 62.4006 34.3744 50.4011 36.3814 41.2136Z" stroke="white" stroke-width="4" stroke-linecap="round" stroke-linejoin="round"/>
<g filter="url(#filter0_b)">
<rect x="36.0641" y="0.941406" width="71.8604" height="71.3346" rx="10" transform="rotate(29.6652 36.0641 0.941406)" fill="#FEEACE" fill-opacity="0.1"/>
</g>
<defs>
<filter id="filter0_b" x="-4.24158" y="-4.05859" width="107.748" height="107.551" filterUnits="userSpaceOnUse" color-interpolation-filters="sRGB">
<feFlood flood-opacity="0" result="BackgroundImageFix"/>
<feGaussianBlur in="BackgroundImage" stdDeviation="2.5"/>
<feComposite in2="SourceAlpha" operator="in" result="effect1_backgroundBlur"/>
<feBlend mode="normal" in="SourceGraphic" in2="effect1_backgroundBlur" result="shape"/>
</filter>
</defs>
</svg>
