<svg width="368" height="150" viewBox="0 0 368 150" fill="none" xmlns="http://www.w3.org/2000/svg">
<g filter="url(#filter0_d)">
<rect x="40" y="20" width="288" height="70" rx="35" fill="white"/>
</g>
<path d="M129.288 48.112C128.243 48.112 127.283 47.8667 126.408 47.376C125.533 46.8853 124.84 46.208 124.328 45.344C123.816 44.4693 123.56 43.4827 123.56 42.384C123.56 41.296 123.816 40.32 124.328 39.456C124.84 38.5813 125.533 37.8987 126.408 37.408C127.283 36.9173 128.243 36.672 129.288 36.672C130.344 36.672 131.304 36.9173 132.168 37.408C133.043 37.8987 133.731 38.5813 134.232 39.456C134.744 40.32 135 41.296 135 42.384C135 43.4827 134.744 44.4693 134.232 45.344C133.731 46.208 133.043 46.8853 132.168 47.376C131.293 47.8667 130.333 48.112 129.288 48.112ZM129.288 46.112C129.96 46.112 130.552 45.9627 131.064 45.664C131.576 45.3547 131.976 44.9173 132.264 44.352C132.552 43.7867 132.696 43.1307 132.696 42.384C132.696 41.6373 132.552 40.9867 132.264 40.432C131.976 39.8667 131.576 39.4347 131.064 39.136C130.552 38.8373 129.96 38.688 129.288 38.688C128.616 38.688 128.019 38.8373 127.496 39.136C126.984 39.4347 126.584 39.8667 126.296 40.432C126.008 40.9867 125.864 41.6373 125.864 42.384C125.864 43.1307 126.008 43.7867 126.296 44.352C126.584 44.9173 126.984 45.3547 127.496 45.664C128.019 45.9627 128.616 46.112 129.288 46.112ZM145.035 39.136V48H142.779V46.88C142.491 47.264 142.112 47.568 141.643 47.792C141.184 48.0053 140.683 48.112 140.139 48.112C139.445 48.112 138.832 47.968 138.299 47.68C137.765 47.3813 137.344 46.9493 137.035 46.384C136.736 45.808 136.587 45.1253 136.587 44.336V39.136H138.827V44.016C138.827 44.72 139.003 45.264 139.355 45.648C139.707 46.0213 140.187 46.208 140.795 46.208C141.413 46.208 141.899 46.0213 142.251 45.648C142.603 45.264 142.779 44.72 142.779 44.016V39.136H145.035ZM149.485 40.512C149.773 40.0427 150.146 39.6747 150.605 39.408C151.074 39.1413 151.607 39.008 152.205 39.008V41.36H151.613C150.909 41.36 150.375 41.5253 150.013 41.856C149.661 42.1867 149.485 42.7627 149.485 43.584V48H147.245V39.136H149.485V40.512ZM166.79 36.832V48H164.55V43.248H159.766V48H157.526V36.832H159.766V41.424H164.55V36.832H166.79ZM168.419 43.536C168.419 42.64 168.595 41.8453 168.947 41.152C169.309 40.4587 169.795 39.9253 170.403 39.552C171.021 39.1787 171.709 38.992 172.467 38.992C173.128 38.992 173.704 39.1253 174.195 39.392C174.696 39.6587 175.096 39.9947 175.395 40.4V39.136H177.651V48H175.395V46.704C175.107 47.12 174.707 47.4667 174.195 47.744C173.693 48.0107 173.112 48.144 172.451 48.144C171.704 48.144 171.021 47.952 170.403 47.568C169.795 47.184 169.309 46.6453 168.947 45.952C168.595 45.248 168.419 44.4427 168.419 43.536ZM175.395 43.568C175.395 43.024 175.288 42.56 175.075 42.176C174.861 41.7813 174.573 41.4827 174.211 41.28C173.848 41.0667 173.459 40.96 173.043 40.96C172.627 40.96 172.243 41.0613 171.891 41.264C171.539 41.4667 171.251 41.7653 171.027 42.16C170.813 42.544 170.707 43.0027 170.707 43.536C170.707 44.0693 170.813 44.5387 171.027 44.944C171.251 45.3387 171.539 45.6427 171.891 45.856C172.253 46.0693 172.637 46.176 173.043 46.176C173.459 46.176 173.848 46.0747 174.211 45.872C174.573 45.6587 174.861 45.36 175.075 44.976C175.288 44.5813 175.395 44.112 175.395 43.568ZM182.078 40.416C182.366 40.0107 182.761 39.6747 183.262 39.408C183.774 39.1307 184.356 38.992 185.006 38.992C185.764 38.992 186.446 39.1787 187.054 39.552C187.673 39.9253 188.158 40.4587 188.51 41.152C188.873 41.8347 189.054 42.6293 189.054 43.536C189.054 44.4427 188.873 45.248 188.51 45.952C188.158 46.6453 187.673 47.184 187.054 47.568C186.446 47.952 185.764 48.144 185.006 48.144C184.356 48.144 183.78 48.0107 183.278 47.744C182.788 47.4773 182.388 47.1413 182.078 46.736V52.224H179.838V39.136H182.078V40.416ZM186.766 43.536C186.766 43.0027 186.654 42.544 186.43 42.16C186.217 41.7653 185.929 41.4667 185.566 41.264C185.214 41.0613 184.83 40.96 184.414 40.96C184.009 40.96 183.625 41.0667 183.262 41.28C182.91 41.4827 182.622 41.7813 182.398 42.176C182.185 42.5707 182.078 43.0347 182.078 43.568C182.078 44.1013 182.185 44.5653 182.398 44.96C182.622 45.3547 182.91 45.6587 183.262 45.872C183.625 46.0747 184.009 46.176 184.414 46.176C184.83 46.176 185.214 46.0693 185.566 45.856C185.929 45.6427 186.217 45.3387 186.43 44.944C186.654 44.5493 186.766 44.08 186.766 43.536ZM192.922 40.416C193.21 40.0107 193.605 39.6747 194.106 39.408C194.618 39.1307 195.199 38.992 195.85 38.992C196.607 38.992 197.29 39.1787 197.898 39.552C198.517 39.9253 199.002 40.4587 199.354 41.152C199.717 41.8347 199.898 42.6293 199.898 43.536C199.898 44.4427 199.717 45.248 199.354 45.952C199.002 46.6453 198.517 47.184 197.898 47.568C197.29 47.952 196.607 48.144 195.85 48.144C195.199 48.144 194.623 48.0107 194.122 47.744C193.631 47.4773 193.231 47.1413 192.922 46.736V52.224H190.682V39.136H192.922V40.416ZM197.61 43.536C197.61 43.0027 197.498 42.544 197.274 42.16C197.061 41.7653 196.773 41.4667 196.41 41.264C196.058 41.0613 195.674 40.96 195.258 40.96C194.853 40.96 194.469 41.0667 194.106 41.28C193.754 41.4827 193.466 41.7813 193.242 42.176C193.029 42.5707 192.922 43.0347 192.922 43.568C192.922 44.1013 193.029 44.5653 193.242 44.96C193.466 45.3547 193.754 45.6587 194.106 45.872C194.469 46.0747 194.853 46.176 195.258 46.176C195.674 46.176 196.058 46.0693 196.41 45.856C196.773 45.6427 197.061 45.3387 197.274 44.944C197.498 44.5493 197.61 44.08 197.61 43.536ZM210.006 39.136L204.518 52.192H202.134L204.054 47.776L200.502 39.136H203.014L205.302 45.328L207.622 39.136H210.006ZM214.482 42.4C214.482 41.3013 214.727 40.32 215.218 39.456C215.719 38.5813 216.397 37.904 217.25 37.424C218.114 36.9333 219.079 36.688 220.146 36.688C221.394 36.688 222.487 37.008 223.426 37.648C224.365 38.288 225.021 39.1733 225.394 40.304H222.818C222.562 39.7707 222.199 39.3707 221.73 39.104C221.271 38.8373 220.738 38.704 220.13 38.704C219.479 38.704 218.898 38.8587 218.386 39.168C217.885 39.4667 217.49 39.8933 217.202 40.448C216.925 41.0027 216.786 41.6533 216.786 42.4C216.786 43.136 216.925 43.7867 217.202 44.352C217.49 44.9067 217.885 45.3387 218.386 45.648C218.898 45.9467 219.479 46.096 220.13 46.096C220.738 46.096 221.271 45.9627 221.73 45.696C222.199 45.4187 222.562 45.0133 222.818 44.48H225.394C225.021 45.6213 224.365 46.512 223.426 47.152C222.498 47.7813 221.405 48.096 220.146 48.096C219.079 48.096 218.114 47.856 217.25 47.376C216.397 46.8853 215.719 46.208 215.218 45.344C214.727 44.48 214.482 43.4987 214.482 42.4ZM235.675 39.136V48H233.419V46.88C233.131 47.264 232.752 47.568 232.283 47.792C231.824 48.0053 231.323 48.112 230.779 48.112C230.086 48.112 229.472 47.968 228.939 47.68C228.406 47.3813 227.984 46.9493 227.675 46.384C227.376 45.808 227.227 45.1253 227.227 44.336V39.136H229.467V44.016C229.467 44.72 229.643 45.264 229.995 45.648C230.347 46.0213 230.827 46.208 231.435 46.208C232.054 46.208 232.539 46.0213 232.891 45.648C233.243 45.264 233.419 44.72 233.419 44.016V39.136H235.675ZM241.277 48.144C240.552 48.144 239.901 48.016 239.325 47.76C238.749 47.4933 238.291 47.136 237.949 46.688C237.619 46.24 237.437 45.744 237.405 45.2H239.661C239.704 45.5413 239.869 45.824 240.157 46.048C240.456 46.272 240.824 46.384 241.261 46.384C241.688 46.384 242.019 46.2987 242.253 46.128C242.499 45.9573 242.621 45.7387 242.621 45.472C242.621 45.184 242.472 44.9707 242.173 44.832C241.885 44.6827 241.421 44.5227 240.781 44.352C240.12 44.192 239.576 44.0267 239.149 43.856C238.733 43.6853 238.371 43.424 238.061 43.072C237.763 42.72 237.613 42.2453 237.613 41.648C237.613 41.1573 237.752 40.7093 238.029 40.304C238.317 39.8987 238.723 39.5787 239.245 39.344C239.779 39.1093 240.403 38.992 241.117 38.992C242.173 38.992 243.016 39.2587 243.645 39.792C244.275 40.3147 244.621 41.024 244.685 41.92H242.541C242.509 41.568 242.36 41.2907 242.093 41.088C241.837 40.8747 241.491 40.768 241.053 40.768C240.648 40.768 240.333 40.8427 240.109 40.992C239.896 41.1413 239.789 41.3493 239.789 41.616C239.789 41.9147 239.939 42.144 240.237 42.304C240.536 42.4533 241 42.608 241.629 42.768C242.269 42.928 242.797 43.0933 243.213 43.264C243.629 43.4347 243.987 43.7013 244.285 44.064C244.595 44.416 244.755 44.8853 244.765 45.472C244.765 45.984 244.621 46.4427 244.333 46.848C244.056 47.2533 243.651 47.5733 243.117 47.808C242.595 48.032 241.981 48.144 241.277 48.144ZM249.212 40.976V45.264C249.212 45.5627 249.281 45.7813 249.42 45.92C249.569 46.048 249.815 46.112 250.156 46.112H251.196V48H249.788C247.9 48 246.956 47.0827 246.956 45.248V40.976H245.9V39.136H246.956V36.944H249.212V39.136H251.196V40.976H249.212ZM256.743 48.144C255.89 48.144 255.122 47.9573 254.439 47.584C253.756 47.2 253.218 46.6613 252.823 45.968C252.439 45.2747 252.247 44.4747 252.247 43.568C252.247 42.6613 252.444 41.8613 252.839 41.168C253.244 40.4747 253.794 39.9413 254.487 39.568C255.18 39.184 255.954 38.992 256.807 38.992C257.66 38.992 258.434 39.184 259.127 39.568C259.82 39.9413 260.364 40.4747 260.759 41.168C261.164 41.8613 261.367 42.6613 261.367 43.568C261.367 44.4747 261.159 45.2747 260.743 45.968C260.338 46.6613 259.783 47.2 259.079 47.584C258.386 47.9573 257.607 48.144 256.743 48.144ZM256.743 46.192C257.148 46.192 257.527 46.096 257.879 45.904C258.242 45.7013 258.53 45.4027 258.743 45.008C258.956 44.6133 259.063 44.1333 259.063 43.568C259.063 42.7253 258.839 42.08 258.391 41.632C257.954 41.1733 257.415 40.944 256.775 40.944C256.135 40.944 255.596 41.1733 255.159 41.632C254.732 42.08 254.519 42.7253 254.519 43.568C254.519 44.4107 254.727 45.0613 255.143 45.52C255.57 45.968 256.103 46.192 256.743 46.192ZM274.018 39.008C275.106 39.008 275.981 39.344 276.642 40.016C277.314 40.6773 277.65 41.6053 277.65 42.8V48H275.41V43.104C275.41 42.4107 275.234 41.8827 274.882 41.52C274.53 41.1467 274.05 40.96 273.442 40.96C272.834 40.96 272.349 41.1467 271.986 41.52C271.634 41.8827 271.458 42.4107 271.458 43.104V48H269.218V43.104C269.218 42.4107 269.042 41.8827 268.69 41.52C268.338 41.1467 267.858 40.96 267.25 40.96C266.632 40.96 266.141 41.1467 265.778 41.52C265.426 41.8827 265.25 42.4107 265.25 43.104V48H263.01V39.136H265.25V40.208C265.538 39.8347 265.906 39.5413 266.354 39.328C266.813 39.1147 267.314 39.008 267.858 39.008C268.552 39.008 269.17 39.1573 269.714 39.456C270.258 39.744 270.68 40.16 270.978 40.704C271.266 40.192 271.682 39.7813 272.226 39.472C272.781 39.1627 273.378 39.008 274.018 39.008ZM288.016 43.376C288.016 43.696 287.995 43.984 287.952 44.24H281.472C281.525 44.88 281.749 45.3813 282.144 45.744C282.539 46.1067 283.024 46.288 283.6 46.288C284.432 46.288 285.024 45.9307 285.376 45.216H287.792C287.536 46.0693 287.045 46.7733 286.32 47.328C285.595 47.872 284.704 48.144 283.648 48.144C282.795 48.144 282.027 47.9573 281.344 47.584C280.672 47.2 280.144 46.6613 279.76 45.968C279.387 45.2747 279.2 44.4747 279.2 43.568C279.2 42.6507 279.387 41.8453 279.76 41.152C280.133 40.4587 280.656 39.9253 281.328 39.552C282 39.1787 282.773 38.992 283.648 38.992C284.491 38.992 285.243 39.1733 285.904 39.536C286.576 39.8987 287.093 40.416 287.456 41.088C287.829 41.7493 288.016 42.512 288.016 43.376ZM285.696 42.736C285.685 42.16 285.477 41.7013 285.072 41.36C284.667 41.008 284.171 40.832 283.584 40.832C283.029 40.832 282.56 41.0027 282.176 41.344C281.803 41.6747 281.573 42.1387 281.488 42.736H285.696ZM291.891 40.512C292.179 40.0427 292.552 39.6747 293.011 39.408C293.48 39.1413 294.014 39.008 294.611 39.008V41.36H294.019C293.315 41.36 292.782 41.5253 292.419 41.856C292.067 42.1867 291.891 42.7627 291.891 43.584V48H289.651V39.136H291.891V40.512Z" fill="#575757"/>
<path d="M145.564 73.296V71.976L149.488 66.36H151.444V71.832H152.5V73.296H151.444V75H149.764V73.296H145.564ZM149.872 68.16L147.412 71.832H149.872V68.16ZM154.506 75.084C154.202 75.084 153.95 74.992 153.75 74.808C153.558 74.616 153.462 74.38 153.462 74.1C153.462 73.82 153.558 73.588 153.75 73.404C153.95 73.212 154.202 73.116 154.506 73.116C154.802 73.116 155.046 73.212 155.238 73.404C155.43 73.588 155.526 73.82 155.526 74.1C155.526 74.38 155.43 74.616 155.238 74.808C155.046 74.992 154.802 75.084 154.506 75.084ZM158.631 72.54C158.695 72.892 158.839 73.164 159.063 73.356C159.295 73.54 159.603 73.632 159.987 73.632C160.483 73.632 160.843 73.428 161.067 73.02C161.291 72.604 161.403 71.908 161.403 70.932C161.219 71.188 160.959 71.388 160.623 71.532C160.295 71.676 159.939 71.748 159.555 71.748C159.043 71.748 158.579 71.644 158.163 71.436C157.755 71.22 157.431 70.904 157.191 70.488C156.951 70.064 156.831 69.552 156.831 68.952C156.831 68.064 157.095 67.36 157.623 66.84C158.151 66.312 158.871 66.048 159.783 66.048C160.919 66.048 161.719 66.412 162.183 67.14C162.655 67.868 162.891 68.964 162.891 70.428C162.891 71.468 162.799 72.32 162.615 72.984C162.439 73.648 162.131 74.152 161.691 74.496C161.259 74.84 160.667 75.012 159.915 75.012C159.323 75.012 158.819 74.9 158.403 74.676C157.987 74.444 157.667 74.144 157.443 73.776C157.227 73.4 157.103 72.988 157.071 72.54H158.631ZM159.903 70.38C160.319 70.38 160.647 70.252 160.887 69.996C161.127 69.74 161.247 69.396 161.247 68.964C161.247 68.492 161.119 68.128 160.863 67.872C160.615 67.608 160.275 67.476 159.843 67.476C159.411 67.476 159.067 67.612 158.811 67.884C158.563 68.148 158.439 68.5 158.439 68.94C158.439 69.364 158.559 69.712 158.799 69.984C159.047 70.248 159.415 70.38 159.903 70.38Z" fill="#575757"/>
<path d="M173.013 77.232C172.245 76.48 171.645 75.524 171.213 74.364C170.789 73.204 170.577 71.952 170.577 70.608C170.577 69.232 170.801 67.948 171.249 66.756C171.705 65.556 172.353 64.568 173.193 63.792H174.333V63.9C173.437 64.74 172.761 65.752 172.305 66.936C171.857 68.112 171.633 69.336 171.633 70.608C171.633 71.848 171.845 73.032 172.269 74.16C172.701 75.288 173.329 76.276 174.153 77.124V77.232H173.013ZM175.186 67.32V66.324H177.442V75H176.338V67.32H175.186ZM179.846 75.072C179.638 75.072 179.462 75 179.318 74.856C179.174 74.712 179.102 74.536 179.102 74.328C179.102 74.12 179.174 73.944 179.318 73.8C179.462 73.656 179.638 73.584 179.846 73.584C180.046 73.584 180.214 73.656 180.35 73.8C180.494 73.944 180.566 74.12 180.566 74.328C180.566 74.536 180.494 74.712 180.35 74.856C180.214 75 180.046 75.072 179.846 75.072ZM183.242 72.672C183.322 73.128 183.506 73.48 183.794 73.728C184.09 73.976 184.486 74.1 184.982 74.1C185.646 74.1 186.134 73.84 186.446 73.32C186.766 72.8 186.918 71.924 186.902 70.692C186.734 71.052 186.454 71.336 186.062 71.544C185.67 71.744 185.234 71.844 184.754 71.844C184.218 71.844 183.738 71.736 183.314 71.52C182.898 71.296 182.57 70.972 182.33 70.548C182.09 70.124 181.97 69.612 181.97 69.012C181.97 68.156 182.218 67.468 182.714 66.948C183.21 66.42 183.914 66.156 184.826 66.156C185.946 66.156 186.73 66.52 187.178 67.248C187.634 67.976 187.862 69.06 187.862 70.5C187.862 71.508 187.77 72.34 187.586 72.996C187.41 73.652 187.106 74.152 186.674 74.496C186.25 74.84 185.666 75.012 184.922 75.012C184.106 75.012 183.47 74.792 183.014 74.352C182.558 73.912 182.298 73.352 182.234 72.672H183.242ZM184.934 70.92C185.47 70.92 185.91 70.756 186.254 70.428C186.598 70.092 186.77 69.64 186.77 69.072C186.77 68.472 186.602 67.988 186.266 67.62C185.93 67.252 185.458 67.068 184.85 67.068C184.29 67.068 183.842 67.244 183.506 67.596C183.178 67.948 183.014 68.412 183.014 68.988C183.014 69.572 183.178 70.04 183.506 70.392C183.834 70.744 184.31 70.92 184.934 70.92ZM190.98 70.488C190.532 70.312 190.188 70.056 189.948 69.72C189.708 69.384 189.588 68.976 189.588 68.496C189.588 68.064 189.696 67.676 189.912 67.332C190.128 66.98 190.448 66.704 190.872 66.504C191.304 66.296 191.824 66.192 192.432 66.192C193.04 66.192 193.556 66.296 193.98 66.504C194.412 66.704 194.736 66.98 194.952 67.332C195.176 67.676 195.288 68.064 195.288 68.496C195.288 68.96 195.164 69.368 194.916 69.72C194.668 70.064 194.328 70.32 193.896 70.488C194.392 70.64 194.784 70.908 195.072 71.292C195.368 71.668 195.516 72.124 195.516 72.66C195.516 73.18 195.388 73.636 195.132 74.028C194.876 74.412 194.512 74.712 194.04 74.928C193.576 75.136 193.04 75.24 192.432 75.24C191.824 75.24 191.288 75.136 190.824 74.928C190.368 74.712 190.012 74.412 189.756 74.028C189.5 73.636 189.372 73.18 189.372 72.66C189.372 72.124 189.516 71.664 189.804 71.28C190.092 70.896 190.484 70.632 190.98 70.488ZM194.232 68.628C194.232 68.14 194.072 67.764 193.752 67.5C193.432 67.236 192.992 67.104 192.432 67.104C191.88 67.104 191.444 67.236 191.124 67.5C190.804 67.764 190.644 68.144 190.644 68.64C190.644 69.088 190.808 69.448 191.136 69.72C191.472 69.992 191.904 70.128 192.432 70.128C192.968 70.128 193.4 69.992 193.728 69.72C194.064 69.44 194.232 69.076 194.232 68.628ZM192.432 70.968C191.84 70.968 191.356 71.108 190.98 71.388C190.604 71.66 190.416 72.072 190.416 72.624C190.416 73.136 190.596 73.548 190.956 73.86C191.324 74.172 191.816 74.328 192.432 74.328C193.048 74.328 193.536 74.172 193.896 73.86C194.256 73.548 194.436 73.136 194.436 72.624C194.436 72.088 194.252 71.68 193.884 71.4C193.516 71.112 193.032 70.968 192.432 70.968ZM198.371 72.672C198.451 73.128 198.635 73.48 198.923 73.728C199.219 73.976 199.615 74.1 200.111 74.1C200.775 74.1 201.263 73.84 201.575 73.32C201.895 72.8 202.047 71.924 202.031 70.692C201.863 71.052 201.583 71.336 201.191 71.544C200.799 71.744 200.363 71.844 199.883 71.844C199.347 71.844 198.867 71.736 198.443 71.52C198.027 71.296 197.699 70.972 197.459 70.548C197.219 70.124 197.099 69.612 197.099 69.012C197.099 68.156 197.347 67.468 197.843 66.948C198.339 66.42 199.043 66.156 199.955 66.156C201.075 66.156 201.859 66.52 202.307 67.248C202.763 67.976 202.991 69.06 202.991 70.5C202.991 71.508 202.899 72.34 202.715 72.996C202.539 73.652 202.235 74.152 201.803 74.496C201.379 74.84 200.795 75.012 200.051 75.012C199.235 75.012 198.599 74.792 198.143 74.352C197.687 73.912 197.427 73.352 197.363 72.672H198.371ZM200.063 70.92C200.599 70.92 201.039 70.756 201.383 70.428C201.727 70.092 201.899 69.64 201.899 69.072C201.899 68.472 201.731 67.988 201.395 67.62C201.059 67.252 200.587 67.068 199.979 67.068C199.419 67.068 198.971 67.244 198.635 67.596C198.307 67.948 198.143 68.412 198.143 68.988C198.143 69.572 198.307 70.04 198.635 70.392C198.963 70.744 199.439 70.92 200.063 70.92ZM212.308 75L210.316 71.58H208.996V75H207.904V66.636H210.604C211.236 66.636 211.768 66.744 212.2 66.96C212.64 67.176 212.968 67.468 213.184 67.836C213.4 68.204 213.508 68.624 213.508 69.096C213.508 69.672 213.34 70.18 213.004 70.62C212.676 71.06 212.18 71.352 211.516 71.496L213.616 75H212.308ZM208.996 70.704H210.604C211.196 70.704 211.64 70.56 211.936 70.272C212.232 69.976 212.38 69.584 212.38 69.096C212.38 68.6 212.232 68.216 211.936 67.944C211.648 67.672 211.204 67.536 210.604 67.536H208.996V70.704ZM221.205 71.46C221.205 71.668 221.193 71.888 221.169 72.12H215.913C215.953 72.768 216.173 73.276 216.573 73.644C216.981 74.004 217.473 74.184 218.049 74.184C218.521 74.184 218.913 74.076 219.225 73.86C219.545 73.636 219.769 73.34 219.897 72.972H221.073C220.897 73.604 220.545 74.12 220.017 74.52C219.489 74.912 218.833 75.108 218.049 75.108C217.425 75.108 216.865 74.968 216.369 74.688C215.881 74.408 215.497 74.012 215.217 73.5C214.937 72.98 214.797 72.38 214.797 71.7C214.797 71.02 214.933 70.424 215.205 69.912C215.477 69.4 215.857 69.008 216.345 68.736C216.841 68.456 217.409 68.316 218.049 68.316C218.673 68.316 219.225 68.452 219.705 68.724C220.185 68.996 220.553 69.372 220.809 69.852C221.073 70.324 221.205 70.86 221.205 71.46ZM220.077 71.232C220.077 70.816 219.985 70.46 219.801 70.164C219.617 69.86 219.365 69.632 219.045 69.48C218.733 69.32 218.385 69.24 218.001 69.24C217.449 69.24 216.977 69.416 216.585 69.768C216.201 70.12 215.981 70.608 215.925 71.232H220.077ZM225.095 73.992L227.135 68.424H228.299L225.719 75H224.447L221.867 68.424H223.043L225.095 73.992ZM229.937 67.356C229.729 67.356 229.553 67.284 229.409 67.14C229.265 66.996 229.193 66.82 229.193 66.612C229.193 66.404 229.265 66.228 229.409 66.084C229.553 65.94 229.729 65.868 229.937 65.868C230.137 65.868 230.305 65.94 230.441 66.084C230.585 66.228 230.657 66.404 230.657 66.612C230.657 66.82 230.585 66.996 230.441 67.14C230.305 67.284 230.137 67.356 229.937 67.356ZM230.465 68.424V75H229.373V68.424H230.465ZM238.326 71.46C238.326 71.668 238.314 71.888 238.29 72.12H233.034C233.074 72.768 233.294 73.276 233.694 73.644C234.102 74.004 234.594 74.184 235.17 74.184C235.642 74.184 236.034 74.076 236.346 73.86C236.666 73.636 236.89 73.34 237.018 72.972H238.194C238.018 73.604 237.666 74.12 237.138 74.52C236.61 74.912 235.954 75.108 235.17 75.108C234.546 75.108 233.986 74.968 233.49 74.688C233.002 74.408 232.618 74.012 232.338 73.5C232.058 72.98 231.918 72.38 231.918 71.7C231.918 71.02 232.054 70.424 232.326 69.912C232.598 69.4 232.978 69.008 233.466 68.736C233.962 68.456 234.53 68.316 235.17 68.316C235.794 68.316 236.346 68.452 236.826 68.724C237.306 68.996 237.674 69.372 237.93 69.852C238.194 70.324 238.326 70.86 238.326 71.46ZM237.198 71.232C237.198 70.816 237.106 70.46 236.922 70.164C236.738 69.86 236.486 69.632 236.166 69.48C235.854 69.32 235.506 69.24 235.122 69.24C234.57 69.24 234.098 69.416 233.706 69.768C233.322 70.12 233.102 70.608 233.046 71.232H237.198ZM248.528 68.424L246.476 75H245.348L243.764 69.78L242.18 75H241.052L238.988 68.424H240.104L241.616 73.944L243.248 68.424H244.364L245.96 73.956L247.448 68.424H248.528ZM251.94 75.108C251.436 75.108 250.984 75.024 250.584 74.856C250.184 74.68 249.868 74.44 249.636 74.136C249.404 73.824 249.276 73.468 249.252 73.068H250.38C250.412 73.396 250.564 73.664 250.836 73.872C251.116 74.08 251.48 74.184 251.928 74.184C252.344 74.184 252.672 74.092 252.912 73.908C253.152 73.724 253.272 73.492 253.272 73.212C253.272 72.924 253.144 72.712 252.888 72.576C252.632 72.432 252.236 72.292 251.7 72.156C251.212 72.028 250.812 71.9 250.5 71.772C250.196 71.636 249.932 71.44 249.708 71.184C249.492 70.92 249.384 70.576 249.384 70.152C249.384 69.816 249.484 69.508 249.684 69.228C249.884 68.948 250.168 68.728 250.536 68.568C250.904 68.4 251.324 68.316 251.796 68.316C252.524 68.316 253.112 68.5 253.56 68.868C254.008 69.236 254.248 69.74 254.28 70.38H253.188C253.164 70.036 253.024 69.76 252.768 69.552C252.52 69.344 252.184 69.24 251.76 69.24C251.368 69.24 251.056 69.324 250.824 69.492C250.592 69.66 250.476 69.88 250.476 70.152C250.476 70.368 250.544 70.548 250.68 70.692C250.824 70.828 251 70.94 251.208 71.028C251.424 71.108 251.72 71.2 252.096 71.304C252.568 71.432 252.952 71.56 253.248 71.688C253.544 71.808 253.796 71.992 254.004 72.24C254.22 72.488 254.332 72.812 254.34 73.212C254.34 73.572 254.24 73.896 254.04 74.184C253.84 74.472 253.556 74.7 253.188 74.868C252.828 75.028 252.412 75.108 251.94 75.108ZM255.533 77.232V77.124C256.357 76.276 256.981 75.288 257.405 74.16C257.837 73.032 258.053 71.848 258.053 70.608C258.053 69.336 257.825 68.112 257.369 66.936C256.921 65.752 256.249 64.74 255.353 63.9V63.792H256.493C257.333 64.568 257.977 65.556 258.425 66.756C258.881 67.948 259.109 69.232 259.109 70.608C259.109 71.952 258.893 73.204 258.461 74.364C258.037 75.524 257.441 76.48 256.673 77.232H255.533Z" fill="#575757" fill-opacity="0.5"/>
<path d="M133.452 71.3534C133.301 71.4998 133.232 71.7115 133.266 71.9192L133.785 74.7892C133.829 75.0325 133.726 75.2786 133.522 75.4192C133.323 75.565 133.057 75.5825 132.84 75.4659L130.256 74.1184C130.166 74.0705 130.067 74.0449 129.965 74.042H129.806C129.752 74.0501 129.698 74.0676 129.649 74.0945L127.065 75.4484C126.937 75.5125 126.792 75.5353 126.651 75.5125C126.305 75.4472 126.075 75.1182 126.131 74.7711L126.651 71.9011C126.685 71.6917 126.616 71.4788 126.465 71.33L124.358 69.2884C124.182 69.1175 124.121 68.8608 124.201 68.6292C124.279 68.3982 124.479 68.2296 124.72 68.1917L127.619 67.7711C127.839 67.7484 128.033 67.6142 128.132 67.4159L129.41 64.7967C129.44 64.7384 129.479 64.6847 129.526 64.6392L129.579 64.5984C129.606 64.568 129.638 64.543 129.673 64.5225L129.736 64.4992L129.836 64.4584H130.081C130.301 64.4811 130.494 64.6124 130.595 64.8084L131.889 67.4159C131.982 67.6066 132.164 67.739 132.373 67.7711L135.272 68.1917C135.517 68.2267 135.722 68.3959 135.803 68.6292C135.88 68.8631 135.814 69.1198 135.634 69.2884L133.452 71.3534Z" fill="#FFAC37"/>
<path d="M77 85C60.4315 85 47 71.5685 47 55C47 38.4315 60.4315 25 77 25C93.5685 25 107 38.4315 107 55C107 71.5685 93.5685 85 77 85Z" fill="#FFDA6A"/>
<g filter="url(#filter1_f)">
<path d="M94.3333 60.9999C91.3878 60.9999 89 58.6121 89 55.6666C89 52.7211 91.3878 50.3333 94.3333 50.3333C97.2788 50.3333 99.6666 52.7211 99.6666 55.6666C99.6666 58.6121 97.2788 60.9999 94.3333 60.9999Z" fill="#F55065"/>
</g>
<g filter="url(#filter2_f)">
<path d="M63.0006 52.3332C60.0551 52.3332 57.6673 49.9454 57.6673 46.9998C57.6673 44.0543 60.0551 41.6665 63.0006 41.6665C65.9461 41.6665 68.3339 44.0543 68.3339 46.9998C68.3339 49.9454 65.9461 52.3332 63.0006 52.3332Z" fill="#F55065"/>
</g>
<path fill-rule="evenodd" clip-rule="evenodd" d="M84.498 44.1281C85.8633 39.9261 90.3765 37.6264 94.5786 38.9918C98.7806 40.3571 101.08 44.8703 99.7149 49.0724C99.4873 49.7727 98.7351 50.156 98.0348 49.9284C97.3344 49.7009 96.9512 48.9487 97.1787 48.2483C98.0889 45.447 96.5559 42.4381 93.7545 41.5279C90.9532 40.6177 87.9443 42.1508 87.0341 44.9521C86.8066 45.6525 86.0544 46.0357 85.354 45.8082C84.6537 45.5806 84.2704 44.8284 84.498 44.1281ZM63.1646 37.4614C64.53 33.2594 69.0432 30.9598 73.2452 32.3251C77.4473 33.6904 79.7469 38.2037 78.3815 42.4057C78.154 43.106 77.4018 43.4893 76.7014 43.2617C76.0011 43.0342 75.6178 42.282 75.8454 41.5816C76.7556 38.7803 75.2225 35.7715 72.4212 34.8613C69.6198 33.951 66.611 35.4841 65.7008 38.2855C65.4732 38.9858 64.721 39.3691 64.0207 39.1415C63.3203 38.914 62.9371 38.1618 63.1646 37.4614ZM90.8596 56.9296C90.0838 58.4812 85.588 60.3437 81.5516 60.499C75.7643 60.7215 70.6502 57.9785 67.1654 51.6425C66.8105 50.9973 67.0459 50.1865 67.6911 49.8316C68.3363 49.4768 69.1471 49.7122 69.502 50.3574C72.4888 55.788 76.6482 58.0189 81.4491 57.8343C83.2423 57.7653 85.0272 57.3462 86.5733 56.7056C87.1935 56.4487 87.7367 56.17 88.14 55.9114C88.3057 55.8051 88.4362 55.7094 88.5211 55.6353C88.5375 55.621 88.5257 55.6344 88.4744 55.737C88.8037 55.0783 89.6046 54.8114 90.2633 55.1407C90.9219 55.47 91.1889 56.2709 90.8596 56.9296Z" fill="black"/>
<defs>
<filter id="filter0_d" x="0" y="0" width="368" height="150" filterUnits="userSpaceOnUse" color-interpolation-filters="sRGB">
<feFlood flood-opacity="0" result="BackgroundImageFix"/>
<feColorMatrix in="SourceAlpha" type="matrix" values="0 0 0 0 0 0 0 0 0 0 0 0 0 0 0 0 0 0 127 0"/>
<feOffset dy="20"/>
<feGaussianBlur stdDeviation="20"/>
<feColorMatrix type="matrix" values="0 0 0 0 1 0 0 0 0 0.827451 0 0 0 0 0.278431 0 0 0 0.14 0"/>
<feBlend mode="normal" in2="BackgroundImageFix" result="effect1_dropShadow"/>
<feBlend mode="normal" in="SourceGraphic" in2="effect1_dropShadow" result="shape"/>
</filter>
<filter id="filter1_f" x="77.2353" y="38.5685" width="34.1961" height="34.1961" filterUnits="userSpaceOnUse" color-interpolation-filters="sRGB">
<feFlood flood-opacity="0" result="BackgroundImageFix"/>
<feBlend mode="normal" in="SourceGraphic" in2="BackgroundImageFix" result="shape"/>
<feGaussianBlur stdDeviation="5.88235" result="effect1_foregroundBlur"/>
</filter>
<filter id="filter2_f" x="45.9025" y="29.9018" width="34.1961" height="34.1961" filterUnits="userSpaceOnUse" color-interpolation-filters="sRGB">
<feFlood flood-opacity="0" result="BackgroundImageFix"/>
<feBlend mode="normal" in="SourceGraphic" in2="BackgroundImageFix" result="shape"/>
<feGaussianBlur stdDeviation="5.88235" result="effect1_foregroundBlur"/>
</filter>
</defs>
</svg>
