<svg width="26" height="22" viewBox="0 0 26 22" fill="none" xmlns="http://www.w3.org/2000/svg">
<path d="M8.17677 21.9998C17.9887 21.9998 23.3542 13.5366 23.3542 6.19785C23.3542 5.95746 23.3495 5.71809 23.3391 5.47997C24.3806 4.69599 25.2859 3.71768 26 2.60409C25.0443 3.04647 24.0156 3.34407 22.9367 3.47852C24.038 2.79079 24.8836 1.70322 25.2823 0.40665C24.2516 1.04275 23.1102 1.50496 21.8951 1.75465C20.9217 0.675134 19.5357 0 18.0012 0C15.0555 0 12.6665 2.4872 12.6665 5.55308C12.6665 5.98905 12.7134 6.41285 12.8048 6.8195C8.37137 6.58715 4.43999 4.37732 1.80928 1.01673C1.35126 1.83746 1.08704 2.791 1.08704 3.80834C1.08704 5.73503 2.02887 7.43618 3.46086 8.43123C2.58568 8.40314 1.76366 8.15304 1.04498 7.73668C1.04419 7.76002 1.04419 7.78273 1.04419 7.80752C1.04419 10.4973 2.88283 12.7431 5.3239 13.252C4.8756 13.379 4.40388 13.4473 3.9173 13.4473C3.57413 13.4473 3.23969 13.4122 2.91457 13.3472C3.59377 15.5539 5.56313 17.1596 7.89787 17.2047C6.07213 18.6945 3.77209 19.582 1.27251 19.582C0.842453 19.582 0.417557 19.5564 0 19.5052C2.36073 21.0805 5.16422 22 8.17697 22" fill="#FB9333"/>
</svg>
