<svg width="58" height="58" viewBox="0 0 58 58" fill="none" xmlns="http://www.w3.org/2000/svg">
<path d="M20.5039 57.6998H1.8125C0.874078 57.6998 0.113281 56.939 0.113281 56.0005V35.6099C0.113281 34.6715 0.874078 33.9107 1.8125 33.9107H20.5039C21.4423 33.9107 22.2031 34.6715 22.2031 35.6099V56.0005C22.2031 56.939 21.4423 57.6998 20.5039 57.6998Z" fill="#FB9333"/>
<path d="M20.5039 33.9107H10.3086V57.6998H20.5039C21.4423 57.6998 22.2031 56.939 22.2031 56.0005V35.6099C22.2031 34.6715 21.4423 33.9107 20.5039 33.9107Z" fill="#FB9333"/>
<path d="M52.4675 13.3521L47.9179 11.5396L42.9152 13.3521L41.4726 25.6146C41.4159 26.0965 41.5679 26.5796 41.8903 26.9422C42.2127 27.3048 42.6749 27.5123 43.1601 27.5123H52.2226C52.7078 27.5123 53.1699 27.3048 53.4924 26.9422C53.8149 26.5796 53.9668 26.0965 53.9102 25.6146L52.4675 13.3521Z" fill="#FB9333"/>
<path d="M53.9099 25.6146L52.4672 13.3521L47.9176 11.5396L47.691 11.6217V27.5123H52.2223C52.7075 27.5123 53.1696 27.3048 53.4921 26.9422C53.8146 26.5796 53.9665 26.0964 53.9099 25.6146Z" fill="#FB9333"/>
<path d="M24.4804 25.6146C24.4237 26.0965 24.5758 26.5796 24.8982 26.9422C25.2206 27.3048 25.6827 27.5123 26.1679 27.5123H35.2304C35.7156 27.5123 36.1777 27.3048 36.5002 26.9422C36.8227 26.5796 36.9746 26.0965 36.918 25.6146L35.4753 13.3521L30.8125 10.6334L25.923 13.3521L24.4804 25.6146Z" fill="#FB9333"/>
<path d="M36.9177 25.6146L35.475 13.3521L30.8121 10.6334L30.6989 10.6963V27.5123H35.2301C35.7153 27.5123 36.1774 27.3048 36.4999 26.9422C36.8224 26.5796 36.9743 26.0964 36.9177 25.6146Z" fill="#FB9333"/>
<path d="M51.6447 6.35677C51.5441 5.50093 50.8187 4.85602 49.9571 4.85602H45.4259C44.5643 4.85602 43.8389 5.50093 43.7383 6.35677L42.9153 13.3521H52.4678L51.6447 6.35677Z" fill="#FFAC37"/>
<path d="M51.6442 6.35677C51.5436 5.50093 50.8183 4.85602 49.9567 4.85602H47.691V13.3521H52.4672L51.6442 6.35677Z" fill="#FFAC37"/>
<path d="M32.9649 4.85602H28.4337C27.5721 4.85602 26.8467 5.50093 26.7461 6.35677L25.9232 13.3521H35.4756L34.6526 6.35677C34.5519 5.50093 33.8266 4.85602 32.9649 4.85602Z" fill="#FFAC37"/>
<path d="M34.652 6.35677C34.5514 5.50093 33.8261 4.85602 32.9645 4.85602H30.6989V13.3521H35.475L34.652 6.35677Z" fill="#FFAC37"/>
<path d="M6.91016 47.5045C5.97173 47.5045 5.21094 46.7437 5.21094 45.8052V42.4068C5.21094 41.4684 5.97173 40.7076 6.91016 40.7076C7.84858 40.7076 8.60938 41.4684 8.60938 42.4068V45.8052C8.60938 46.7437 7.84858 47.5045 6.91016 47.5045Z" fill="#FFF8EE"/>
<path d="M13.707 47.5045C12.7686 47.5045 12.0078 46.7437 12.0078 45.8052V42.4068C12.0078 41.4684 12.7686 40.7076 13.707 40.7076C14.6455 40.7076 15.4062 41.4684 15.4062 42.4068V45.8052C15.4062 46.7437 14.6455 47.5045 13.707 47.5045Z" fill="white"/>
<path d="M44.293 57.6998H56.1875C57.1259 57.6998 57.8867 56.939 57.8867 56.0005V28.813C57.8867 27.8746 57.1259 27.1138 56.1875 27.1138H22.2031C21.2647 27.1138 20.5039 27.8746 20.5039 28.813V57.6998H34.0977L38.9688 56.7935L44.293 57.6998Z" fill="#FFAC37"/>
<path d="M56.1875 27.1138H39.1953V56.832L44.293 57.6998H56.1875C57.1259 57.6998 57.8867 56.939 57.8867 56.0005V28.813C57.8867 27.8746 57.1259 27.1138 56.1875 27.1138Z" fill="#FFAC37"/>
<path d="M29 50.9029C28.0616 50.9029 27.3008 50.1421 27.3008 49.2037V45.8052C27.3008 44.8668 28.0616 44.106 29 44.106C29.9384 44.106 30.6992 44.8668 30.6992 45.8052V49.2037C30.6992 50.1421 29.9384 50.9029 29 50.9029Z" fill="#FFF8EE"/>
<path d="M29 40.7076C28.0616 40.7076 27.3008 39.9468 27.3008 39.0084V35.6099C27.3008 34.6715 28.0616 33.9107 29 33.9107C29.9384 33.9107 30.6992 34.6715 30.6992 35.6099V39.0084C30.6992 39.9468 29.9384 40.7076 29 40.7076Z" fill="#FFF8EE"/>
<path d="M49.3906 50.9029C48.4522 50.9029 47.6914 50.1421 47.6914 49.2037V45.8052C47.6914 44.8668 48.4522 44.106 49.3906 44.106C50.329 44.106 51.0898 44.8668 51.0898 45.8052V49.2037C51.0898 50.1421 50.329 50.9029 49.3906 50.9029Z" fill="white"/>
<path d="M49.3906 40.7076C48.4522 40.7076 47.6914 39.9468 47.6914 39.0084V35.6099C47.6914 34.6715 48.4522 33.9107 49.3906 33.9107C50.329 33.9107 51.0898 34.6715 51.0898 35.6099V39.0084C51.0898 39.9468 50.329 40.7076 49.3906 40.7076Z" fill="white"/>
<path d="M35.7969 40.7076C34.8585 40.7076 34.0977 39.9468 34.0977 39.0084V35.6099C34.0977 34.6715 34.8585 33.9107 35.7969 33.9107C36.7353 33.9107 37.4961 34.6715 37.4961 35.6099V39.0084C37.4961 39.9468 36.7353 40.7076 35.7969 40.7076Z" fill="#FFF8EE"/>
<path d="M42.5938 40.7076C41.6553 40.7076 40.8945 39.9468 40.8945 39.0084V35.6099C40.8945 34.6715 41.6553 33.9107 42.5938 33.9107C43.5322 33.9107 44.293 34.6715 44.293 35.6099V39.0084C44.293 39.9468 43.5322 40.7076 42.5938 40.7076Z" fill="white"/>
<path d="M42.5938 44.106H35.7969C34.8585 44.106 34.0977 44.8668 34.0977 45.8052V57.6998H37.4961L39.082 56.567L40.8945 57.6998H44.293V45.8052C44.293 44.8668 43.5322 44.106 42.5938 44.106Z" fill="#FFF8EE"/>
<path d="M42.5938 44.106H39.1953V56.6378L40.8945 57.6998H44.293V45.8052C44.293 44.8668 43.5322 44.106 42.5938 44.106Z" fill="white"/>
<path d="M37.4961 47.5045H40.8945V57.6998H37.4961V47.5045Z" fill="#FFAC37"/>
<path d="M39.1953 47.5045H40.8945V57.6998H39.1953V47.5045Z" fill="#FFAC37"/>
</svg>
