<svg width="129" height="19" viewBox="0 0 129 19" fill="none" xmlns="http://www.w3.org/2000/svg">
<path d="M8.08594 0.9375H12.1875V12.6445C12.1875 13.7305 11.9336 14.6992 11.4258 15.5508C10.9258 16.4023 10.2227 17.0625 9.31641 17.5312C8.41797 18 7.41406 18.2344 6.30469 18.2344C4.44531 18.2344 3 17.7656 1.96875 16.8281C0.9375 15.8906 0.421875 14.5625 0.421875 12.8438H4.54688C4.54688 13.625 4.67969 14.1914 4.94531 14.543C5.21875 14.8945 5.67188 15.0703 6.30469 15.0703C6.875 15.0703 7.3125 14.8594 7.61719 14.4375C7.92969 14.0078 8.08594 13.4102 8.08594 12.6445V0.9375ZM25.3711 10.7695H18.9023V14.8359H26.543V18H14.7891V0.9375H26.5664V4.11328H18.9023V7.71094H25.3711V10.7695ZM32.8359 14.8359H40.9922V18H27.7031V15.832L35.8359 4.11328H27.6562V0.9375H40.9102V3.04688L32.8359 14.8359Z" fill="#FB9333"/>
<path d="M63.9023 13.5234C63.9023 12.8594 63.668 12.3516 63.1992 12C62.7305 11.6406 61.8867 11.2656 60.668 10.875C59.4492 10.4766 58.4844 10.0859 57.7734 9.70312C55.8359 8.65625 54.8672 7.24609 54.8672 5.47266C54.8672 4.55078 55.125 3.73047 55.6406 3.01172C56.1641 2.28516 56.9102 1.71875 57.8789 1.3125C58.8555 0.90625 59.9492 0.703125 61.1602 0.703125C62.3789 0.703125 63.4648 0.925781 64.418 1.37109C65.3711 1.80859 66.1094 2.42969 66.6328 3.23438C67.1641 4.03906 67.4297 4.95312 67.4297 5.97656H63.9141C63.9141 5.19531 63.668 4.58984 63.1758 4.16016C62.6836 3.72266 61.9922 3.50391 61.1016 3.50391C60.2422 3.50391 59.5742 3.6875 59.0977 4.05469C58.6211 4.41406 58.3828 4.89062 58.3828 5.48438C58.3828 6.03906 58.6602 6.50391 59.2148 6.87891C59.7773 7.25391 60.6016 7.60547 61.6875 7.93359C63.6875 8.53516 65.1445 9.28125 66.0586 10.1719C66.9727 11.0625 67.4297 12.1719 67.4297 13.5C67.4297 14.9766 66.8711 16.1367 65.7539 16.9805C64.6367 17.8164 63.1328 18.2344 61.2422 18.2344C59.9297 18.2344 58.7344 17.9961 57.6562 17.5195C56.5781 17.0352 55.7539 16.375 55.1836 15.5391C54.6211 14.7031 54.3398 13.7344 54.3398 12.6328H57.8672C57.8672 14.5156 58.9922 15.457 61.2422 15.457C62.0781 15.457 62.7305 15.2891 63.1992 14.9531C63.668 14.6094 63.9023 14.1328 63.9023 13.5234ZM79.4531 14.4844H73.2891L72.1172 18H68.3789L74.7305 0.9375H77.9883L84.375 18H80.6367L79.4531 14.4844ZM74.2383 11.6367H78.5039L76.3594 5.25L74.2383 11.6367ZM89.4844 15.1758H96.9492V18H85.9688V0.9375H89.4844V15.1758ZM108.844 14.4844H102.68L101.508 18H97.7695L104.121 0.9375H107.379L113.766 18H110.027L108.844 14.4844ZM103.629 11.6367H107.895L105.75 5.25L103.629 11.6367ZM115.359 18V0.9375H120.609C122.109 0.9375 123.449 1.27734 124.629 1.95703C125.816 2.62891 126.742 3.58984 127.406 4.83984C128.07 6.08203 128.402 7.49609 128.402 9.08203V9.86719C128.402 11.4531 128.074 12.8633 127.418 14.0977C126.77 15.332 125.852 16.2891 124.664 16.9688C123.477 17.6484 122.137 17.9922 120.645 18H115.359ZM118.875 3.78516V15.1758H120.574C121.949 15.1758 123 14.7266 123.727 13.8281C124.453 12.9297 124.824 11.6445 124.84 9.97266V9.07031C124.84 7.33594 124.48 6.02344 123.762 5.13281C123.043 4.23438 121.992 3.78516 120.609 3.78516H118.875Z" fill="#585858"/>
</svg>
