<svg width="46" height="46" viewBox="0 0 46 46" fill="none" xmlns="http://www.w3.org/2000/svg">
<path d="M21.0102 16.8914H18.2335V19.668H21.0102C21.7769 19.668 22.3985 19.0464 22.3985 18.2797C22.3985 17.513 21.7769 16.8914 21.0102 16.8914Z" fill="#FFB35C"/>
<path d="M21.0102 26.6097H18.2335V29.3863H21.0102C21.7769 29.3863 22.3985 28.7647 22.3985 27.998C22.3985 27.2313 21.7769 26.6097 21.0102 26.6097Z" fill="#FFB35C"/>
<path d="M19.6217 27.998C19.6217 27.2313 19.0001 26.6097 18.2334 26.6097H17.4467V19.668H18.2334C19.0001 19.668 19.6217 19.0464 19.6217 18.2797C19.6217 17.5129 19.0001 16.8913 18.2334 16.8913H17.4467V13.328C17.4467 12.5612 16.8251 11.9396 16.0583 11.9396C15.2916 11.9396 14.67 12.5612 14.67 13.328V16.8913H7.72837V13.328C7.72837 12.5612 7.10677 11.9396 6.34004 11.9396C5.57331 11.9396 4.95171 12.5612 4.95171 13.328V16.8913H1.38833C0.621601 16.8913 0 17.5129 0 18.2797C0 19.0464 0.621601 19.668 1.38833 19.668H4.95171V26.6097H1.38833C0.621601 26.6097 0 27.2313 0 27.998C0 28.7647 0.621601 29.3863 1.38833 29.3863H4.95171V32.9497C4.95171 33.7164 5.57331 34.338 6.34004 34.338C7.10677 34.338 7.72837 33.7164 7.72837 32.9497V29.3863H14.67V32.9497C14.67 33.7164 15.2916 34.338 16.0583 34.338C16.8251 34.338 17.4467 33.7164 17.4467 32.9497V29.3863H18.2334C19.0001 29.3863 19.6217 28.7647 19.6217 27.998ZM14.67 26.6097H7.72837V19.668H14.67V26.6097Z" fill="#FFAC37"/>
<path d="M41.835 37.67V4.16499C41.835 1.86471 39.9703 0 37.67 0H25.1751C22.8748 0 21.0101 1.86471 21.0101 4.16499C21.0101 6.46527 22.8748 8.32998 25.1751 8.32998V37.67C22.8748 37.67 21.0101 39.5347 21.0101 41.835C21.0101 44.1353 22.8748 46 25.1751 46H41.835C44.1353 46 46 44.1353 46 41.835C46 39.5347 44.1353 37.67 41.835 37.67Z" fill="#FFAC37"/>
<path d="M36.2815 40.5855V4.30383C36.2815 3.5371 35.6599 2.9155 34.8932 2.9155H25.1749C24.4082 2.9155 23.7866 3.5371 23.7866 4.30383C23.7866 5.07055 24.4082 5.69216 25.1749 5.69216H27.9516V40.5855H25.1749C24.4082 40.5855 23.7866 41.2071 23.7866 41.9738C23.7866 42.7406 24.4082 43.3622 25.1749 43.3622H39.0582C37.5247 43.3622 36.2815 42.1191 36.2815 40.5855Z" fill="#FFBE40"/>
</svg>
