<svg width="40" height="40" viewBox="0 0 40 40" fill="none" xmlns="http://www.w3.org/2000/svg">
<path fill-rule="evenodd" clip-rule="evenodd" d="M32.5 4.28571C31.1193 4.28571 30 5.24511 30 6.42857C30 7.61203 31.1193 8.57143 32.5 8.57143C33.8807 8.57143 35 7.61203 35 6.42857C35 5.24511 33.8807 4.28571 32.5 4.28571ZM25 6.42857C25 2.87817 28.358 0 32.5 0C36.642 0 40 2.87817 40 6.42857C40 9.2276 37.913 11.6088 35 12.4913V14.2857C35 18.2306 31.269 21.4286 26.6667 21.4286H13.3333C11.4924 21.4286 10 22.7078 10 24.2857V27.5086C12.913 28.3911 15 30.7723 15 33.5714C15 37.1217 11.6421 40 7.5 40C3.35787 40 0 37.1217 0 33.5714C0 30.7723 2.08703 28.3911 5 27.5086V24.2857V12.4913C2.08703 11.6088 0 9.2276 0 6.42857C0 2.87817 3.35787 0 7.5 0C11.6421 0 15 2.87817 15 6.42857C15 9.2276 12.913 11.6088 10 12.4913V17.7372C11.0208 17.3549 12.1482 17.1429 13.3333 17.1429H26.6667C28.5077 17.1429 30 15.8637 30 14.2857V12.4913C27.087 11.6088 25 9.2276 25 6.42857ZM7.5 31.4286C6.1193 31.4286 5 32.388 5 33.5714C5 34.7549 6.1193 35.7143 7.5 35.7143C8.8807 35.7143 10 34.7549 10 33.5714C10 32.388 8.8807 31.4286 7.5 31.4286ZM5 6.42857C5 5.24511 6.1193 4.28571 7.5 4.28571C8.8807 4.28571 10 5.24511 10 6.42857C10 7.61203 8.8807 8.57143 7.5 8.57143C6.1193 8.57143 5 7.61203 5 6.42857Z" fill="white"/>
</svg>
