<svg width="36" height="36" viewBox="0 0 36 36" fill="none" xmlns="http://www.w3.org/2000/svg">
<path d="M17.9999 5.7H13.3499C11.6999 5.7 10.3499 7.04999 10.3499 8.69999V13.95V27.45C10.3499 29.1 11.6999 30.45 13.3499 30.45H22.6498C24.2998 30.45 25.6498 29.1 25.6498 27.45V13.95V8.69999C25.6498 7.04999 24.2998 5.7 22.6498 5.7H17.9999Z" stroke="white" stroke-width="1.5" stroke-miterlimit="10" stroke-linecap="round" stroke-linejoin="round"/>
<path d="M16.0498 10.2H19.9498" stroke="white" stroke-width="1.5" stroke-miterlimit="10" stroke-linecap="round" stroke-linejoin="round"/>
<path d="M17.9998 27.15C18.6626 27.15 19.1998 26.6127 19.1998 25.95C19.1998 25.2873 18.6626 24.75 17.9998 24.75C17.3371 24.75 16.7998 25.2873 16.7998 25.95C16.7998 26.6127 17.3371 27.15 17.9998 27.15Z" fill="white"/>
</svg>
