<svg width="8" height="8" viewBox="0 0 8 8" fill="none" xmlns="http://www.w3.org/2000/svg">
<path fill-rule="evenodd" clip-rule="evenodd" d="M4.42426 0.130175C4.18995 -0.0433916 3.81005 -0.0433916 3.57574 0.130175L0.575736 2.3524C0.341424 2.52596 0.341424 2.80737 0.575736 2.98094C0.810048 3.1545 1.18995 3.1545 1.42426 2.98094L3.4 1.51743V5.48148C3.4 5.72693 3.66863 5.92593 4 5.92593C4.33137 5.92593 4.6 5.72693 4.6 5.48148V1.51743L6.57576 2.98094C6.81008 3.1545 7.18992 3.1545 7.42424 2.98094C7.65856 2.80737 7.65856 2.52596 7.42424 2.3524L4.42426 0.130175ZM0.6 7.11111C0.268632 7.11111 0 7.3101 0 7.55556C0 7.80101 0.268632 8 0.6 8H7.4C7.73136 8 8 7.80101 8 7.55556C8 7.3101 7.73136 7.11111 7.4 7.11111H0.6Z" fill="#24292E"/>
</svg>
