<svg width="40" height="40" viewBox="0 0 40 40" fill="none" xmlns="http://www.w3.org/2000/svg">
<path fill-rule="evenodd" clip-rule="evenodd" d="M40 24.6667V4.66667C40 2.08934 38.0412 0 35.625 0H4.375C1.95875 0 0 2.08934 0 4.66667V24.6667C0 27.244 1.95875 29.3333 4.375 29.3333H13.6925C13.4448 32.1094 12.3921 34.3264 10.4623 36.6849C9.97886 37.2758 9.8638 38.1136 10.1681 38.8276C10.4723 39.5416 11.1397 40 11.875 40H28.125C28.8603 40 29.5277 39.5416 29.8319 38.8276C30.1362 38.1136 30.0211 37.2758 29.5377 36.6849C27.6079 34.3264 26.5552 32.1094 26.3074 29.3333H35.625C38.0412 29.3333 40 27.244 40 24.6667ZM36.25 4.66667V24.6667C36.25 25.0349 35.9702 25.3333 35.625 25.3333H4.375C4.02982 25.3333 3.75 25.0349 3.75 24.6667V4.66667C3.75 4.29848 4.02982 4 4.375 4H35.625C35.9702 4 36.25 4.29848 36.25 4.66667ZM22.5446 29.3333H17.4554C17.2848 31.8338 16.6275 33.9929 15.5433 36H24.4567C23.3725 33.9929 22.7152 31.8338 22.5446 29.3333Z" fill="white"/>
</svg>
