<svg width="40" height="40" viewBox="0 0 40 40" fill="none" xmlns="http://www.w3.org/2000/svg">
<path fill-rule="evenodd" clip-rule="evenodd" d="M4.375 3.75C4.02983 3.75 3.75 4.02983 3.75 4.375V35.625C3.75 35.9702 4.02983 36.25 4.375 36.25H35.625C35.9702 36.25 36.25 35.9702 36.25 35.625V4.375C36.25 4.02983 35.9702 3.75 35.625 3.75H4.375ZM0 4.375C0 1.95876 1.95875 0 4.375 0H35.625C38.0412 0 40 1.95876 40 4.375V35.625C40 38.0412 38.0412 40 35.625 40H4.375C1.95876 40 0 38.0412 0 35.625V4.375ZM23.0492 13.6742C22.3169 14.4064 22.3169 15.5936 23.0492 16.3258L26.7232 20L23.0492 23.6742C22.3169 24.4064 22.3169 25.5935 23.0492 26.3258C23.7814 27.058 24.9686 27.058 25.7008 26.3258L30.7008 21.3258C31.433 20.5936 31.433 19.4064 30.7008 18.6742L25.7008 13.6742C24.9686 12.9419 23.7814 12.9419 23.0492 13.6742ZM16.9508 16.3258C17.6831 15.5936 17.6831 14.4064 16.9508 13.6742C16.2186 12.9419 15.0314 12.9419 14.2992 13.6742L9.29918 18.6742C8.56695 19.4064 8.56695 20.5936 9.29918 21.3258L14.2992 26.3258C15.0314 27.058 16.2186 27.058 16.9508 26.3258C17.6831 25.5935 17.6831 24.4064 16.9508 23.6742L13.2766 20L16.9508 16.3258Z" fill="white"/>
</svg>
