<svg width="160" height="99" viewBox="0 0 160 99" fill="none" xmlns="http://www.w3.org/2000/svg">
<path d="M158.301 92.9796L155.468 96.0374C153.64 97.8419 151.642 98.7371 149.474 98.723C147.482 98.71 144.356 97.3127 140.097 94.5309C135.897 91.691 131.032 87.4112 125.503 81.6915C120.032 75.9721 114.249 68.7565 108.153 60.0448C102.116 51.2748 96.3508 41.364 90.8562 30.3123C86.5748 30.929 83.6961 32.0821 82.2202 33.7717C80.7447 35.4028 79.9938 38.2398 79.9675 42.2826C79.9453 45.681 81.694 51.5812 85.2136 59.9832C88.6746 68.3848 93.0205 75.8547 98.2515 82.3928C100.286 84.8671 101.3 86.6022 101.294 87.5983C101.286 88.7702 100.316 89.3498 98.382 89.3372C95.1008 89.3158 91.357 88.3539 87.1506 86.4515C82.8859 84.49 79.5907 82.1248 77.265 79.3557C73.95 75.5254 70.5021 69.6141 66.9213 61.6219C62.9345 52.9824 58.5619 45.1022 53.8035 37.9812C48.9865 30.8599 44.5106 25.3521 40.3757 21.4579C36.2412 17.5051 33.1193 15.5218 31.01 15.508C28.7249 15.4932 27.5678 17.7122 27.5388 22.1653C27.5014 27.9073 28.7174 34.6244 31.1869 42.3164C33.6564 50.0084 37.5849 58.5889 42.9726 68.0578C48.3016 77.5263 54.8876 87.4425 62.7304 97.8063C54.5891 97.2845 48.1485 96.5394 43.4086 95.571C38.6101 94.6022 34.7233 93.112 31.748 91.1004C28.7728 89.0888 26.1531 86.4642 23.889 83.2268C21.6249 79.9893 18.7267 75.1363 15.1946 68.6679C5.34914 50.908 0.465353 36.0517 0.543224 24.0988C0.590558 16.8333 2.41504 11.1029 6.01667 6.90754C9.61829 2.71216 14.7003 0.635849 21.2626 0.678602C25.8329 0.708376 30.0452 1.70264 33.8997 3.66138C37.7546 5.56154 41.3692 8.36835 44.7435 12.0818C48.1182 15.7367 51.2837 20.0347 54.2398 24.976C57.1964 29.8586 60.3802 35.8268 63.7914 42.8804C64.1351 35.0895 65.9002 29.4759 69.0867 26.0395C72.215 22.5442 77.7669 20.2952 85.7424 19.2924L80.9835 7.7475L87.5751 7.79045L93.1216 19.8679C103.009 22.2175 112.122 26.4078 120.462 32.4388C128.802 38.4112 135.878 45.1079 141.689 52.5287C147.559 59.8913 152.083 66.9815 155.262 73.7992C158.44 80.6169 160.018 85.6957 159.997 89.0355C159.987 90.4417 159.422 91.7564 158.301 92.9796ZM99.8939 32.6564C102.837 39.5312 106.661 46.2066 111.365 52.6827C116.128 59.1592 120.838 64.7564 125.494 69.4743C130.151 74.1923 134.462 78.0876 138.426 81.1604C142.45 84.175 145.077 85.6862 146.307 85.6943C147.42 85.7015 147.982 84.8848 147.993 83.2443C148.01 80.6076 145.961 75.8773 141.845 69.0535C137.729 62.2297 131.624 55.012 123.529 47.4005C118.113 42.3261 113.769 38.9286 110.499 37.208C107.288 35.4292 103.753 33.912 99.8939 32.6564Z" fill="white"/>
</svg>
