<svg width="721" height="679" viewBox="0 0 721 679" fill="none" xmlns="http://www.w3.org/2000/svg">
<path d="M334 141.051C250.128 83.781 116.674 148.687 126 285.234C141.902 518.052 304.136 545.096 445.999 518.052C631.635 482.664 674.464 270.297 503.054 285.234C365.493 297.221 438.84 212.639 334 141.051Z" fill="#FCDDD4"/>
<mask id="mask0" mask-type="alpha" maskUnits="userSpaceOnUse" x="69" y="89" width="584" height="501">
<path d="M333.999 141.052C250.127 83.7812 116.673 148.687 125.999 285.234C141.901 518.052 304.135 545.096 445.998 518.052C631.634 482.664 674.463 270.298 503.053 285.234C365.492 297.221 438.839 212.64 333.999 141.052Z" fill="#FCDDD4"/>
</mask>
<g mask="url(#mask0)">
<path opacity="0.7" d="M101.071 156.138C128.702 144.006 193.879 126.525 233.539 153.649C283.115 187.555 129.75 231.389 176.947 257.186C224.144 282.983 312.336 174.591 346.422 193.222C380.509 211.854 259.69 261.561 294.844 287.585C329.998 313.608 433.099 199.748 475.768 221.368C518.436 242.988 373.763 305.189 441.935 342.452" stroke="url(#paint0_linear)" stroke-width="2"/>
<path d="M271 545.051C271 517.437 293.386 495.051 321 495.051L588 495.051L588 605.051L271 605.051L271 545.051Z" fill="#F58A6B"/>
</g>
<path fill-rule="evenodd" clip-rule="evenodd" d="M158.367 299.676C160.004 301.023 161.284 302.466 162.293 303.854L164.925 300.343C163.677 299.019 162.461 297.814 161.007 296.673L158.367 299.676Z" fill="#3E1A0B"/>
<path fill-rule="evenodd" clip-rule="evenodd" d="M166.9 305.808C165.42 303.143 162.117 302.243 159.483 303.841L155.993 306.052C153.359 307.651 152.522 311.192 153.883 313.889C155.362 316.554 158.666 317.454 161.299 315.856L164.79 313.645C167.423 312.046 168.412 308.592 166.9 305.808Z" fill="#F69E9F"/>
<path fill-rule="evenodd" clip-rule="evenodd" d="M308.099 194.245L246.271 204.434L242.978 184.524C242.65 182.826 241.045 181.598 239.196 181.838L190.186 189.868C188.488 190.196 187.259 191.8 187.499 193.649L190.793 213.559L132.513 223.18C131.052 223.444 129.911 224.897 130.174 226.358L170.066 469.512C170.329 470.972 171.783 472.113 173.244 471.849L348.862 443.033C350.322 442.77 351.464 441.316 351.2 439.856L311.19 196.733C311.132 195.091 309.591 194.1 308.099 194.245Z" fill="url(#paint1_linear)"/>
<path fill-rule="evenodd" clip-rule="evenodd" d="M299.519 225.048L145.187 250.456C143.846 250.688 142.911 251.959 143.142 253.3L177.701 463.697C177.933 465.038 179.204 465.973 180.546 465.741L334.877 440.333C336.218 440.101 337.154 438.83 336.922 437.489L302.363 227.092C302.131 225.751 300.86 224.816 299.519 225.048Z" fill="#F36F49"/>
<path fill-rule="evenodd" clip-rule="evenodd" d="M299.044 217.591L148.466 242.248C147.125 242.48 146.309 243.719 146.54 245.06L180.268 450.45C180.5 451.791 181.739 452.607 183.08 452.376L333.745 427.567C335.086 427.335 335.902 426.096 335.671 424.755L301.943 219.365C301.624 218.175 300.385 217.359 299.044 217.591Z" fill="#FAFBFC"/>
<path opacity="0.8" d="M293.514 226.472L156.532 249.017C155.786 249.089 155.135 249.518 154.787 250.122C154.438 250.726 154.241 251.416 154.313 252.162L185.442 441.666C185.514 442.412 185.944 443.062 186.548 443.411C187.151 443.759 187.842 443.957 188.588 443.884L325.602 421.458C326.348 421.386 326.998 420.956 327.347 420.353C327.695 419.749 327.893 419.058 327.821 418.312L296.66 228.69C296.587 227.944 296.158 227.294 295.554 226.945C294.951 226.597 294.26 226.399 293.514 226.472ZM326.718 418.48C326.845 418.957 326.703 419.377 326.409 419.711C326.116 420.045 325.791 420.26 325.315 420.387L188.452 442.9C187.976 443.028 187.555 442.885 187.221 442.592C186.888 442.299 186.673 441.974 186.545 441.498L155.384 251.875C155.257 251.399 155.399 250.978 155.692 250.645C155.986 250.311 156.311 250.096 156.787 249.969L293.769 227.424C294.245 227.296 294.666 227.438 295 227.732C295.333 228.025 295.548 228.35 295.676 228.826L326.718 418.48Z" fill="#F58A6B"/>
<path fill-rule="evenodd" clip-rule="evenodd" d="M215.471 191.384C212.551 191.912 210.593 194.605 211.12 197.525C211.648 200.445 214.341 202.402 217.262 201.875C220.182 201.347 222.14 198.654 221.613 195.734C221.117 192.933 218.392 190.857 215.471 191.384Z" fill="#FAFBFC"/>
<path fill-rule="evenodd" clip-rule="evenodd" d="M256.594 199.627L179.591 212.224C177.892 212.551 176.664 214.156 176.904 216.005L180.493 237.494C180.82 239.192 182.425 240.42 184.275 240.18L261.278 227.583C262.976 227.256 264.205 225.651 263.964 223.802L260.463 202.162C260.016 200.496 258.292 199.299 256.594 199.627Z" fill="#F58A6B"/>
<path opacity="0.8" fill-rule="evenodd" clip-rule="evenodd" d="M215.151 209.711L185.817 214.51C184.475 214.742 183.54 216.013 183.772 217.354L186.561 233.955C186.793 235.296 188.064 236.231 189.406 235.999L218.74 231.2C220.082 230.968 221.017 229.697 220.785 228.356L217.996 211.755C217.764 210.414 216.493 209.479 215.151 209.711Z" fill="#F36F49"/>
<path opacity="0.2" d="M211.061 264.02L211.4 266.086L292.024 252.833L291.684 250.767L211.061 264.02Z" fill="#EE4D47"/>
<path opacity="0.2" d="M211.91 269.251L212.25 271.318L292.873 258.064L292.533 255.998L211.91 269.251Z" fill="#EE4D47"/>
<path opacity="0.2" d="M252.971 267.704L253.311 269.771L293.683 263.134L293.343 261.067L252.971 267.704Z" fill="#EE4D47"/>
<path opacity="0.2" d="M212.757 274.342L213.097 276.409L250.915 270.192L250.576 268.125L212.757 274.342Z" fill="#EE4D47"/>
<path opacity="0.2" d="M216.621 298.205L216.961 300.272L297.584 287.019L297.244 284.952L216.621 298.205Z" fill="#EE4D47"/>
<path opacity="0.2" d="M217.471 303.437L217.811 305.504L298.434 292.25L298.094 290.183L217.471 303.437Z" fill="#EE4D47"/>
<path opacity="0.2" d="M258.655 301.87L258.995 303.937L299.367 297.3L299.028 295.233L258.655 301.87Z" fill="#EE4D47"/>
<path opacity="0.2" d="M218.32 308.528L218.659 310.594L256.478 304.378L256.138 302.311L218.32 308.528Z" fill="#EE4D47"/>
<path opacity="0.2" d="M221.678 328.865L222.018 330.932L302.641 317.678L302.301 315.612L221.678 328.865Z" fill="#EE4D47"/>
<path opacity="0.2" d="M222.528 334.096L222.867 336.163L303.49 322.91L303.151 320.843L222.528 334.096Z" fill="#EE4D47"/>
<path opacity="0.2" d="M263.711 332.529L264.051 334.596L304.423 327.959L304.083 325.893L263.711 332.529Z" fill="#EE4D47"/>
<path opacity="0.2" d="M223.374 339.188L223.714 341.255L261.533 335.038L261.193 332.971L223.374 339.188Z" fill="#EE4D47"/>
<path opacity="0.2" d="M226.848 360.445L227.188 362.512L307.811 349.259L307.471 347.192L226.848 360.445Z" fill="#EE4D47"/>
<path opacity="0.2" d="M227.719 365.798L228.059 367.865L308.682 354.612L308.342 352.545L227.719 365.798Z" fill="#EE4D47"/>
<path opacity="0.2" d="M268.901 364.231L269.24 366.298L309.613 359.662L309.273 357.595L268.901 364.231Z" fill="#EE4D47"/>
<path opacity="0.2" d="M228.565 370.89L228.904 372.957L266.723 366.74L266.383 364.673L228.565 370.89Z" fill="#EE4D47"/>
<path opacity="0.2" d="M231.939 391.822L232.278 393.889L312.901 380.636L312.562 378.569L231.939 391.822Z" fill="#EE4D47"/>
<path opacity="0.2" d="M232.788 397.054L233.128 399.121L313.751 385.867L313.411 383.8L232.788 397.054Z" fill="#EE4D47"/>
<path opacity="0.2" d="M273.972 395.486L274.312 397.553L314.684 390.917L314.344 388.85L273.972 395.486Z" fill="#EE4D47"/>
<path opacity="0.2" d="M233.758 402.126L234.098 404.192L271.916 397.976L271.577 395.909L233.758 402.126Z" fill="#EE4D47"/>
<path opacity="0.2" d="M173.021 264.37L172.036 264.506L172.172 265.49L175.202 283.94L175.338 284.924L176.322 284.788L196.117 281.525L197.101 281.388L196.965 280.404L193.935 261.955L193.799 260.971L192.815 261.107L173.021 264.37ZM194.892 279.812L176.915 282.715L174.126 266.115L191.984 263.243L194.892 279.812Z" fill="#EE4D47"/>
<path opacity="0.2" d="M178.657 299.214L177.673 299.35L177.928 300.302L180.958 318.752L181.094 319.736L182.078 319.6L201.873 316.337L202.857 316.201L202.721 315.217L199.691 296.767L199.555 295.783L198.571 295.919L178.657 299.214ZM200.529 314.656L182.671 317.527L179.882 300.927L197.74 298.055L200.529 314.656Z" fill="#EE4D47"/>
<path opacity="0.2" d="M184.149 332.566L183.165 332.702L183.301 333.686L186.331 352.136L186.467 353.12L187.451 352.984L207.246 349.721L208.23 349.584L208.094 348.6L205.064 330.151L204.928 329.167L203.944 329.303L184.149 332.566ZM206.021 348.008L188.163 350.879L185.374 334.279L203.232 331.407L206.021 348.008Z" fill="#EE4D47"/>
<path opacity="0.2" d="M189.705 366.156L188.721 366.292L188.857 367.276L191.919 385.845L192.055 386.829L193.039 386.693L212.833 383.43L213.818 383.294L213.681 382.31L210.652 363.86L210.516 362.876L209.531 363.012L189.705 366.156ZM211.577 381.598L193.719 384.47L190.93 367.869L208.788 364.998L211.577 381.598Z" fill="#EE4D47"/>
<path opacity="0.2" d="M195.062 398.524L194.077 398.661L194.213 399.645L197.243 418.094L197.379 419.078L198.364 418.942L218.158 415.679L219.142 415.543L219.006 414.559L215.976 396.109L215.84 395.125L214.856 395.261L195.062 398.524ZM216.902 413.847L199.044 416.719L196.254 400.118L214.112 397.247L216.902 413.847Z" fill="#EE4D47"/>
<path d="M185.335 273.188L175.009 267.026L173.844 268.869L185.195 275.522L186.101 276.045L186.624 275.139L200.593 252.517L198.782 251.472L185.335 273.188Z" fill="#EE4D47"/>
<path d="M191.228 308.984L180.901 302.822L179.736 304.665L191.088 311.318L191.961 311.722L192.516 310.935L206.453 288.194L204.642 287.149L191.228 308.984Z" fill="#F58A6B"/>
<path d="M202.507 377.268L192.061 371.138L191.015 372.949L202.248 379.634L203.153 380.156L203.676 379.251L217.765 356.597L215.922 355.433L202.507 377.268Z" fill="#F58A6B"/>
<path fill-rule="evenodd" clip-rule="evenodd" d="M173.106 483.239C172.034 483.526 171.424 484.582 171.711 485.653C171.998 486.725 173.055 487.334 174.126 487.047C175.198 486.76 175.808 485.704 175.521 484.633C175.234 483.562 174.177 482.952 173.106 483.239Z" fill="#FAFBFC"/>
<path d="M202.496 474.838C203.241 474.504 203.573 473.629 203.239 472.884C202.904 472.139 202.029 471.806 201.284 472.141C200.539 472.476 200.206 473.351 200.541 474.096C200.875 474.841 201.751 475.173 202.496 474.838Z" fill="#FAFBFC"/>
<path d="M243.28 462.777C243.872 462.618 244.223 462.01 244.064 461.419C243.906 460.827 243.298 460.476 242.706 460.635C242.114 460.793 241.763 461.401 241.922 461.993C242.08 462.585 242.688 462.936 243.28 462.777Z" fill="#FAFBFC"/>
<path fill-rule="evenodd" clip-rule="evenodd" d="M264.495 458.623C263.542 458.879 263.019 459.784 263.275 460.736C263.53 461.688 264.435 462.211 265.388 461.956C266.34 461.701 266.863 460.795 266.608 459.843C266.384 459.01 265.447 458.368 264.495 458.623Z" fill="#FAFBFC"/>
<path fill-rule="evenodd" clip-rule="evenodd" d="M296.748 451.384C296.39 451.48 296.216 451.782 296.312 452.139C296.407 452.496 296.709 452.67 297.066 452.575C297.424 452.479 297.598 452.177 297.502 451.82C297.526 451.431 297.105 451.289 296.748 451.384Z" fill="#FAFBFC"/>
<path fill-rule="evenodd" clip-rule="evenodd" d="M363.373 429.578C362.778 429.737 362.548 430.309 362.676 430.785C362.835 431.38 363.407 431.61 363.883 431.482C364.479 431.323 364.708 430.751 364.581 430.275C364.572 429.767 363.968 429.418 363.373 429.578Z" fill="#FAFBFC"/>
<path d="M474.479 238.052C474.479 227.006 465.524 218.052 454.479 218.052H378.999C367.954 218.052 358.999 227.006 358.999 238.052V248.454C358.999 259.5 367.954 268.454 378.999 268.454H474.479V238.052Z" fill="white"/>
<circle r="3.82804" transform="matrix(-1 0 0 1 448.32 243.572)" fill="#F4A984"/>
<circle r="3.82804" transform="matrix(-1 0 0 1 432.369 243.572)" fill="#F4A984"/>
<circle r="3.82804" transform="matrix(-1 0 0 1 416.419 243.572)" fill="#F4A984"/>
<circle r="3.82804" transform="matrix(-1 0 0 1 400.469 243.572)" fill="#F4A984"/>
<circle r="3.82804" transform="matrix(-1 0 0 1 384.519 243.572)" fill="#F4A984"/>
<path d="M325 405.552C281.4 405.552 303.5 342.552 320 311.051C328.833 304.385 350.5 290.952 366.5 290.552C382.5 290.152 392.5 310.052 395.5 320.052C393.667 320.218 391.8 327.852 399 357.052C406.2 386.252 402.667 401.552 400 405.552H325Z" fill="#402B2B"/>
<path d="M370.599 390.592C366.487 383.403 369.571 372.277 369.571 372.277L356.891 374.845L344.211 372.277C344.211 372.277 345.753 377.583 345.239 383.403C349.694 388.538 359.976 398.124 370.599 390.592Z" fill="url(#paint2_linear)"/>
<path d="M368.797 376.285C366.022 377.957 362.515 379.504 358.59 380.691C353.666 382.18 348.975 382.831 345.292 382.691C345.629 377.158 344.211 372.277 344.211 372.277L356.891 374.845L369.571 372.277C369.571 372.277 369.124 373.89 368.797 376.285Z" fill="url(#paint3_linear)" style="mix-blend-mode:multiply"/>
<path d="M325.876 400.691C333.244 407.196 347.809 421.403 357.062 421.403C366.316 421.403 382.766 407.88 390.134 401.376C386.535 400.007 375.569 395.727 372.998 393.502C372.142 392.646 371.285 391.619 370.771 390.592C360.147 398.124 349.866 388.538 345.41 383.232C345.068 386.998 344.04 390.763 341.127 393.331C338.213 395.727 329.303 399.322 325.876 400.691Z" fill="url(#paint4_linear)"/>
<path d="M391.776 333.422C390.576 331.197 388.692 330.854 387.492 331.197C387.492 331.197 384.065 320.242 381.666 312.197C373.612 308.431 366.073 305.179 356.991 304.494V304.323C355.62 304.323 353.221 304.323 351.85 304.323C346.196 304.494 340.541 304.665 335.058 305.692C333.687 306.035 332.316 306.377 330.945 306.377C329.232 315.449 326.319 331.368 325.119 331.197H324.948C324.776 331.197 324.776 331.197 324.605 331.025C323.406 330.683 322.035 331.025 320.835 333.079C318.779 336.845 320.835 344.377 323.577 346.602C324.948 347.629 326.147 348.485 327.004 348.998C328.375 355.845 330.774 362.349 334.372 366.286C343.797 376.385 352.536 378.611 354.935 378.953C355.106 378.953 355.449 378.953 355.62 378.953C355.62 378.953 355.792 378.953 355.963 378.953C357.676 378.782 367.101 377.07 377.211 366.115C380.809 362.349 383.38 359.611 384.922 349.512C385.95 348.998 386.978 348.142 388.692 346.773C391.776 344.719 393.832 337.188 391.776 333.422Z" fill="url(#paint5_linear)"/>
<path d="M356.736 343.052C356.736 343.052 356.868 346.908 355.825 348.177C354.782 349.446 352.803 350.674 352.64 351.623C352.449 352.391 353.277 353.739 354.722 354.07C356.167 354.4 356.402 354.918 356.402 354.918C356.402 354.918 353.735 355.699 352.067 353.926C350.399 352.154 351.661 350.297 352.883 349.185C354.105 348.073 354.654 347.619 355.176 346.985C355.849 346.327 356.736 343.052 356.736 343.052Z" fill="#D87C60"/>
<path d="M367.066 360.052H346.364C345.689 360.052 345.212 360.707 345.483 361.326C346.943 364.661 350.524 369.552 356.5 369.552C362.451 369.552 366.284 364.7 367.929 361.367C368.237 360.743 367.762 360.052 367.066 360.052Z" fill="#D87C60"/>
<path fill-rule="evenodd" clip-rule="evenodd" d="M366.976 363.052H346.367C346.015 362.454 345.721 361.869 345.484 361.326C345.213 360.707 345.689 360.052 346.365 360.052H367.066C367.762 360.052 368.238 360.743 367.93 361.367C367.667 361.898 367.349 362.469 366.976 363.052Z" fill="white"/>
<path d="M376.598 291.999C402.129 295.251 396.132 326.404 391.163 331.881L387.5 338.052C385.667 334.885 381.9 326.152 381.5 316.552C377.667 319.052 366.2 324.052 351 324.052C332 324.052 326.792 327.197 325 336.052C320.545 326.124 317.481 306.035 328.447 294.738C343.526 278.99 366.316 275.224 376.598 291.999Z" fill="#402B2B"/>
<path d="M325.019 335.989L325.876 343.35C325.876 343.35 323.305 341.98 322.791 338.557C322.62 336.503 323.477 335.134 325.019 335.989Z" fill="#ED8A40"/>
<path d="M387.219 335.989L386.362 343.35C386.362 343.35 388.933 341.98 389.447 338.557C389.618 336.503 388.933 335.134 387.219 335.989Z" fill="#ED8A40"/>
<path d="M373.685 344.312C373.685 345.853 372.486 347.222 370.772 347.222C369.23 347.222 367.859 346.024 367.859 344.312C367.859 342.772 369.059 341.402 370.772 341.402C372.486 341.402 373.685 342.772 373.685 344.312Z" fill="#402B2B"/>
<path d="M343.184 347.222C344.792 347.222 346.097 345.919 346.097 344.312C346.097 342.705 344.792 341.402 343.184 341.402C341.575 341.402 340.271 342.705 340.271 344.312C340.271 345.919 341.575 347.222 343.184 347.222Z" fill="#402B2B"/>
<path d="M335.541 338.912C336.79 337.55 340.446 334.825 345.078 334.825" stroke="#402B2B" stroke-width="2"/>
<path d="M368.58 334.942C370.427 334.862 374.939 335.52 378.215 338.796" stroke="#402B2B" stroke-width="2"/>
<path d="M418.065 439.547C418.75 421.061 413.096 410.106 404.528 405.484C395.96 400.863 375.741 395.043 375.055 394.872L356.72 409.421L339.242 394.872C338.557 395.043 317.823 400.863 309.427 405.484C300.859 410.106 295.204 421.061 295.89 439.547C296.404 454.439 295.375 477.889 295.547 495.006H418.579C418.579 477.889 417.551 454.439 418.065 439.547Z" fill="url(#paint6_linear)"/>
<path d="M366.83 401.205L362.032 398.98L356.548 409.079L351.065 398.98L346.096 401.205L353.293 412.845V495.006H359.975V412.331L366.83 401.205Z" fill="#EE4D47" fill-opacity="0.29" style="mix-blend-mode:multiply"/>
<path d="M345.239 383.232C345.068 388.196 352.094 401.034 352.094 401.034L339.927 412.844L335.986 395.728C335.986 395.728 339.927 385.286 345.239 383.232Z" fill="white"/>
<path d="M368.543 383.232C368.714 388.196 360.832 401.205 360.832 401.205L373.684 412.844L377.625 395.556C377.625 395.556 373.855 385.286 368.543 383.232Z" fill="white"/>
<path d="M358.607 415.754C358.607 416.781 357.75 417.637 356.722 417.637C355.694 417.637 354.837 416.781 354.837 415.754C354.837 414.727 355.694 413.872 356.722 413.872C357.75 413.872 358.607 414.727 358.607 415.754Z" fill="white"/>
<path d="M358.606 433.214C358.606 434.241 357.749 435.097 356.721 435.097C355.693 435.097 354.836 434.241 354.836 433.214C354.836 432.187 355.693 431.331 356.721 431.331C357.749 431.331 358.606 432.015 358.606 433.214Z" fill="white"/>
<path d="M358.606 450.331C358.606 451.358 357.749 452.213 356.721 452.213C355.693 452.213 354.836 451.358 354.836 450.331C354.836 449.304 355.693 448.448 356.721 448.448C357.749 448.448 358.606 449.304 358.606 450.331Z" fill="white"/>
<path d="M358.606 469.33C358.606 470.358 357.749 471.213 356.721 471.213C355.693 471.213 354.836 470.358 354.836 469.33C354.836 468.303 355.693 467.448 356.721 467.448C357.749 467.448 358.606 468.303 358.606 469.33Z" fill="white"/>
<path d="M298.631 410.619C298.631 410.619 280.467 459.403 279.097 467.448C277.897 475.493 288.178 494.15 292.976 494.835C300.002 495.862 305.656 493.808 312.682 481.826C319.536 469.844 318.337 418.664 318.337 418.664L298.631 410.619Z" fill="url(#paint7_linear)"/>
<path d="M318.508 413.872C318.508 413.872 317.308 472.754 314.738 480.114C310.625 491.925 300.173 495.177 300.173 495.177H311.825C311.825 495.177 320.907 489.186 321.763 471.213C322.278 460.43 320.393 426.025 319.365 414.556C319.022 411.475 318.508 413.872 318.508 413.872Z" fill="#EE4D47" fill-opacity="0.29" style="mix-blend-mode:multiply"/>
<path d="M322.535 408.315L302.834 400.364L298.726 410.521L318.427 418.472L322.535 408.315Z" fill="white"/>
<path d="M396.989 422.259C396.989 422.259 389.963 455.637 389.449 469.331C388.935 483.024 389.449 494.835 389.449 494.835L394.418 495.177C394.418 495.177 395.618 435.268 396.989 422.259Z" fill="#EE4D47" fill-opacity="0.29" style="mix-blend-mode:multiply"/>
<path d="M337.356 376.043C327.931 376.043 324.847 371.422 322.962 364.404C322.105 360.638 321.763 350.539 321.763 350.197H324.504C324.504 350.368 324.847 360.467 325.704 363.89C327.417 370.566 329.988 373.989 339.241 373.304L339.412 376.043C338.727 376.043 338.041 376.043 337.356 376.043Z" fill="white"/>
<path d="M356.72 282.927C349.18 282.242 331.873 282.756 323.991 297.819C323.991 297.819 326.047 301.413 328.446 299.017C337.014 291.314 349.009 291.143 356.377 291.143C363.917 291.143 376.426 291.143 384.822 299.017C387.392 301.242 389.277 297.819 389.277 297.819C381.566 282.756 364.259 282.242 356.72 282.927Z" fill="white"/>
<path d="M397.33 334.62C397.33 334.62 396.988 324.179 396.816 321.269C396.474 315.62 395.617 306.377 393.732 301.413C387.563 284.467 367.515 281.215 357.062 281.215C346.438 281.215 326.047 284.467 319.878 301.242C318.165 306.035 317.308 314.593 316.794 320.413C316.623 323.836 316.451 334.449 316.451 334.449H319.364C319.364 334.449 319.364 323.836 319.707 320.413C320.05 315.962 320.906 309.458 323.134 303.296C328.275 288.747 347.295 287.206 356.548 287.206C365.973 287.206 385.336 288.747 390.476 303.296C392.875 310.143 393.732 317.161 394.075 321.611C394.246 324.521 394.417 334.62 394.417 334.62H397.33Z" fill="url(#paint8_linear)"/>
<path d="M320.05 332.566H316.28V348.656H320.05V332.566Z" fill="white"/>
<path d="M326.733 351.737H322.449C320.393 351.737 318.68 350.025 318.68 347.971V333.251C318.68 331.197 320.393 329.485 322.449 329.485H326.733C327.247 329.485 327.59 329.827 327.59 330.341V350.71C327.59 351.223 327.247 351.737 326.733 351.737Z" fill="url(#paint9_linear)"/>
<path d="M314.738 350.025H314.567C313.71 350.025 313.024 349.341 313.024 348.485V332.395C313.024 331.539 313.71 330.854 314.567 330.854H314.738C315.595 330.854 316.28 331.539 316.28 332.395V348.485C316.28 349.341 315.595 350.025 314.738 350.025Z" fill="url(#paint10_linear)"/>
<path d="M393.177 348.934H396.947V332.844H393.177V348.934Z" fill="white"/>
<path d="M386.707 352.079H390.991C393.047 352.079 394.76 350.367 394.76 348.313V333.593C394.76 331.539 393.047 329.827 390.991 329.827H386.707C386.193 329.827 385.85 330.169 385.85 330.683V351.052C385.679 351.566 386.193 352.079 386.707 352.079Z" fill="url(#paint11_linear)"/>
<path d="M398.53 350.368H398.702C399.559 350.368 400.244 349.683 400.244 348.827V332.737C400.244 331.881 399.559 331.197 398.702 331.197H398.53C397.674 331.197 396.988 331.881 396.988 332.737V348.827C396.988 349.683 397.674 350.368 398.53 350.368Z" fill="url(#paint12_linear)"/>
<path d="M347.467 374.331C347.467 376.043 345.411 377.584 342.669 377.584C340.099 377.584 337.871 376.214 337.871 374.331C337.871 372.448 339.927 371.079 342.669 371.079C345.239 371.079 347.467 372.448 347.467 374.331Z" fill="url(#paint13_linear)"/>
<path fill-rule="evenodd" clip-rule="evenodd" d="M311.654 363.377L311.655 363.376C313.249 361.884 315.074 360.854 316.828 359.985C319.981 357.945 323.657 355.625 325.02 354.989C327.762 353.62 329.475 356.016 325.534 359.44C324.679 360.183 323.686 360.974 322.657 361.758C324.797 360.938 326.691 360.234 327.59 359.953C330.503 359.098 331.874 361.836 327.247 364.404C325.365 365.448 323.002 366.577 320.86 367.55L321.593 369.881C321.593 369.881 323.65 367.998 324.335 367.485C328.619 364.575 330.846 366.971 328.962 369.539C326.905 372.106 323.821 379.467 324.849 384.602C325.534 388.025 325.02 392.818 324.164 396.584C323.307 400.178 317.995 410.791 317.995 410.791L304.287 405.998C304.287 405.998 307.371 402.746 306.857 394.872C306.705 392.291 305.677 389.576 304.654 386.875C303.371 383.485 302.096 380.119 302.573 377.07C303.43 372.278 310.455 364.576 311.655 363.377L311.654 363.377Z" fill="url(#paint14_linear)"/>
<path opacity="0.3" d="M323.992 383.917C324.335 379.638 323.992 378.782 323.649 376.728C323.306 374.331 323.821 371.25 322.792 369.025C321.593 366.629 319.708 365.26 316.452 365.944C312.168 366.971 310.455 369.196 310.455 369.196C310.455 369.196 313.882 367.827 315.596 367.314C318.166 366.629 320.736 366.8 321.764 369.881C322.278 371.764 322.621 374.331 322.964 376.214C323.135 377.584 324.163 383.575 323.306 383.746C322.45 383.746 320.565 383.232 319.708 380.151C319.537 380.836 319.365 385.458 318.851 385.458C315.767 385.115 315.424 382.719 315.253 380.151C315.253 378.953 315.081 377.241 314.739 375.016C313.539 376.899 310.626 378.611 309.427 379.467C310.798 380.665 313.368 383.575 314.396 384.773C316.281 386.998 317.994 390.421 318.337 394.016C322.964 389.566 320.393 384.944 320.222 383.403C321.422 384.773 323.821 385.8 323.992 383.917Z" fill="#EB5046"/>
<path d="M518.309 383.917C518.309 381.349 516.252 379.467 513.511 379.467H386.88C384.31 379.467 382.082 381.521 382.082 383.917V462.655H518.137V383.917H518.309Z" fill="url(#paint15_linear)"/>
<path d="M387.051 477.547H513.682C516.252 477.547 518.48 475.493 518.48 473.096V462.826H382.424V473.096C382.253 475.493 384.481 477.547 387.051 477.547Z" fill="#CA3F3A"/>
<path d="M470.159 475.664H436.23V491.754H470.159V475.664Z" fill="#CA3F3A"/>
<path d="M474.27 475.664H440.342V491.754H474.27V475.664Z" fill="url(#paint16_linear)"/>
<path d="M468.616 490.213H426.634V494.835H468.616V490.213Z" fill="url(#paint17_linear)"/>
<path d="M482.324 490.213H440.342V494.835H482.324V490.213Z" fill="url(#paint18_linear)"/>
<path d="M525.334 383.917C525.334 381.349 523.278 379.467 520.537 379.467H394.077C391.507 379.467 389.279 381.521 389.279 383.917V462.655H525.334V383.917Z" fill="url(#paint19_linear)"/>
<path d="M394.077 477.547H520.708C523.278 477.547 525.506 475.493 525.506 473.096V462.826H389.45V473.096C389.279 475.493 391.335 477.547 394.077 477.547Z" fill="url(#paint20_linear)"/>
<path opacity="0.2" d="M469.644 413.872C469.644 420.718 464.16 426.196 457.306 426.196C450.452 426.196 444.969 420.718 444.969 413.872C444.969 407.025 450.452 401.547 457.306 401.547C464.16 401.547 469.644 407.025 469.644 413.872Z" fill="white"/>
<path d="M354.664 490.213H325.362V494.664H354.664V490.213Z" fill="url(#paint21_linear)"/>
<path d="M403.329 490.213H341.812V494.664H403.329V490.213Z" fill="url(#paint22_linear)"/>
<g clip-path="url(#clip0)">
<path d="M594 461.022H514V494.953H594V461.022Z" fill="#FCDDD4"/>
<path fill-rule="evenodd" clip-rule="evenodd" d="M554.445 452.177V452.254C555.079 450.485 556.35 447.669 558.488 443.469C562.73 435.427 567.465 429.249 567.465 429.249C567.465 429.249 565.393 436.114 561.152 444.155C557.401 451.352 555.347 454.256 554.445 454.696V455.106C555.532 453.677 557.924 451.226 562.138 447.391C569.142 441.115 576.047 436.604 576.047 436.604C576.047 436.604 571.608 442.39 564.604 448.764C560.497 452.451 557.775 454.661 556.076 455.794C557.806 454.725 560.496 453.258 564.407 451.314C573.088 446.999 580.979 444.351 580.979 444.351C580.979 444.351 574.864 448.764 566.183 453.079C559.572 456.44 555.993 457.867 554.445 458.14V458.435C555.837 457.664 559.398 456.428 566.183 454.55C575.751 451.902 584.136 450.726 584.136 450.726C584.136 450.726 576.836 453.962 567.268 456.61C564.148 457.473 561.658 458.107 559.708 458.549C561.683 458.22 564.235 457.866 567.465 457.492C577.625 456.217 586.108 456.315 586.108 456.315C586.108 456.315 578.118 458.473 567.958 459.65C559.778 460.676 555.754 460.812 554.445 460.52V460.728H553.458V460.588C553.276 460.641 553.022 460.684 552.668 460.728H549.808C547.638 460.63 544.382 460.434 539.845 459.846C529.684 458.571 521.694 456.511 521.694 456.511C521.694 456.511 530.178 456.413 540.338 457.688C543.391 458.042 545.838 458.369 547.765 458.669C545.867 458.232 543.481 457.621 540.535 456.806C530.868 454.158 523.667 450.922 523.667 450.922C523.667 450.922 532.052 452.098 541.62 454.746C548.574 456.67 552.141 457.921 553.458 458.687V458.341C551.966 458.091 548.377 456.634 541.621 453.275C532.94 448.96 526.824 444.547 526.824 444.547C526.824 444.547 534.716 447.195 543.396 451.51C547.063 453.333 549.656 454.735 551.391 455.785C549.663 454.599 547.017 452.435 543.199 448.96C536.195 442.586 531.756 436.8 531.756 436.8C531.756 436.8 538.661 441.213 545.665 447.587C548.675 450.327 550.756 452.361 552.096 453.82C550.945 452.331 549.158 449.389 546.552 444.449C542.311 436.408 540.239 429.543 540.239 429.543C540.239 429.543 545.073 435.721 549.216 443.763C551.606 448.402 552.913 451.377 553.458 453.101V452.179C552.928 450.962 552.57 447.445 552.57 440.429C552.57 431.406 553.951 424.052 553.951 424.052C553.951 424.052 555.332 431.406 555.332 440.429C555.332 447.441 554.974 450.958 554.445 452.177ZM553.458 455.049C553.312 455.038 553.121 454.928 552.879 454.706C553.106 454.976 553.298 455.218 553.458 455.435V455.049ZM553.458 456.91C553.217 456.847 552.905 456.711 552.515 456.493C552.893 456.744 553.206 456.967 553.458 457.164V456.91ZM554.445 456.892C554.716 456.685 555.049 456.452 555.45 456.191C555.037 456.437 554.704 456.598 554.445 456.683V456.892ZM553.458 459.57C553.14 459.591 552.692 459.569 552.096 459.497C552.727 459.658 553.173 459.808 553.458 459.947V459.57ZM554.445 459.79C554.815 459.62 555.403 459.431 556.246 459.227C555.443 459.347 554.851 459.394 554.445 459.379V459.79Z" fill="#F37753"/>
<path d="M548.624 460.728H530.178C533.039 460.532 536.491 460.434 540.141 460.434C543.692 460.434 546.553 460.532 548.624 460.728Z" fill="#F37753"/>
<path d="M559.179 460.728H577.625C574.765 460.532 571.312 460.336 567.662 460.434C564.012 460.532 561.25 460.63 559.179 460.728Z" fill="#F37753"/>
</g>
<path d="M427 299.052C427 288.006 435.954 279.052 447 279.052H559.619C570.664 279.052 579.619 288.006 579.619 299.052V325.664C579.619 336.71 570.664 345.664 559.619 345.664H427V299.052Z" fill="#F69477"/>
<circle opacity="0.5" cx="461.571" cy="312.78" r="5.05919" fill="white"/>
<circle opacity="0.5" cx="482.651" cy="312.78" r="5.05919" fill="white"/>
<circle opacity="0.5" cx="503.731" cy="312.78" r="5.05919" fill="white"/>
<circle opacity="0.5" cx="524.811" cy="312.78" r="5.05919" fill="white"/>
<circle opacity="0.5" cx="545.891" cy="312.78" r="5.05919" fill="white"/>
<defs>
<linearGradient id="paint0_linear" x1="310.408" y1="178.118" x2="227.956" y2="328.965" gradientUnits="userSpaceOnUse">
<stop stop-color="#F37753"/>
<stop offset="1" stop-color="white" stop-opacity="0"/>
</linearGradient>
<linearGradient id="paint1_linear" x1="223.522" y1="144.035" x2="271.127" y2="470.013" gradientUnits="userSpaceOnUse">
<stop stop-color="#F7A58D"/>
<stop offset="1" stop-color="#F58A6B"/>
</linearGradient>
<linearGradient id="paint2_linear" x1="371.788" y1="382.548" x2="368.733" y2="348.762" gradientUnits="userSpaceOnUse">
<stop stop-color="#FFB3B6"/>
<stop offset="1" stop-color="#FFC8C1"/>
</linearGradient>
<linearGradient id="paint3_linear" x1="344.38" y1="378.589" x2="373.114" y2="388.937" gradientUnits="userSpaceOnUse">
<stop stop-color="#FFB3B6" stop-opacity="0.31"/>
<stop offset="1" stop-color="#FFC8C1"/>
</linearGradient>
<linearGradient id="paint4_linear" x1="397.363" y1="436.46" x2="391.234" y2="373.259" gradientUnits="userSpaceOnUse">
<stop stop-color="#FFB3B6"/>
<stop offset="1" stop-color="white"/>
</linearGradient>
<linearGradient id="paint5_linear" x1="395.873" y1="369.908" x2="389.989" y2="319.279" gradientUnits="userSpaceOnUse">
<stop stop-color="#FFB3B6"/>
<stop offset="1" stop-color="#FFC8C1"/>
</linearGradient>
<linearGradient id="paint6_linear" x1="357.053" y1="371.693" x2="357.053" y2="497.748" gradientUnits="userSpaceOnUse">
<stop stop-color="#F4A984"/>
<stop offset="1" stop-color="#EE4D47"/>
</linearGradient>
<linearGradient id="paint7_linear" x1="298.709" y1="391.072" x2="298.709" y2="497.379" gradientUnits="userSpaceOnUse">
<stop stop-color="#F4A984"/>
<stop offset="1" stop-color="#EE4D47"/>
</linearGradient>
<linearGradient id="paint8_linear" x1="356.891" y1="268.853" x2="356.891" y2="336.082" gradientUnits="userSpaceOnUse">
<stop stop-color="#F4A984"/>
<stop offset="1" stop-color="#EE4D47"/>
</linearGradient>
<linearGradient id="paint9_linear" x1="323.135" y1="324.334" x2="323.135" y2="352.346" gradientUnits="userSpaceOnUse">
<stop stop-color="#F4A984"/>
<stop offset="1" stop-color="#EE4D47"/>
</linearGradient>
<linearGradient id="paint10_linear" x1="314.652" y1="326.417" x2="314.652" y2="350.55" gradientUnits="userSpaceOnUse">
<stop stop-color="#F4A984"/>
<stop offset="1" stop-color="#EE4D47"/>
</linearGradient>
<linearGradient id="paint11_linear" x1="390.288" y1="324.676" x2="390.288" y2="352.688" gradientUnits="userSpaceOnUse">
<stop stop-color="#F4A984"/>
<stop offset="1" stop-color="#EE4D47"/>
</linearGradient>
<linearGradient id="paint12_linear" x1="398.616" y1="326.759" x2="398.616" y2="350.892" gradientUnits="userSpaceOnUse">
<stop stop-color="#F4A984"/>
<stop offset="1" stop-color="#EE4D47"/>
</linearGradient>
<linearGradient id="paint13_linear" x1="342.669" y1="369.573" x2="342.669" y2="377.762" gradientUnits="userSpaceOnUse">
<stop stop-color="#F4A984"/>
<stop offset="1" stop-color="#EE4D47"/>
</linearGradient>
<linearGradient id="paint14_linear" x1="316" y1="408.552" x2="338.5" y2="324.552" gradientUnits="userSpaceOnUse">
<stop stop-color="#FFB3B6"/>
<stop offset="0.239165" stop-color="#FFC5C7"/>
<stop offset="1" stop-color="white"/>
</linearGradient>
<linearGradient id="paint15_linear" x1="431.105" y1="630.315" x2="431.105" y2="145.243" gradientUnits="userSpaceOnUse">
<stop stop-color="#FFEDBA"/>
<stop offset="0.423008" stop-color="#F16D5E"/>
<stop offset="0.651925" stop-color="#EE4D47"/>
</linearGradient>
<linearGradient id="paint16_linear" x1="452.551" y1="524.182" x2="452.551" y2="430.361" gradientUnits="userSpaceOnUse">
<stop stop-color="#FFEDBA"/>
<stop offset="1" stop-color="#EE4D47"/>
</linearGradient>
<linearGradient id="paint17_linear" x1="441.741" y1="512.324" x2="441.741" y2="485.824" gradientUnits="userSpaceOnUse">
<stop stop-color="#FFEDBA"/>
<stop offset="1" stop-color="#EE4D47"/>
</linearGradient>
<linearGradient id="paint18_linear" x1="455.449" y1="504.149" x2="455.449" y2="477.201" gradientUnits="userSpaceOnUse">
<stop stop-color="#FFEDBA"/>
<stop offset="1" stop-color="#EE4D47"/>
</linearGradient>
<linearGradient id="paint19_linear" x1="438.24" y1="517.093" x2="438.24" y2="300.459" gradientUnits="userSpaceOnUse">
<stop stop-color="#FFEDBA"/>
<stop offset="1" stop-color="#EE4D47"/>
</linearGradient>
<linearGradient id="paint20_linear" x1="438.405" y1="507.215" x2="438.405" y2="421.379" gradientUnits="userSpaceOnUse">
<stop stop-color="#FFEDBA"/>
<stop offset="1" stop-color="#EE4D47"/>
</linearGradient>
<linearGradient id="paint21_linear" x1="335.907" y1="511.505" x2="335.907" y2="485.986" gradientUnits="userSpaceOnUse">
<stop stop-color="#FFEDBA"/>
<stop offset="1" stop-color="#EE4D47"/>
</linearGradient>
<linearGradient id="paint22_linear" x1="363.95" y1="490.184" x2="363.95" y2="470.769" gradientUnits="userSpaceOnUse">
<stop stop-color="#FFEDBA"/>
<stop offset="1" stop-color="#EE4D47"/>
</linearGradient>
<clipPath id="clip0">
<rect width="80" height="71" fill="white" transform="translate(514 424.052)"/>
</clipPath>
</defs>
</svg>
