<svg width="18" height="21" viewBox="0 0 18 21" fill="none" xmlns="http://www.w3.org/2000/svg">
<path d="M9 12C7.67392 12 6.40215 11.4732 5.46447 10.5355C4.52678 9.59785 4 8.32608 4 7H6C6 7.79565 6.31607 8.55871 6.87868 9.12132C7.44129 9.68393 8.20435 10 9 10C9.79565 10 10.5587 9.68393 11.1213 9.12132C11.6839 8.55871 12 7.79565 12 7H14C14 8.32608 13.4732 9.59785 12.5355 10.5355C11.5979 11.4732 10.3261 12 9 12ZM9 2C9.79565 2 10.5587 2.31607 11.1213 2.87868C11.6839 3.44129 12 4.20435 12 5H6C6 4.20435 6.31607 3.44129 6.87868 2.87868C7.44129 2.31607 8.20435 2 9 2ZM16 5H14C14 4.34339 13.8707 3.69321 13.6194 3.08658C13.3681 2.47995 12.9998 1.92876 12.5355 1.46447C12.0712 1.00017 11.52 0.631876 10.9134 0.380602C10.3068 0.129329 9.65661 0 9 0C7.67392 0 6.40215 0.526784 5.46447 1.46447C4.52678 2.40215 4 3.67392 4 5H2C0.89 5 0 5.89 0 7V19C0 19.5304 0.210714 20.0391 0.585786 20.4142C0.960859 20.7893 1.46957 21 2 21H16C16.5304 21 17.0391 20.7893 17.4142 20.4142C17.7893 20.0391 18 19.5304 18 19V7C18 5.89 17.1 5 16 5Z" fill="#D3D7DE"/>
</svg>
