<svg width="231" height="40" viewBox="0 0 231 40" fill="none" xmlns="http://www.w3.org/2000/svg">
<path fill-rule="evenodd" clip-rule="evenodd" d="M20.7583 9.62742C19.394 4.7893 14.2843 4.03183 10.1172 5.6934C5.47874 7.52602 1.60925 12.6818 0.617076 17.4222C-0.523925 22.8956 1.46042 29.6641 5.95002 33.2316C8.7033 35.4307 12.796 34.9665 14.8796 32.8406C11.4566 34.4045 9.24901 33.4515 7.01662 31.57C3.24635 28.4179 1.58448 22.5046 2.57666 17.8131C3.44481 13.7081 6.86781 9.08987 10.8861 7.5016C14.2843 6.15767 17.8065 6.7441 19.4188 10.2872C20.2373 12.0709 20.4358 14.3189 19.8653 16.347C21.0559 14.7099 21.4032 11.9732 20.7583 9.62742ZM41.5195 29.9573C42.3381 33.2804 40.3041 36.4814 37.1539 37.3855C32.962 38.5584 28.1003 37.7032 24.5037 35.3574C27.5794 38.9982 33.0364 40.7575 37.6996 39.2181C41.6435 37.8987 43.5039 33.5981 41.5195 29.9573ZM43.4543 17.4466C42.4621 12.6818 38.5926 7.55045 33.9542 5.71783C29.7871 4.05626 24.6773 4.81375 23.3131 9.65187C22.6434 11.9976 23.0155 14.7099 24.2309 16.3715C23.6356 14.3434 23.8588 12.0954 24.6773 10.3116C26.2896 6.79298 29.7871 6.1821 33.2101 7.52602C37.2284 9.1143 40.6514 13.7325 41.5195 17.8376C42.5117 22.5291 40.8498 28.4423 37.0795 31.5944C34.8223 33.4759 32.6395 34.4289 29.2165 32.8651C31.2753 34.9909 35.368 35.4552 38.1461 33.256C42.6109 29.6641 44.5953 22.92 43.4543 17.4466ZM22.0233 0.219971C19.518 0.219971 17.0376 1.66163 15.8966 4.49609C17.8561 2.93225 19.9397 2.17477 22.0233 2.17477C24.1068 2.17477 26.1656 2.95668 28.1499 4.49609C27.0089 1.6372 24.5285 0.219971 22.0233 0.219971ZM6.91742 37.3855C3.74246 36.4814 1.73328 33.256 2.55183 29.9573C0.56748 33.6225 2.42781 37.9231 6.39651 39.2181C11.0349 40.7575 16.4919 38.9982 19.5924 35.3574C15.971 37.7032 11.1094 38.5584 6.91742 37.3855Z" fill="white"/>
<path d="M34.2023 40C30.5313 40 26.7362 38.3629 24.3302 35.504L23.338 34.3066L24.6526 35.1619C28.2989 37.5321 33.0861 38.314 37.1292 37.1655C40.2546 36.2614 42.0901 33.1093 41.346 30.0061C40.5026 31.3256 39.4856 32.4985 38.295 33.4514C35.3433 35.8216 31.1266 35.1619 29.0678 33.036L28.2244 32.1808L29.3406 32.6939C32.6396 34.2089 34.7728 33.2804 36.9556 31.4478C40.5026 28.4667 42.3629 22.7734 41.3212 17.9108C40.4282 13.6103 36.906 9.26085 33.1605 7.74588C30.2832 6.62187 26.6121 6.69517 24.9254 10.4093C24.1069 12.2175 23.9333 14.4166 24.479 16.3225L24.8263 17.5443L24.0573 16.518C22.7923 14.832 22.4202 12.0464 23.0899 9.60293C23.6356 7.697 24.7766 6.27977 26.4385 5.47342C26.9842 5.20463 27.6043 5.00916 28.2244 4.88699L28.0012 4.71594C24.1565 1.68601 19.8654 1.68601 16.0207 4.71594L15.7975 4.88699C16.4424 5.00916 17.0377 5.20463 17.6082 5.47342C19.27 6.27977 20.411 7.72144 20.9567 9.60293C21.6265 12.0464 21.2544 14.832 19.9894 16.518L19.2453 17.5199L19.5925 16.3225C20.1382 14.4166 19.9646 12.2175 19.1461 10.4093C17.4594 6.69517 13.7883 6.59744 10.911 7.74588C7.16551 9.23641 3.64332 13.6103 2.75036 17.9108C1.73338 22.7734 3.56893 28.4667 7.11595 31.4478C9.29874 33.2804 11.4319 34.1845 14.7309 32.6939L15.8471 32.1808L15.0037 33.036C12.9449 35.1374 8.7282 35.7972 5.77648 33.4514C4.61068 32.5229 3.56888 31.35 2.72553 30.0061C1.9814 33.1338 3.81692 36.2614 6.94227 37.1655C11.0102 38.2895 15.7726 37.5321 19.4189 35.1619L20.7335 34.3066L19.7165 35.504C16.492 39.2914 10.8614 40.9529 6.27257 39.438C4.26341 38.7782 2.70074 37.3366 1.9318 35.4795C1.18767 33.6469 1.31173 31.6433 2.2791 29.8595L2.42789 29.5663C0.344324 26.0232 -0.523829 21.5027 0.31952 17.4221C1.38611 12.3152 5.45406 7.30604 9.96846 5.52229C11.8288 4.78924 13.7635 4.56934 15.475 4.81369L15.6238 4.42272C16.7152 1.686 19.146 0 21.9737 0C24.7766 0 27.2075 1.686 28.3237 4.42272L28.4725 4.81369C30.184 4.5449 32.1187 4.78924 33.979 5.52229C38.4934 7.30604 42.5366 12.3152 43.628 17.4221C44.4961 21.5027 43.628 26.0476 41.5196 29.5663L41.6684 29.8595C42.6358 31.6433 42.7598 33.6469 42.0157 35.4795C41.2716 37.3366 39.684 38.7782 37.6997 39.438C36.6083 39.8045 35.4177 40 34.2023 40ZM25.8184 36.3592C28.9934 39.1692 33.731 40.2688 37.6253 38.9982C39.4857 38.3873 40.9739 37.0189 41.6684 35.284C42.1397 34.0867 42.2389 32.8405 41.9413 31.6188C41.842 34.3311 40.0065 36.799 37.2284 37.5809C33.5574 38.6316 29.3406 38.1429 25.8184 36.3592ZM2.13025 31.6188C1.8326 32.8405 1.93184 34.1112 2.40312 35.3085C3.09765 37.0434 4.58586 38.3873 6.44619 39.0226C10.3405 40.2932 15.0533 39.1936 18.2283 36.3836C14.706 38.1674 10.4893 38.6316 6.81825 37.6054C4.06497 36.799 2.22947 34.3555 2.13025 31.6188ZM30.5313 33.598C32.6148 34.7954 35.6906 34.8931 37.9726 33.0605C39.2128 32.0586 40.2794 30.788 41.1475 29.3464L40.8747 28.2468L41.3212 29.0531C43.2559 25.6567 44.0496 21.3317 43.2311 17.471C42.1893 12.5107 38.2454 7.64813 33.8798 5.88881C31.325 4.88698 28.6213 4.86255 26.6617 5.81551C25.0991 6.573 24.0573 7.86804 23.5612 9.67623C23.0651 11.4355 23.1395 13.3903 23.7597 14.9297C23.586 13.317 23.8341 11.631 24.5038 10.1649C26.0168 6.81734 29.4151 5.71778 33.3342 7.25718C37.2284 8.79658 40.8499 13.317 41.7676 17.7398C42.8342 22.7734 40.9243 28.6377 37.2284 31.7165C35.2193 33.427 33.2597 34.38 30.5313 33.598ZM2.92398 29.3708C3.79213 30.8125 4.85873 32.0831 6.09895 33.0849C8.38095 34.9175 11.4567 34.8198 13.5403 33.6225C10.787 34.4044 8.85226 33.4514 6.86791 31.7899C3.19686 28.711 1.28691 22.8222 2.3287 17.8131C3.24646 13.3903 6.8927 8.86988 10.7622 7.33048C14.6813 5.79108 18.0546 6.89064 19.5925 10.2382C20.2622 11.6799 20.5103 13.3903 20.3366 15.003C20.9319 13.4636 21.0312 11.5088 20.5351 9.74953C20.039 7.94135 18.9724 6.6463 17.4345 5.88881C15.4502 4.93585 12.7465 4.96028 10.2165 5.96212C5.85093 7.697 1.90699 12.5596 0.865204 17.5443C0.0466597 21.4294 0.840448 25.73 2.77519 29.1265L3.19685 28.3201L2.92398 29.3708ZM22.0233 1.93035C23.9085 1.93035 25.7688 2.54122 27.5547 3.76297C26.4137 1.686 24.355 0.415397 22.0233 0.415397C19.6917 0.415397 17.633 1.686 16.492 3.76297C18.2779 2.56566 20.1382 1.93035 22.0233 1.93035Z" fill="white"/>
<path fill-rule="evenodd" clip-rule="evenodd" d="M19.9153 29.0775C19.7168 28.9309 17.7077 27.4159 17.9557 25.1434C18.0053 24.7036 18.2286 24.4104 18.4022 24.0439C18.5262 23.7751 18.3278 23.4819 18.0549 23.6773C17.8317 23.8484 17.7077 24.166 17.6581 24.4104C17.5093 25.0701 17.6084 25.8032 17.8069 26.4385C18.1541 27.4892 18.7743 28.3933 19.9401 29.1752L19.9153 29.0775Z" fill="white"/>
<path fill-rule="evenodd" clip-rule="evenodd" d="M20.4609 30.1037C18.3525 29.4196 14.8551 27.8069 13.3916 24.0927C12.9948 23.0909 13.1684 22.2113 13.1188 21.2094C13.094 20.5008 12.3251 20.0365 11.953 20.7452C11.6306 21.356 11.7297 22.1868 11.9034 22.8221C12.325 24.386 13.342 25.9254 14.5078 27.0738C16.0457 28.6132 17.8812 29.7372 20.2873 30.3481C21.8747 30.7635 22.2964 30.8124 23.9087 30.4458C26.4884 29.8594 28.4231 28.711 30.0354 27.0738C31.2012 25.9254 32.2182 24.4104 32.6398 22.8221C32.8135 22.1868 32.9127 21.356 32.5902 20.7452C32.2182 20.0365 31.4493 20.5008 31.4244 21.2094C31.3748 22.2113 31.5484 23.0909 31.1516 24.0927C29.6137 27.9535 25.893 29.5662 23.8095 30.1771C22.2964 30.6658 21.9739 30.5924 20.4609 30.1037Z" fill="white"/>
<path fill-rule="evenodd" clip-rule="evenodd" d="M14.607 21.6738C15.3759 19.0104 17.2115 17.9597 19.1214 18.2285C19.5927 18.3018 20.1384 18.4973 20.4608 18.986C20.6344 19.2303 20.6593 19.6457 20.4112 19.8656C20.064 20.1589 19.5431 19.8901 19.5679 19.4014C19.5679 19.2792 19.6671 19.1082 19.6175 18.986C19.5183 18.7172 19.1958 18.6195 18.9478 18.5706C18.5509 18.4729 18.1292 18.4973 17.7323 18.6195C16.9386 18.8638 16.3185 19.4747 15.8968 20.1344C15.4504 20.843 15.0039 21.8693 15.2767 22.7245C16.0457 20.8186 18.3773 21.4539 18.5509 23.2621C18.1044 22.5779 17.4099 22.8711 17.0875 23.482C16.7402 24.1173 16.889 24.997 17.0626 25.6567C17.5339 27.4405 18.8485 29.1754 20.6593 29.8107C20.8577 29.884 20.8825 30.055 20.7337 29.9817C15.4752 27.9536 13.9869 23.8485 14.607 21.6738Z" fill="white"/>
<path fill-rule="evenodd" clip-rule="evenodd" d="M24.6528 29.0775C24.8512 28.9309 26.8603 27.4159 26.6123 25.1434C26.5627 24.7036 26.3394 24.4104 26.1658 24.0439C26.0418 23.7751 26.2402 23.4819 26.5131 23.6773C26.7363 23.8484 26.8603 24.166 26.9099 24.4104C27.0587 25.0701 26.9596 25.8032 26.7611 26.4385C26.4139 27.4892 25.7937 28.3933 24.6279 29.1752L24.6528 29.0775Z" fill="white"/>
<path fill-rule="evenodd" clip-rule="evenodd" d="M29.9363 21.6738C29.1673 19.0104 27.3318 17.9597 25.4218 18.2285C24.9505 18.3018 24.4049 18.4973 24.0824 18.986C23.9088 19.2303 23.884 19.6457 24.132 19.8656C24.4793 20.1589 25.0002 19.8901 24.9754 19.4014C24.9754 19.2792 24.8761 19.1082 24.9257 18.986C25.025 18.7172 25.3475 18.6195 25.5955 18.5706C25.9924 18.4729 26.414 18.4973 26.8109 18.6195C27.6046 18.8638 28.2247 19.4747 28.6464 20.1344C29.0929 20.843 29.5393 21.8693 29.2665 22.7245C28.4976 20.8186 26.166 21.4539 25.9923 23.2621C26.4388 22.5779 27.1334 22.8711 27.4558 23.482C27.8031 24.1173 27.6542 24.997 27.4806 25.6567C27.0093 27.4405 25.6947 29.1754 23.884 29.8107C23.6855 29.884 23.6607 30.055 23.8095 29.9817C29.0929 27.9536 30.5812 23.8485 29.9363 21.6738Z" fill="white"/>
<path fill-rule="evenodd" clip-rule="evenodd" d="M20.9817 32.9627C20.312 32.5473 20.0887 32.254 20.1631 32.0341C20.2376 31.692 20.9569 31.521 21.6762 31.3988C20.4856 31.3255 19.8407 31.4966 19.5926 31.8387C19.2454 32.2785 19.7167 32.9871 20.6096 33.5491C21.1305 33.8668 21.701 34.0378 22.2963 34.0378C22.8668 34.0378 23.4374 33.8912 23.9831 33.5491C24.876 33.0115 25.3473 32.3029 25 31.8387C24.752 31.521 24.1071 31.3255 22.9165 31.3988C23.6358 31.521 24.3551 31.692 24.4295 32.0341C24.4791 32.254 24.2807 32.5717 23.611 32.9627C23.2141 33.207 22.7676 33.3292 22.3211 33.3292C21.825 33.3292 21.3786 33.207 20.9817 32.9627Z" fill="white"/>
<path d="M22.2714 34.209C21.6513 34.209 21.0312 34.038 20.4855 33.6959C19.7909 33.2805 19.3693 32.7674 19.2701 32.3275C19.2205 32.1076 19.27 31.8877 19.4189 31.6922C19.7413 31.2768 20.5103 31.1058 21.6761 31.1791L22.2714 31.228L22.8667 31.1791C24.0573 31.1058 24.8014 31.2768 25.1239 31.6922C25.2727 31.8633 25.2975 32.0832 25.2727 32.3275C25.1735 32.7918 24.7518 33.2805 24.0573 33.6959C23.5116 34.0135 22.8915 34.209 22.2714 34.209ZM20.1134 31.6922C19.8902 31.7655 19.7909 31.8633 19.7413 31.9121C19.6669 32.0099 19.6669 32.1076 19.6669 32.2298C19.7413 32.5719 20.1134 32.9873 20.6839 33.3294C21.6513 33.9158 22.8667 33.9158 23.8341 33.3294C24.4046 32.9873 24.8014 32.5719 24.8511 32.2298C24.8759 32.1076 24.851 32.0099 24.7766 31.9121C24.727 31.8633 24.6278 31.7655 24.4046 31.6922C24.479 31.7655 24.5534 31.8633 24.5782 31.961C24.7022 32.4253 24.1069 32.8407 23.6604 33.1095C23.2388 33.3782 22.7426 33.5004 22.2714 33.5004C22.2466 33.5004 22.2466 33.5004 22.2466 33.5004C21.7505 33.5004 21.2792 33.3538 20.8575 33.1095C20.4111 32.8407 19.8158 32.4253 19.9398 31.961C19.9646 31.8633 20.039 31.79 20.1134 31.6922ZM22.2714 33.1339C22.2962 33.1339 22.2962 33.1339 22.2714 33.1339C22.693 33.1339 23.0899 33.0117 23.462 32.7918C24.2309 32.3275 24.2061 32.1076 24.2061 32.0832C24.1813 31.9854 23.9829 31.79 22.8667 31.5945L22.2714 31.4967L21.7009 31.5945C20.5847 31.79 20.3862 31.9854 20.3614 32.0832C20.3614 32.1321 20.3366 32.3275 21.1056 32.7918C21.4528 33.0117 21.8497 33.1339 22.2714 33.1339Z" fill="white"/>
<path fill-rule="evenodd" clip-rule="evenodd" d="M25.2976 25.217C24.603 25.8523 23.1396 25.9011 22.8171 24.826C23.338 25.9989 22.4947 26.6097 22.321 27.5871C22.321 27.6116 22.3211 27.6604 22.2963 27.6849C22.2963 27.6604 22.2714 27.6116 22.2714 27.5871C22.0978 26.6097 21.2545 25.9989 21.7754 24.826C21.4281 25.9011 19.9894 25.8523 19.2949 25.217C21.5025 25.6812 21.9738 23.4088 22.321 21.8938C22.6187 23.3843 23.09 25.6812 25.2976 25.217Z" fill="white"/>
<path d="M49.8042 22.0403V6.27979H52.4583L57.816 13.6347L63.1738 6.27979H65.8526V22.0403H63.2978V10.2138L59.0314 16.0782H56.6006L52.3591 10.2382V22.0403H49.8042Z" fill="white"/>
<path d="M96.9576 22.0403C95.0973 22.0403 93.4602 21.6005 91.9967 20.7208C90.5581 19.8412 89.4667 18.7416 88.7722 17.4221C88.2265 16.3714 87.9536 15.2718 87.9536 14.1478C87.9536 13.0238 88.2265 11.9242 88.7722 10.898C89.4667 9.55406 90.5333 8.45449 91.9967 7.59926C93.4354 6.71961 95.0973 6.27979 96.9576 6.27979C98.6939 6.27979 100.306 6.69517 101.745 7.52596L101.993 7.64814L100.753 9.40745L100.405 9.23641C99.3636 8.64997 98.1978 8.35676 96.9328 8.35676C95.643 8.35676 94.4772 8.64996 93.4354 9.26084C92.3936 9.87171 91.5999 10.6536 91.0542 11.6066C90.6077 12.4374 90.3596 13.2926 90.3596 14.1723C90.3596 15.0764 90.5829 15.9316 91.0542 16.7624C91.5999 17.7153 92.3936 18.4973 93.4354 19.1081C94.4772 19.719 95.643 20.0122 96.9328 20.0122C98.1978 20.0122 99.3636 19.719 100.405 19.1326L100.753 18.9615L101.993 20.7208L101.745 20.843C100.306 21.6249 98.7187 22.0403 96.9576 22.0403Z" fill="white"/>
<path d="M113.775 22.0403L111.22 22.0159V6.27979H122.779V8.40561H113.75V13.0727H120.769V15.1985H113.75V22.0403H113.775Z" fill="white"/>
<path d="M124.887 22.0403V6.3042H127.442V19.89H136.471V22.0647H124.887V22.0403Z" fill="white"/>
<path d="M147.509 22.0403C145.599 22.0403 143.912 21.576 142.448 20.672C140.96 19.7434 139.894 18.595 139.249 17.2266C138.777 16.2492 138.554 15.223 138.554 14.1478C138.554 13.0483 138.827 11.9731 139.348 10.9224C140.042 9.5785 141.109 8.47892 142.572 7.59926C144.036 6.71961 145.673 6.27979 147.533 6.27979C149.394 6.27979 151.056 6.71961 152.519 7.59926C153.983 8.47892 155.049 9.5785 155.719 10.9224C156.24 11.9243 156.513 12.9994 156.513 14.1478C156.513 15.1985 156.289 16.2248 155.818 17.2266C155.148 18.6194 154.082 19.7679 152.618 20.672C151.13 21.6005 149.419 22.0403 147.509 22.0403ZM147.509 19.9878C149.419 19.9878 150.981 19.4013 152.221 18.204C153.437 17.0312 154.057 15.6628 154.057 14.1478C154.057 12.6329 153.437 11.2889 152.221 10.1161C151.006 8.91875 149.419 8.33231 147.509 8.33231C146.169 8.33231 144.979 8.64997 143.912 9.28528C142.845 9.92059 142.076 10.7514 141.556 11.7288C141.159 12.5107 140.96 13.317 140.96 14.1478C140.96 15.003 141.159 15.8338 141.556 16.5913C142.052 17.5932 142.845 18.3995 143.912 19.0348C144.979 19.6701 146.194 19.9878 147.509 19.9878Z" fill="white"/>
<path d="M162.962 22.0403L158.571 6.27979H161.201L164.425 17.8375L169.237 6.27979H171.643L176.455 17.8864L179.655 6.27979H182.284L177.993 21.7227L177.968 21.796L177.919 22.0403H175.438L170.378 9.89615L165.368 22.0403H162.962Z" fill="white"/>
<path d="M184.393 22.0403V6.3042H195.951V8.43004H186.923V13.0971H193.917V15.223H186.923V19.89H195.951V22.0647H184.393V22.0403Z" fill="white"/>
<path d="M198.035 22.0403V6.27979H206.667C208.775 6.27979 210.388 6.74404 211.554 7.64814C212.695 8.55223 213.29 9.79841 213.29 11.3867C213.29 13.5125 212.298 14.9786 210.313 15.8094L213.538 22.0403H210.735L207.833 16.4203C207.461 16.4692 207.064 16.4691 206.692 16.4691H200.615V22.0403H198.035ZM200.615 14.3189H206.667C207.362 14.3189 207.982 14.2456 208.527 14.099C209.991 13.7324 210.735 12.8283 210.735 11.3867C210.735 10.6536 210.561 10.0672 210.214 9.60293C209.867 9.13867 209.272 8.82101 208.428 8.62553C207.783 8.47892 207.188 8.43006 206.642 8.43006H200.615V14.3189Z" fill="white"/>
<path d="M223.336 22.0404C220.83 22.0404 218.945 21.5272 217.606 20.5254C216.291 19.4991 215.621 18.0819 215.621 16.2248V15.9561H218.027V16.2248C218.027 17.5443 218.474 18.4973 219.342 19.1082C220.21 19.719 221.55 20.0367 223.311 20.0367C226.188 20.0367 227.9 19.548 228.42 18.595C228.544 18.3751 228.594 18.0575 228.594 17.6176C228.594 17.3733 228.594 17.2022 228.569 17.0801C228.544 16.909 228.495 16.7624 228.445 16.6158C228.247 16.2004 227.627 15.8339 226.535 15.5162C226.014 15.3696 225.121 15.1741 223.881 14.9298L222.294 14.661C222.095 14.6366 221.847 14.5877 221.5 14.5144C221.178 14.4655 220.855 14.3922 220.607 14.3434C220.334 14.2945 220.086 14.2456 219.863 14.1967C219.044 14.0257 218.325 13.8058 217.705 13.537C216.291 12.8773 215.572 11.7777 215.572 10.2872C215.572 9.70071 215.671 9.21202 215.894 8.74775C216.093 8.30792 216.415 7.9414 216.787 7.64818C217.184 7.35496 217.606 7.11061 218.077 6.91513C218.548 6.71965 219.069 6.57305 219.689 6.47531C220.309 6.37757 220.88 6.3287 221.426 6.27983C221.971 6.25539 222.567 6.23096 223.236 6.23096C228.371 6.23096 230.926 7.74592 230.926 10.7758V11.0446H228.52V10.7758C228.52 10.2627 228.371 9.84733 228.098 9.4808C227.825 9.13871 227.403 8.86992 226.883 8.69888C226.337 8.52784 225.791 8.40567 225.221 8.3568C224.65 8.30793 223.98 8.25905 223.236 8.25905C222.145 8.25905 221.227 8.30792 220.508 8.40566C219.416 8.55227 218.697 8.84549 218.35 9.26088C218.127 9.52966 218.027 9.84733 218.027 10.2627C218.027 10.7514 218.127 11.1179 218.35 11.3379C218.648 11.6555 219.317 11.9243 220.334 12.1442C220.657 12.2175 221.5 12.3886 222.815 12.6085C224.427 12.8773 225.593 13.0972 226.312 13.2682C227.875 13.6347 228.966 14.0501 229.561 14.5144C230.107 14.9054 230.479 15.3696 230.678 15.8339C230.876 16.3226 230.975 16.8846 230.975 17.5443C231.025 20.5743 228.47 22.0404 223.336 22.0404Z" fill="white"/>
<path d="M76.9153 22.0403C75.0054 22.0403 73.3187 21.576 71.8553 20.672C70.367 19.7434 69.3004 18.595 68.6555 17.2266C68.1842 16.2492 67.9609 15.223 67.9609 14.1478C67.9609 13.0483 68.2338 11.9731 68.7547 10.9224C69.4492 9.5785 70.5158 8.47892 71.9793 7.59926C73.4428 6.71961 75.0798 6.27979 76.9402 6.27979C78.8005 6.27979 80.4624 6.71961 81.9258 7.59926C83.3893 8.47892 84.4559 9.5785 85.1256 10.9224C85.6465 11.9243 85.9193 12.9994 85.9193 14.1478C85.9193 15.1985 85.6961 16.2248 85.2248 17.2266C84.5551 18.6194 83.4885 19.7679 82.0251 20.672C80.512 21.6005 78.8253 22.0403 76.9153 22.0403ZM76.9153 19.9878C78.8253 19.9878 80.3879 19.4013 81.6282 18.204C82.8436 17.0312 83.4637 15.6628 83.4637 14.1478C83.4637 12.6329 82.8436 11.2889 81.6282 10.1161C80.4128 8.91875 78.8253 8.33231 76.9153 8.33231C75.5759 8.33231 74.3853 8.64997 73.3187 9.28528C72.2521 9.92059 71.4832 10.7514 70.9623 11.7288C70.5654 12.5107 70.367 13.317 70.367 14.1478C70.367 15.003 70.5654 15.8338 70.9623 16.5913C71.4584 17.5932 72.2521 18.3995 73.3187 19.0348C74.3853 19.6701 75.5759 19.9878 76.9153 19.9878Z" fill="white"/>
<path d="M72.5991 4.64274L76.0469 1.88159H77.4856L80.8838 4.64274H77.7088L76.7414 3.88525L75.774 4.64274H72.5991Z" fill="white"/>
<path d="M75.5015 25.7789V23.7019H77.9571V25.7789H75.5015Z" fill="white"/>
<path d="M53.897 27.856H54.7651V34.3556H53.897V31.4235H50.6973V34.3556H49.8291V27.856H50.6973V30.6171H53.897V27.856Z" fill="white"/>
<path d="M59.9992 29.7374H60.8177V34.38H59.9992V33.5737C59.6023 34.1846 59.007 34.5022 58.2133 34.5022C57.5436 34.5022 56.973 34.2579 56.5266 33.7936C56.0553 33.3049 55.832 32.7429 55.832 32.0587C55.832 31.3745 56.0553 30.8125 56.5266 30.3238C56.9978 29.8351 57.5436 29.6152 58.2133 29.6152C58.9822 29.6152 59.5775 29.9329 59.9992 30.5438V29.7374ZM58.3125 33.7203C58.7838 33.7203 59.1806 33.5737 59.5031 33.256C59.8255 32.9384 59.9743 32.5474 59.9743 32.0587C59.9743 31.5945 59.8255 31.2035 59.5031 30.8858C59.1806 30.5682 58.7838 30.3971 58.3125 30.3971C57.8412 30.3971 57.4443 30.5682 57.1218 30.8858C56.7994 31.2035 56.6506 31.5945 56.6506 32.0587C56.6506 32.523 56.7994 32.9384 57.1218 33.256C57.4443 33.5493 57.8412 33.7203 58.3125 33.7203Z" fill="white"/>
<path d="M64.6621 29.6152C65.3318 29.6152 65.8774 29.8596 66.3487 30.3238C66.82 30.8125 67.0433 31.3746 67.0433 32.0587C67.0433 32.7429 66.82 33.3293 66.3487 33.7936C65.8774 34.2579 65.3318 34.5022 64.6621 34.5022C63.8683 34.5022 63.273 34.1846 62.8761 33.5737V36.2371H62.0576V29.7374H62.8761V30.5438C63.273 29.9085 63.8683 29.6152 64.6621 29.6152ZM64.5628 33.7203C65.0341 33.7203 65.431 33.5737 65.7534 33.256C66.0759 32.9384 66.2247 32.5474 66.2247 32.0587C66.2247 31.5945 66.0759 31.2035 65.7534 30.8858C65.431 30.5682 65.0341 30.3971 64.5628 30.3971C64.0915 30.3971 63.6947 30.5682 63.3722 30.8858C63.0497 31.2035 62.9009 31.5945 62.9009 32.0587C62.9009 32.523 63.0497 32.9384 63.3722 33.256C63.6947 33.5493 64.0915 33.7203 64.5628 33.7203Z" fill="white"/>
<path d="M70.6401 29.6152C71.3098 29.6152 71.8555 29.8596 72.3268 30.3238C72.7981 30.8125 73.0213 31.3746 73.0213 32.0587C73.0213 32.7429 72.7981 33.3293 72.3268 33.7936C71.8555 34.2579 71.3098 34.5022 70.6401 34.5022C69.8464 34.5022 69.2511 34.1846 68.8542 33.5737V36.2371H68.0356V29.7374H68.8542V30.5438C69.2511 29.9085 69.8464 29.6152 70.6401 29.6152ZM70.5409 33.7203C71.0122 33.7203 71.4091 33.5737 71.7315 33.256C72.054 32.9384 72.2028 32.5474 72.2028 32.0587C72.2028 31.5945 72.054 31.2035 71.7315 30.8858C71.4091 30.5682 71.0122 30.3971 70.5409 30.3971C70.0696 30.3971 69.6727 30.5682 69.3503 30.8858C69.0278 31.2035 68.879 31.5945 68.879 32.0587C68.879 32.523 69.0278 32.9384 69.3503 33.256C69.6479 33.5493 70.0696 33.7203 70.5409 33.7203Z" fill="white"/>
<path d="M74.4353 29.1508C74.2865 29.1508 74.1377 29.102 74.0384 29.0042C73.9392 28.9065 73.8896 28.7599 73.8896 28.6133C73.8896 28.4667 73.9392 28.3445 74.0384 28.2223C74.1377 28.1246 74.2865 28.0513 74.4353 28.0513C74.5842 28.0513 74.7082 28.1001 74.8322 28.2223C74.9314 28.3201 74.981 28.4667 74.981 28.6133C74.981 28.7599 74.9314 28.8821 74.8322 29.0042C74.7082 29.102 74.5842 29.1508 74.4353 29.1508ZM74.0137 34.3799V29.7373H74.8322V34.3799H74.0137Z" fill="white"/>
<path d="M78.4286 29.6152C78.7015 29.6152 78.9495 29.6641 79.1727 29.7618C79.396 29.8596 79.5944 29.9817 79.7432 30.1528C79.892 30.3238 80.016 30.5193 80.1153 30.7637C80.2145 31.008 80.2393 31.2768 80.2393 31.57V34.4289H79.4208V31.6189C79.4208 31.2524 79.3216 30.9592 79.0983 30.7392C78.8999 30.5438 78.6022 30.4216 78.2302 30.4216C77.8333 30.4216 77.486 30.5438 77.238 30.7881C76.9899 31.0325 76.8659 31.4234 76.8659 31.9366V34.4045H76.0474V29.7618H76.8659V30.4216C77.238 29.8596 77.7589 29.6152 78.4286 29.6152Z" fill="white"/>
<path d="M82.0006 32.4253C82.075 32.8407 82.2734 33.1583 82.5711 33.4027C82.8687 33.647 83.2407 33.7448 83.712 33.7448C84.3321 33.7448 84.7786 33.5248 85.0763 33.0606L85.7708 33.4515C85.2995 34.1602 84.605 34.5023 83.6873 34.5023C82.9431 34.5023 82.323 34.2823 81.8517 33.8181C81.3804 33.3538 81.1572 32.7674 81.1572 32.0588C81.1572 31.3501 81.3804 30.7637 81.8517 30.2994C82.323 29.8352 82.8935 29.5908 83.6377 29.5908C84.3322 29.5908 84.9026 29.8352 85.3243 30.3239C85.7708 30.7881 85.9941 31.3746 85.9941 32.0588C85.9941 32.1809 85.9941 32.3031 85.9693 32.4253H82.0006ZM83.6128 30.3727C83.1664 30.3727 82.8191 30.4949 82.5215 30.7393C82.2238 30.9836 82.0501 31.3013 81.9757 31.7167H85.1259C85.0515 31.2768 84.8779 30.9348 84.605 30.7148C84.3322 30.4949 84.0097 30.3727 83.6128 30.3727Z" fill="white"/>
<path d="M87.4325 30.9836C87.4325 31.1546 87.5317 31.3012 87.7053 31.4234C87.879 31.5212 88.1022 31.6189 88.375 31.6922C88.5487 31.7411 88.7471 31.7899 88.9456 31.8388C89.144 31.9121 89.3424 31.9854 89.4912 32.0832C89.6649 32.1809 89.7889 32.3275 89.9129 32.4986C90.0121 32.6696 90.0618 32.8651 90.0618 33.1094C90.0618 33.5248 89.8881 33.8669 89.5657 34.1113C89.2432 34.3556 88.8215 34.5022 88.3006 34.5022C87.8293 34.5022 87.4573 34.4045 87.1101 34.209C86.7876 34.0135 86.5395 33.7447 86.4155 33.4026L87.1348 33.0117C87.2092 33.2316 87.3581 33.4026 87.5565 33.5493C87.7549 33.6714 88.003 33.7447 88.3006 33.7447C88.5735 33.7447 88.7968 33.6959 88.9704 33.5981C89.144 33.5004 89.2432 33.3293 89.2432 33.1094C89.2432 32.9384 89.144 32.7918 88.9704 32.6696C88.7968 32.5719 88.5735 32.4741 88.3006 32.4253C88.1022 32.3764 87.9286 32.3275 87.7053 32.2542C87.5069 32.1809 87.3085 32.1076 87.1597 32.0099C86.986 31.9121 86.862 31.7655 86.738 31.6189C86.6388 31.4478 86.5891 31.2524 86.5891 31.008C86.5891 30.6171 86.7379 30.275 87.0604 30.0062C87.3829 29.7374 87.7797 29.6152 88.251 29.6152C88.6231 29.6152 88.9704 29.6885 89.268 29.8596C89.5657 30.0306 89.7889 30.275 89.9377 30.5682L89.2432 30.9592C89.0696 30.5682 88.7223 30.3727 88.2263 30.3727C88.003 30.3727 87.8045 30.4216 87.6309 30.5438C87.5069 30.6415 87.4325 30.7881 87.4325 30.9836Z" fill="white"/>
<path d="M91.4511 30.9836C91.4511 31.1546 91.5503 31.3012 91.7239 31.4234C91.8975 31.5212 92.1208 31.6189 92.3936 31.6922C92.5672 31.7411 92.7657 31.7899 92.9641 31.8388C93.1626 31.9121 93.361 31.9854 93.5098 32.0832C93.6834 32.1809 93.8075 32.3275 93.9315 32.4986C94.0307 32.6696 94.0803 32.8651 94.0803 33.1094C94.0803 33.5248 93.9067 33.8669 93.5842 34.1113C93.2618 34.3556 92.8401 34.5022 92.3192 34.5022C91.848 34.5022 91.4759 34.4045 91.1286 34.209C90.8062 34.0135 90.5581 33.7447 90.4341 33.4026L91.1534 33.0117C91.2278 33.2316 91.3767 33.4026 91.5751 33.5493C91.7735 33.6714 92.0216 33.7447 92.3192 33.7447C92.5921 33.7447 92.8153 33.6959 92.9889 33.5981C93.1626 33.5004 93.2618 33.3293 93.2618 33.1094C93.2618 32.9384 93.1626 32.7918 92.9889 32.6696C92.8153 32.5719 92.5921 32.4741 92.3192 32.4253C92.1208 32.3764 91.9471 32.3275 91.7239 32.2542C91.5255 32.1809 91.327 32.1076 91.1782 32.0099C91.0046 31.9121 90.8806 31.7655 90.7566 31.6189C90.6573 31.4478 90.6077 31.2524 90.6077 31.008C90.6077 30.6171 90.7566 30.275 91.079 30.0062C91.4015 29.7374 91.7983 29.6152 92.2696 29.6152C92.6416 29.6152 92.9889 29.6885 93.2866 29.8596C93.5842 30.0306 93.8075 30.275 93.9563 30.5682L93.2618 30.9592C93.0881 30.5682 92.7409 30.3727 92.2448 30.3727C92.0216 30.3727 91.8231 30.4216 91.6495 30.5438C91.5503 30.6415 91.4511 30.7881 91.4511 30.9836Z" fill="white"/>
<path d="M100.653 34.5024C99.6363 34.5024 98.8178 34.1847 98.1728 33.525C97.5279 32.8896 97.1807 32.0833 97.1807 31.1303C97.1807 30.1774 97.5031 29.371 98.1728 28.7357C98.8178 28.076 99.6363 27.7583 100.653 27.7583C100.951 27.7583 101.249 27.8072 101.521 27.8805C101.794 27.9538 102.067 28.0515 102.315 28.1981C102.563 28.3447 102.786 28.4913 102.985 28.6868C103.183 28.8823 103.357 29.1022 103.506 29.3466L102.737 29.7864C102.538 29.4199 102.266 29.1511 101.893 28.9312C101.521 28.7113 101.1 28.6135 100.653 28.6135C99.8843 28.6135 99.2642 28.8579 98.7929 29.3466C98.3217 29.8353 98.0736 30.4217 98.0736 31.1548C98.0736 31.8878 98.3217 32.4742 98.7929 32.9629C99.2642 33.4516 99.8843 33.696 100.653 33.696C101.1 33.696 101.521 33.5983 101.893 33.3783C102.266 33.1584 102.538 32.8896 102.737 32.5231L103.506 32.9629C103.233 33.4516 102.836 33.8426 102.315 34.1114C101.819 34.3557 101.249 34.5024 100.653 34.5024Z" fill="white"/>
<path d="M108.392 33.7936C107.921 34.2579 107.325 34.5022 106.631 34.5022C105.936 34.5022 105.341 34.2579 104.87 33.7936C104.398 33.3293 104.15 32.7429 104.15 32.0587C104.15 31.3745 104.398 30.7881 104.87 30.3238C105.341 29.8596 105.936 29.6152 106.631 29.6152C107.325 29.6152 107.921 29.8596 108.392 30.3238C108.888 30.8125 109.111 31.3745 109.111 32.0587C109.136 32.7429 108.888 33.3049 108.392 33.7936ZM106.631 33.7203C107.102 33.7203 107.499 33.5493 107.821 33.2316C108.144 32.9139 108.293 32.523 108.293 32.0343C108.293 31.57 108.144 31.1546 107.821 30.837C107.499 30.5193 107.102 30.3483 106.631 30.3483C106.16 30.3483 105.763 30.5193 105.44 30.837C105.118 31.1546 104.969 31.5456 104.969 32.0343C104.969 32.4985 105.118 32.9139 105.44 33.2316C105.787 33.5493 106.184 33.7203 106.631 33.7203Z" fill="white"/>
<path d="M115.213 29.6152C115.486 29.6152 115.709 29.6641 115.933 29.7374C116.156 29.8351 116.33 29.9573 116.503 30.1039C116.652 30.275 116.776 30.4704 116.875 30.6904C116.95 30.9347 116.999 31.1791 116.999 31.4723V34.3556H116.181V31.4967C116.181 31.1302 116.081 30.8614 115.908 30.6659C115.734 30.4705 115.461 30.3727 115.139 30.3727C114.792 30.3727 114.494 30.4949 114.296 30.7148C114.097 30.9347 113.973 31.3012 113.973 31.7899V34.38H113.155V31.5212C113.155 31.1546 113.055 30.8858 112.882 30.6904C112.708 30.4949 112.46 30.3971 112.162 30.3971C111.815 30.3971 111.518 30.5193 111.294 30.7392C111.071 30.9836 110.947 31.3257 110.947 31.7899V34.38H110.128V29.7374H110.947V30.3727C111.269 29.8596 111.741 29.6152 112.361 29.6152C113.006 29.6152 113.452 29.884 113.75 30.3971C114.048 29.8596 114.544 29.6152 115.213 29.6152Z" fill="white"/>
<path d="M118.686 32.4253C118.761 32.8407 118.959 33.1583 119.257 33.4027C119.554 33.6226 119.926 33.7448 120.398 33.7448C121.018 33.7448 121.464 33.5248 121.762 33.0606L122.456 33.4515C121.985 34.1602 121.291 34.5023 120.373 34.5023C119.629 34.5023 119.009 34.2823 118.537 33.8181C118.066 33.3538 117.843 32.7674 117.843 32.0588C117.843 31.3501 118.066 30.7637 118.537 30.2994C119.009 29.8352 119.579 29.5908 120.323 29.5908C121.018 29.5908 121.588 29.8352 122.01 30.3239C122.456 30.7881 122.68 31.3746 122.68 32.0588C122.68 32.1809 122.68 32.3031 122.655 32.4253H118.686ZM120.323 30.3727C119.877 30.3727 119.529 30.4949 119.232 30.7393C118.934 30.9836 118.761 31.3013 118.686 31.7167H121.836C121.762 31.2768 121.588 30.9348 121.315 30.7148C121.043 30.4949 120.695 30.3727 120.323 30.3727Z" fill="white"/>
<path d="M124.143 30.9836C124.143 31.1546 124.242 31.3012 124.416 31.4234C124.589 31.5212 124.813 31.6189 125.085 31.6922C125.259 31.7411 125.458 31.7899 125.656 31.8388C125.854 31.9121 126.053 31.9854 126.202 32.0832C126.375 32.1809 126.499 32.3275 126.623 32.4986C126.723 32.6696 126.772 32.8651 126.772 33.1094C126.772 33.5248 126.599 33.8669 126.276 34.1113C125.954 34.3556 125.532 34.5022 125.011 34.5022C124.54 34.5022 124.168 34.4045 123.821 34.209C123.473 34.0135 123.25 33.7447 123.126 33.4026L123.845 33.0117C123.92 33.2316 124.069 33.4026 124.267 33.5493C124.465 33.6714 124.713 33.7447 125.011 33.7447C125.284 33.7447 125.507 33.6959 125.681 33.5981C125.854 33.5004 125.954 33.3293 125.954 33.1094C125.954 32.9384 125.854 32.7918 125.681 32.6696C125.507 32.5719 125.284 32.4741 125.011 32.4253C124.813 32.3764 124.639 32.3275 124.416 32.2542C124.217 32.1809 124.019 32.1076 123.87 32.0099C123.721 31.9121 123.572 31.7655 123.448 31.6189C123.349 31.4478 123.3 31.2524 123.3 31.008C123.3 30.6171 123.448 30.275 123.771 30.0062C124.093 29.7374 124.49 29.6152 124.961 29.6152C125.334 29.6152 125.681 29.6885 125.978 29.8596C126.276 30.0306 126.499 30.275 126.648 30.5682L125.954 30.9592C125.78 30.5682 125.433 30.3727 124.937 30.3727C124.713 30.3727 124.515 30.4216 124.341 30.5438C124.217 30.6415 124.143 30.7881 124.143 30.9836Z" fill="white"/>
<path d="M134.015 28.6867H131.088V30.7881H133.891V31.5945H131.088V34.3556H130.22V27.856H134.015V28.6867Z" fill="white"/>
<path d="M135.801 30.5193C136.074 29.9328 136.57 29.6641 137.265 29.6641V30.5193C136.868 30.4949 136.521 30.617 136.223 30.837C135.925 31.0569 135.777 31.4234 135.777 31.9365V34.4044H134.958V29.7618H135.777V30.5193H135.801Z" fill="white"/>
<path d="M142.076 33.7936C141.605 34.2579 141.01 34.5022 140.315 34.5022C139.621 34.5022 139.026 34.2579 138.554 33.7936C138.083 33.3293 137.835 32.7429 137.835 32.0587C137.835 31.3745 138.083 30.7881 138.554 30.3238C139.026 29.8596 139.621 29.6152 140.315 29.6152C141.01 29.6152 141.605 29.8596 142.076 30.3238C142.573 30.8125 142.796 31.3745 142.796 32.0587C142.796 32.7429 142.548 33.3049 142.076 33.7936ZM140.315 33.7203C140.787 33.7203 141.184 33.5493 141.506 33.2316C141.828 32.9139 141.977 32.523 141.977 32.0343C141.977 31.57 141.828 31.1546 141.506 30.837C141.184 30.5193 140.787 30.3483 140.315 30.3483C139.844 30.3483 139.447 30.5193 139.125 30.837C138.802 31.1546 138.653 31.5456 138.653 32.0343C138.653 32.4985 138.802 32.9139 139.125 33.2316C139.447 33.5493 139.844 33.7203 140.315 33.7203Z" fill="white"/>
<path d="M148.873 29.6152C149.146 29.6152 149.369 29.6641 149.592 29.7374C149.816 29.8351 149.989 29.9573 150.163 30.1039C150.312 30.275 150.436 30.4704 150.535 30.6904C150.609 30.9347 150.659 31.1791 150.659 31.4723V34.3556H149.84V31.4967C149.84 31.1302 149.741 30.8614 149.567 30.6659C149.394 30.4705 149.121 30.3727 148.799 30.3727C148.451 30.3727 148.154 30.4949 147.955 30.7148C147.757 30.9347 147.633 31.3012 147.633 31.7899V34.38H146.814V31.5212C146.814 31.1546 146.715 30.8858 146.541 30.6904C146.368 30.4949 146.12 30.3971 145.822 30.3971C145.475 30.3971 145.177 30.5193 144.954 30.7392C144.731 30.9836 144.607 31.3257 144.607 31.7899V34.38H143.788V29.7374H144.607V30.3727C144.929 29.8596 145.4 29.6152 146.02 29.6152C146.665 29.6152 147.112 29.884 147.409 30.3971C147.707 29.8596 148.203 29.6152 148.873 29.6152Z" fill="white"/>
<path d="M158.472 27.856V28.6623H156.513V34.3556H155.645V28.6623H153.71V27.856H158.472Z" fill="white"/>
<path d="M161.597 29.6152C161.87 29.6152 162.118 29.6641 162.342 29.7618C162.565 29.8596 162.763 29.9817 162.912 30.1528C163.061 30.3238 163.185 30.5193 163.284 30.7637C163.383 31.008 163.408 31.2768 163.408 31.57V34.4289H162.59V31.6189C162.59 31.2524 162.49 30.9591 162.267 30.7392C162.069 30.5438 161.771 30.4216 161.399 30.4216C161.002 30.4216 160.655 30.5438 160.407 30.7881C160.159 31.0325 160.035 31.4234 160.035 31.9366V34.4045H159.216V27.9048H160.035V30.446C160.382 29.8596 160.903 29.6152 161.597 29.6152Z" fill="white"/>
<path d="M165.145 32.4253C165.219 32.8407 165.417 33.1583 165.715 33.4027C166.013 33.6226 166.385 33.7448 166.856 33.7448C167.476 33.7448 167.923 33.5248 168.22 33.0606L168.915 33.4515C168.444 34.1602 167.749 34.5023 166.831 34.5023C166.087 34.5023 165.467 34.2823 164.996 33.8181C164.525 33.3538 164.301 32.7674 164.301 32.0588C164.301 31.3501 164.525 30.7637 164.996 30.2994C165.467 29.8352 166.038 29.5908 166.782 29.5908C167.476 29.5908 168.047 29.8352 168.468 30.3239C168.915 30.7881 169.138 31.3746 169.138 32.0588C169.138 32.1809 169.138 32.3031 169.113 32.4253H165.145ZM166.782 30.3727C166.335 30.3727 165.988 30.4949 165.69 30.7393C165.393 30.9836 165.219 31.3013 165.145 31.7167H168.295C168.22 31.2768 168.047 30.9348 167.774 30.7148C167.476 30.4949 167.154 30.3727 166.782 30.3727Z" fill="white"/>
<path d="M174.644 34.5022C174.024 34.5022 173.503 34.3555 173.057 34.0868C172.61 33.818 172.313 33.427 172.139 32.9139L172.883 32.474C173.131 33.256 173.727 33.6469 174.644 33.6469C175.091 33.6469 175.438 33.5492 175.686 33.3781C175.934 33.2071 176.033 32.9627 176.033 32.6451C176.033 32.3519 175.909 32.1075 175.686 31.9365C175.562 31.8632 175.413 31.7654 175.215 31.6921C175.017 31.6188 174.768 31.5211 174.496 31.4478L173.851 31.2523C173.702 31.2034 173.528 31.1057 173.305 31.0079C173.082 30.8858 172.933 30.788 172.834 30.6659C172.734 30.5437 172.635 30.3971 172.536 30.2016C172.462 30.0061 172.412 29.8106 172.412 29.5663C172.412 29.0043 172.61 28.54 173.007 28.2224C173.404 27.8803 173.9 27.7092 174.471 27.7092C174.992 27.7092 175.463 27.8314 175.835 28.1002C176.207 28.369 176.505 28.7111 176.703 29.1265L175.959 29.5418C175.686 28.8821 175.165 28.54 174.446 28.54C174.099 28.54 173.801 28.6378 173.578 28.8088C173.355 28.9798 173.255 29.2242 173.255 29.5174C173.255 29.8106 173.355 30.0306 173.578 30.1772C173.801 30.3238 174.148 30.4948 174.644 30.6414L175.041 30.7636C175.091 30.788 175.116 30.788 175.19 30.8125C175.24 30.8369 175.314 30.8613 175.389 30.8858C175.463 30.9102 175.537 30.9347 175.587 30.9591C175.637 30.9835 175.686 31.008 175.736 31.0324C175.785 31.0568 175.835 31.0813 175.885 31.1057C175.934 31.1301 175.984 31.1546 176.058 31.2034C176.182 31.2767 176.281 31.3256 176.356 31.3989C176.43 31.4722 176.505 31.5455 176.579 31.6433C176.703 31.7654 176.778 31.912 176.827 32.0587C176.877 32.2297 176.902 32.4007 176.902 32.6207C176.902 33.1827 176.678 33.6469 176.257 33.989C175.885 34.3311 175.314 34.5022 174.644 34.5022Z" fill="white"/>
<path d="M178.291 29.1508C178.142 29.1508 177.993 29.102 177.894 29.0042C177.795 28.9065 177.745 28.7599 177.745 28.6133C177.745 28.4667 177.795 28.3445 177.894 28.2223C177.993 28.1246 178.142 28.0513 178.291 28.0513C178.44 28.0513 178.564 28.1001 178.688 28.2223C178.787 28.3201 178.836 28.4667 178.836 28.6133C178.836 28.7599 178.787 28.8821 178.688 29.0042C178.588 29.102 178.464 29.1508 178.291 29.1508ZM177.894 34.3799V29.7373H178.712V34.3799H177.894Z" fill="white"/>
<path d="M185.062 29.6152C185.335 29.6152 185.558 29.6641 185.782 29.7374C186.005 29.8351 186.179 29.9573 186.352 30.1039C186.501 30.275 186.625 30.4704 186.724 30.6904C186.799 30.9347 186.848 31.1791 186.848 31.4723V34.3556H186.03V31.4967C186.03 31.1302 185.931 30.8614 185.757 30.6659C185.583 30.4705 185.31 30.3727 184.988 30.3727C184.641 30.3727 184.343 30.4949 184.145 30.7148C183.946 30.9347 183.822 31.3012 183.822 31.7899V34.38H183.004V31.5212C183.004 31.1546 182.904 30.8858 182.731 30.6904C182.557 30.4949 182.309 30.3971 182.011 30.3971C181.664 30.3971 181.367 30.5193 181.143 30.7392C180.92 30.9836 180.796 31.3257 180.796 31.7899V34.38H179.978V29.7374H180.796V30.3727C181.119 29.8596 181.59 29.6152 182.21 29.6152C182.855 29.6152 183.301 29.884 183.599 30.3971C183.897 29.8596 184.393 29.6152 185.062 29.6152Z" fill="white"/>
<path d="M190.594 29.6152C191.263 29.6152 191.809 29.8596 192.28 30.3238C192.752 30.8125 192.975 31.3746 192.975 32.0587C192.975 32.7429 192.752 33.3293 192.28 33.7936C191.809 34.2579 191.263 34.5022 190.594 34.5022C189.8 34.5022 189.205 34.1846 188.808 33.5737V36.2371H187.989V29.7374H188.808V30.5438C189.205 29.9085 189.8 29.6152 190.594 29.6152ZM190.47 33.7203C190.941 33.7203 191.338 33.5737 191.66 33.256C191.983 32.9384 192.132 32.5474 192.132 32.0587C192.132 31.5945 191.983 31.2035 191.66 30.8858C191.338 30.5682 190.941 30.3971 190.47 30.3971C189.998 30.3971 189.602 30.5682 189.279 30.8858C188.957 31.2035 188.808 31.5945 188.808 32.0587C188.808 32.523 188.957 32.9384 189.279 33.256C189.602 33.5493 189.998 33.7203 190.47 33.7203Z" fill="white"/>
<path d="M193.942 34.3801V27.5872H194.761V34.3801H193.942Z" fill="white"/>
<path d="M196.596 32.4253C196.671 32.8407 196.869 33.1583 197.167 33.4027C197.464 33.6226 197.836 33.7448 198.308 33.7448C198.928 33.7448 199.374 33.5248 199.672 33.0606L200.367 33.4515C199.895 34.1602 199.201 34.5023 198.283 34.5023C197.539 34.5023 196.919 34.2823 196.447 33.8181C195.976 33.3538 195.753 32.7674 195.753 32.0588C195.753 31.3501 195.976 30.7637 196.447 30.2994C196.919 29.8352 197.489 29.5908 198.233 29.5908C198.928 29.5908 199.498 29.8352 199.92 30.3239C200.366 30.7881 200.59 31.3746 200.59 32.0588C200.59 32.1809 200.59 32.3031 200.565 32.4253H196.596ZM198.233 30.3727C197.787 30.3727 197.44 30.4949 197.142 30.7393C196.844 30.9836 196.671 31.3013 196.596 31.7167H199.746C199.672 31.2768 199.498 30.9348 199.226 30.7148C198.953 30.4949 198.605 30.3727 198.233 30.3727Z" fill="white"/>
<path d="M208.23 27.856V28.6623H206.27V34.3556H205.402V28.6623H203.467V27.856H208.23Z" fill="white"/>
<path d="M211.355 29.6152C211.628 29.6152 211.876 29.6641 212.099 29.7618C212.322 29.8596 212.521 29.9817 212.67 30.1528C212.818 30.3238 212.942 30.5193 213.042 30.7637C213.141 31.008 213.166 31.2768 213.166 31.57V34.4289H212.347V31.6189C212.347 31.2524 212.248 30.9591 212.025 30.7392C211.826 30.5438 211.528 30.4216 211.156 30.4216C210.76 30.4216 210.412 30.5438 210.164 30.7881C209.916 31.0325 209.792 31.4234 209.792 31.9366V34.4045H208.974V27.9048H209.792V30.446C210.139 29.8596 210.66 29.6152 211.355 29.6152Z" fill="white"/>
<path d="M214.728 29.1508C214.58 29.1508 214.431 29.102 214.331 29.0042C214.232 28.9065 214.183 28.7599 214.183 28.6133C214.183 28.4667 214.232 28.3445 214.331 28.2223C214.431 28.1246 214.58 28.0513 214.728 28.0513C214.877 28.0513 215.001 28.1001 215.125 28.2223C215.224 28.3201 215.274 28.4667 215.274 28.6133C215.274 28.7599 215.224 28.8821 215.125 29.0042C215.001 29.102 214.877 29.1508 214.728 29.1508ZM214.307 34.3799V29.7373H215.125V34.3799H214.307Z" fill="white"/>
<path d="M218.747 29.6152C219.02 29.6152 219.268 29.6641 219.491 29.7618C219.714 29.8596 219.913 29.9817 220.062 30.1528C220.21 30.3238 220.334 30.5193 220.434 30.7637C220.533 31.008 220.558 31.2768 220.558 31.57V34.4289H219.739V31.6189C219.739 31.2524 219.64 30.9592 219.417 30.7392C219.218 30.5438 218.921 30.4216 218.549 30.4216C218.152 30.4216 217.804 30.5438 217.556 30.7881C217.308 31.0325 217.184 31.4234 217.184 31.9366V34.4045H216.366V29.7618H217.184V30.4216C217.532 29.8596 218.052 29.6152 218.747 29.6152Z" fill="white"/>
<path d="M225.643 29.7374H226.461V34.1846C226.461 34.8687 226.213 35.4063 225.742 35.7728C225.271 36.1638 224.7 36.3593 224.03 36.3593C223.485 36.3593 223.038 36.2615 222.666 36.066C222.294 35.8706 221.996 35.6018 221.798 35.2108L222.517 34.8199C222.765 35.333 223.286 35.6018 224.055 35.6018C224.551 35.6018 224.923 35.4796 225.221 35.2353C225.494 34.9909 225.643 34.6244 225.643 34.1846V33.5248C225.221 34.1357 224.626 34.4533 223.857 34.4533C223.187 34.4533 222.617 34.209 222.145 33.7447C221.674 33.256 221.451 32.694 221.451 32.0343C221.451 31.3745 221.674 30.7881 222.145 30.3238C222.617 29.8596 223.162 29.6152 223.857 29.6152C224.626 29.6152 225.221 29.9329 225.643 30.5438V29.7374ZM225.643 32.0343C225.643 31.57 225.494 31.1791 225.171 30.8614C224.849 30.5438 224.452 30.3971 223.981 30.3971C223.509 30.3971 223.113 30.5438 222.79 30.8614C222.468 31.1791 222.319 31.57 222.319 32.0343C222.319 32.4985 222.468 32.8895 222.79 33.2072C223.113 33.5248 223.509 33.6714 223.981 33.6714C224.452 33.6714 224.849 33.5248 225.171 33.2072C225.469 32.8895 225.643 32.4985 225.643 32.0343Z" fill="white"/>
<path d="M228.371 30.9836C228.371 31.1546 228.47 31.3012 228.644 31.4234C228.817 31.5212 229.041 31.6189 229.314 31.6922C229.487 31.7411 229.686 31.7899 229.884 31.8388C230.082 31.9121 230.281 31.9854 230.43 32.0832C230.603 32.1809 230.727 32.3275 230.851 32.4986C230.951 32.6696 231 32.8651 231 33.1094C231 33.5248 230.827 33.8669 230.504 34.1113C230.182 34.3556 229.76 34.5022 229.239 34.5022C228.768 34.5022 228.396 34.4045 228.049 34.209C227.701 34.0135 227.478 33.7447 227.354 33.4026L228.073 33.0117C228.148 33.2316 228.297 33.4026 228.495 33.5493C228.693 33.6714 228.942 33.7447 229.239 33.7447C229.512 33.7447 229.735 33.6959 229.909 33.5981C230.082 33.5004 230.182 33.3293 230.182 33.1094C230.182 32.9384 230.082 32.7918 229.909 32.6696C229.735 32.5474 229.512 32.4741 229.239 32.4253C229.041 32.3764 228.867 32.3275 228.644 32.2542C228.445 32.1809 228.247 32.1076 228.098 32.0099C227.949 31.9121 227.8 31.7655 227.676 31.6189C227.577 31.4478 227.528 31.2524 227.528 31.008C227.528 30.6171 227.676 30.275 227.999 30.0062C228.321 29.7374 228.718 29.6152 229.19 29.6152C229.562 29.6152 229.909 29.6885 230.207 29.8596C230.504 30.0306 230.727 30.275 230.876 30.5682L230.182 30.9592C230.008 30.5682 229.661 30.3727 229.165 30.3727C228.941 30.3727 228.743 30.4216 228.569 30.5438C228.47 30.6415 228.371 30.7881 228.371 30.9836Z" fill="white"/>
</svg>
