<svg width="46" height="47" viewBox="0 0 46 47" fill="none" xmlns="http://www.w3.org/2000/svg">
<path d="M23 2.22382C22.2551 2.22382 21.6523 2.82658 21.6523 3.57147V7.61444C21.6523 8.35934 22.2551 8.9621 23 8.9621C23.7449 8.9621 24.3477 8.35934 24.3477 7.61444V3.57147C24.3477 2.82658 23.7449 2.22382 23 2.22382Z" fill="#178EA8"/>
<path d="M15.8669 10.7045L13.1716 8.00924C12.6451 7.48284 11.7923 7.48284 11.2659 8.00924C10.7395 8.53563 10.7395 9.38852 11.2659 9.91491L13.9612 12.6102C14.4876 13.1366 15.3405 13.1366 15.8669 12.6102C16.3933 12.0838 16.3933 11.2309 15.8669 10.7045Z" fill="#178EA8"/>
<path d="M34.7341 8.00924C34.2077 7.48284 33.3548 7.48284 32.8284 8.00924L30.1331 10.7045C29.6067 11.2309 29.6067 12.0838 30.1331 12.6102C30.6595 13.1366 31.5124 13.1366 32.0387 12.6102L34.7341 9.91491C35.2604 9.38852 35.2604 8.53563 34.7341 8.00924Z" fill="#178EA8"/>
<path d="M44.6523 21.091H40.5195V39.9582H44.6523C45.3972 39.9582 46 39.3554 46 38.6105V22.4387C46 21.6938 45.3972 21.091 44.6523 21.091Z" fill="#59C8E0"/>
<path d="M1.34766 21.091C0.602762 21.091 0 21.6938 0 22.4387V38.6105C0 39.3554 0.602762 39.9582 1.34766 39.9582H5.48047V21.091H1.34766Z" fill="#59C8E0"/>
<path d="M21.9707 22.4387C20.9428 22.4387 20.019 23.0098 19.5597 23.9284L15.4575 32.1354C16.1445 32.4367 16.8709 32.5895 17.6132 32.5895C19.665 32.5895 21.5115 31.4459 22.4314 29.6033L23.3184 27.8293H25.9268C26.6362 27.8293 27.3311 28.1175 27.8325 28.6189L37.8241 38.6105V22.4387H21.9707Z" fill="#59C8E0"/>
<path d="M25.9269 30.5246H24.9846L24.9068 30.6804C23.6338 33.2262 21.1513 35.0236 18.3143 35.2555C16.2269 35.4263 14.7803 34.8258 13.065 34.0456C12.3674 33.7285 12.0639 32.8951 12.4066 32.2096L17.1481 22.7242C18.0613 20.8973 19.9285 19.7433 21.9708 19.7433H27.7867C28.16 18.9165 28.3906 18.0138 28.3906 17.048C28.3906 16.3031 27.7879 15.7003 27.043 15.7003H16.5802C15.0485 15.7003 13.6483 16.5656 12.9633 17.9356L11.7583 20.3457C11.5299 20.8024 11.0633 21.0909 10.5526 21.0909H8.17578V39.9581H14.356L18.174 43.776C19.2806 44.8827 20.8747 45.2321 22.2498 44.7723L33.7589 41.1544C34.4467 40.9608 35.0266 40.5824 35.4995 40.0971L25.9269 30.5246Z" fill="#59C8E0"/>
</svg>
