<svg width="368" height="64" viewBox="0 0 368 64" fill="none" xmlns="http://www.w3.org/2000/svg">
<path fill-rule="evenodd" clip-rule="evenodd" d="M33.0663 15.4334C30.8932 7.69709 22.7539 6.48587 16.116 9.14277C8.72748 12.0732 2.56376 20.3174 0.98332 27.8973C-0.834186 36.6495 2.32669 47.4724 9.47819 53.1769C13.8639 56.6934 20.3832 55.951 23.7021 52.5518C18.2496 55.0524 14.7331 53.5286 11.1772 50.5201C5.17149 45.5188 2.52425 36.0243 4.06518 28.5616C5.44806 21.9975 10.9006 14.6129 17.3014 12.0732C22.7144 9.92421 28.3249 10.8619 30.8932 16.5274C32.197 19.3797 32.5131 22.9743 31.6043 26.2172C33.5404 23.5604 34.1331 19.1843 33.0663 15.4334ZM66.137 47.9413C67.4408 53.2551 64.2009 58.3735 59.183 59.8192C52.5057 61.6947 44.7615 60.3271 39.0324 56.5762C43.9318 62.398 52.6242 65.2111 60.0523 62.7496C66.3345 60.6397 69.2979 53.763 66.137 47.9413ZM69.2188 27.9364C67.6384 20.3174 61.4747 12.1122 54.0861 9.18183C47.4483 6.52493 39.309 7.73618 37.1359 15.4724C36.0691 19.2234 36.6618 23.5604 38.5978 26.2172C37.6495 22.9743 38.0051 19.3797 39.309 16.5274C41.8772 10.901 47.4483 9.92421 52.9008 12.0732C59.3016 14.6129 64.7541 21.9975 66.137 28.5616C67.7174 36.0634 65.0702 45.5188 59.0645 50.5591C55.469 53.5677 51.992 55.0915 46.5395 52.5909C49.8189 55.9901 56.3382 56.7325 60.7635 53.216C67.8755 47.4724 71.0363 36.6885 69.2188 27.9364ZM35.1208 0.390625C31.1302 0.390625 27.1791 2.69587 25.3616 7.22823C28.483 4.72762 31.8019 3.51639 35.1208 3.51639C38.4398 3.51639 41.7192 4.76669 44.88 7.22823C43.023 2.6568 39.0719 0.390625 35.1208 0.390625ZM11.0191 59.8192C5.96171 58.3735 2.76132 53.216 4.06518 47.9413C0.904298 53.8021 3.86762 60.6788 10.1894 62.7496C17.5779 65.2111 26.2704 62.398 31.2092 56.5762C25.4801 60.3271 17.6965 61.6947 11.0191 59.8192Z" fill="#6BBDDD"/>
<path d="M54.481 64C48.6334 64 42.5882 61.3822 38.7556 56.8107L37.1752 54.8962L39.2693 56.2637C45.0774 60.0537 52.703 61.304 59.1433 59.4676C64.1217 58.022 67.0455 52.9817 65.8602 48.0195C64.5168 50.1294 62.8968 52.0049 61.0003 53.5287C56.2985 57.3187 49.5816 56.2637 46.3022 52.8645L44.9588 51.497L46.7368 52.3175C51.9918 54.7399 55.3898 53.2552 58.8667 50.3248C64.5168 45.558 67.4801 36.4542 65.8207 28.6789C64.3983 21.8022 58.7877 14.8474 52.8215 12.4249C48.2383 10.6276 42.3906 10.7448 39.7039 16.6838C38.4 19.5751 38.1234 23.0916 38.9927 26.1392L39.5458 28.0928L38.321 26.4518C36.3059 23.7558 35.7133 19.3016 36.7801 15.3944C37.6493 12.3468 39.4668 10.0806 42.1141 8.79121C42.9833 8.36141 43.9711 8.04885 44.9588 7.85349L44.6032 7.57998C38.479 2.73505 31.6436 2.73505 25.5194 7.57998L25.1638 7.85349C26.1911 8.04885 27.1394 8.36141 28.0481 8.79121C30.6954 10.0806 32.5129 12.3858 33.3821 15.3944C34.4489 19.3016 33.8563 23.7558 31.8412 26.4518L30.6559 28.0537L31.209 26.1392C32.0783 23.0916 31.8017 19.5751 30.4978 16.6838C27.8111 10.7448 21.9634 10.5885 17.3802 12.4249C11.414 14.8083 5.80344 21.8022 4.38104 28.6789C2.76109 36.4542 5.68491 45.558 11.335 50.3248C14.8119 53.2552 18.2099 54.7008 23.4649 52.3175L25.2429 51.497L23.8995 52.8645C20.6201 56.2247 13.9032 57.2796 9.20139 53.5287C7.34437 52.0439 5.68491 50.1685 4.34153 48.0195C3.1562 53.0208 6.08002 58.022 11.0584 59.4676C17.5382 61.2649 25.1243 60.0537 30.9324 56.2637L33.0265 54.8962L31.4066 56.8107C26.2701 62.8669 17.3011 65.5238 9.99161 63.1013C6.79121 62.0464 4.30202 59.7411 3.07718 56.7717C1.89185 53.8413 2.0894 50.6374 3.63033 47.7851L3.8674 47.3162C0.548476 41.6508 -0.834409 34.4225 0.508965 27.8974C2.36598 19.6923 8.80628 11.6826 15.9973 8.83029C18.9606 7.65813 22.0425 7.30647 24.7687 7.69719L25.0058 7.07205C26.7443 2.69598 30.6164 0 35.1206 0C39.5854 0 43.4574 2.69598 45.2354 7.07205L45.4725 7.69719C48.1988 7.2674 51.2806 7.65813 54.2439 8.83029C61.4349 11.6826 67.8752 19.6923 69.6137 27.8584C70.9966 34.3834 69.6137 41.6508 66.2553 47.2772L66.4923 47.746C68.0333 50.5983 68.2308 53.8022 67.0455 56.7326C65.8602 59.7021 63.3315 62.0073 60.1706 63.0623C58.3531 63.6874 56.417 64 54.481 64ZM41.1263 58.1783C46.1837 62.6715 53.7303 64.4298 59.9335 62.398C62.8968 61.4212 65.2675 59.2332 66.3738 56.4591C67.1245 54.5446 67.2826 52.5519 66.8084 50.5983C66.6504 54.9353 63.7266 58.8816 59.3013 60.1319C53.4537 61.812 46.7368 61.0305 41.1263 58.1783ZM3.43278 50.5983C2.95865 52.5519 3.11669 54.5836 3.8674 56.4982C4.97371 59.2723 7.34437 61.4212 10.3077 62.4371C16.5109 64.4689 24.018 62.7106 29.0754 58.2173C23.4649 61.0696 16.748 61.8119 10.9004 60.1709C6.51464 58.8815 3.55131 54.9743 3.43278 50.5983ZM48.6334 53.7631C51.9523 55.6777 56.8517 55.8339 60.4867 52.9035C62.4622 51.3016 64.1612 49.2698 65.5441 46.9646L65.1095 45.2063L65.8207 46.4957C68.9025 41.0647 70.1669 34.149 68.863 27.9756C67.2035 20.044 60.9213 12.2686 53.9674 9.45544C49.8977 7.85348 45.591 7.81441 42.4697 9.33822C39.9805 10.5495 38.321 12.6203 37.5308 15.5116C36.7406 18.3248 36.8591 21.4505 37.8469 23.9121C37.5703 21.3333 37.9654 18.6374 39.0322 16.293C41.4424 10.9402 46.8554 9.18195 53.0981 11.6435C59.3013 14.105 65.07 21.3333 66.5319 28.4054C68.2308 36.4542 65.1885 45.8315 59.3013 50.7546C56.101 53.4896 53.0191 55.0134 48.6334 53.7631ZM4.65762 47.0037C6.04051 49.3089 7.73948 51.3406 9.71503 52.9426C13.35 55.873 18.2494 55.7167 21.5683 53.8022C17.1826 55.0525 14.1008 53.5287 10.9399 50.8718C5.09224 45.9096 2.04989 36.4933 3.70936 28.4835C5.17126 21.4115 10.9794 14.1831 17.1431 11.7216C23.3858 9.26007 28.7593 11.0183 31.209 16.3712C32.2758 18.6764 32.6709 21.4115 32.3943 23.9902C33.3426 21.5287 33.5007 18.4029 32.7104 15.5897C31.9202 12.6984 30.2212 10.6276 27.7716 9.41637C24.6107 7.89256 20.304 7.93163 16.2739 9.53358C9.31992 12.3077 3.03767 20.083 1.37821 28.0537C0.0743438 34.2662 1.3387 41.1428 4.42055 46.5739L5.09224 45.2845L4.65762 47.0037ZM35.1206 3.12576C38.1234 3.12576 41.0868 4.10256 43.9316 6.05616C42.0745 2.73504 38.8346 0.742378 35.1206 0.742378C31.4066 0.742378 28.1272 2.77413 26.3097 6.09525C29.1149 4.14165 32.0783 3.12576 35.1206 3.12576Z" fill="#6BBDDD"/>
<path fill-rule="evenodd" clip-rule="evenodd" d="M31.7233 46.5348C31.4072 46.3004 28.2068 43.8779 28.6019 40.2442C28.681 39.5409 29.0366 39.072 29.3131 38.486C29.5107 38.0562 29.1946 37.5873 28.76 37.8999C28.4044 38.1734 28.2068 38.6813 28.1278 39.072C27.8907 40.127 28.0488 41.2992 28.3649 42.315C28.918 43.9951 29.9058 45.4408 31.7628 46.6911L31.7233 46.5348Z" fill="#6BBDDD"/>
<path fill-rule="evenodd" clip-rule="evenodd" d="M32.592 48.1757C29.2335 47.0817 23.6625 44.503 21.3313 38.564C20.6992 36.9621 20.9757 35.5555 20.8967 33.9535C20.8572 32.8204 19.6324 32.0781 19.0397 33.2111C18.5261 34.1879 18.6841 35.5164 18.9607 36.5323C19.6324 39.0329 21.2523 41.4944 23.1093 43.3308C25.559 45.7923 28.4828 47.5897 32.3154 48.5665C34.8441 49.2307 35.5158 49.3088 38.084 48.7227C42.1931 47.785 45.275 45.9486 47.8432 43.3308C49.7002 41.4944 51.3202 39.0719 51.9919 36.5323C52.2685 35.5164 52.4265 34.1879 51.9129 33.2111C51.3202 32.0781 50.0953 32.8204 50.0558 33.9535C49.9768 35.5555 50.2534 36.9621 49.6212 38.564C47.1715 44.7374 41.2449 47.3162 37.926 48.293C35.5158 49.0744 35.0417 48.9572 32.592 48.1757Z" fill="#6BBDDD"/>
<path fill-rule="evenodd" clip-rule="evenodd" d="M23.3065 34.696C24.5314 30.4372 27.4552 28.7571 30.4975 29.1869C31.2483 29.3041 32.1175 29.6167 32.6311 30.3981C32.9077 30.7888 32.9472 31.4531 32.5521 31.8047C31.999 32.2736 31.1692 31.8438 31.2087 31.0623C31.2087 30.867 31.3668 30.5935 31.2878 30.3981C31.1297 29.9683 30.6161 29.812 30.221 29.7339C29.5888 29.5776 28.9171 29.6167 28.2849 29.812C27.0206 30.2028 26.0328 31.1795 25.3611 32.2345C24.6499 33.3676 23.9387 35.0086 24.3733 36.3761C25.5982 33.3285 29.3122 34.3444 29.5888 37.2357C28.8776 36.1417 27.7713 36.6106 27.2576 37.5874C26.7045 38.6032 26.9416 40.0098 27.2181 41.0648C27.9688 43.917 30.0629 46.6912 32.9472 47.707C33.2633 47.8242 33.3028 48.0978 33.0658 47.9805C24.6499 44.7376 22.2793 38.1735 23.3065 34.696Z" fill="#6BBDDD"/>
<path fill-rule="evenodd" clip-rule="evenodd" d="M39.27 46.5348C39.5861 46.3004 42.7865 43.8779 42.3913 40.2442C42.3123 39.5409 41.9567 39.072 41.6801 38.486C41.4826 38.0562 41.7987 37.5873 42.2333 37.8999C42.5889 38.1734 42.7865 38.6813 42.8655 39.072C43.1025 40.127 42.9445 41.2992 42.6284 42.315C42.0753 43.9951 41.0875 45.4408 39.2305 46.6911L39.27 46.5348Z" fill="#6BBDDD"/>
<path fill-rule="evenodd" clip-rule="evenodd" d="M47.7246 34.696C46.4998 30.4372 43.576 28.7571 40.5336 29.1869C39.7829 29.3041 38.9137 29.6167 38.4 30.3981C38.1234 30.7888 38.0839 31.4531 38.479 31.8047C39.0322 32.2736 39.8619 31.8438 39.8224 31.0623C39.8224 30.867 39.6644 30.5935 39.7434 30.3981C39.9014 29.9683 40.4151 29.812 40.8102 29.7339C41.4424 29.5776 42.114 29.6167 42.7462 29.812C44.0106 30.2028 44.9983 31.1795 45.67 32.2345C46.3812 33.3676 47.0924 35.0086 46.6578 36.3761C45.433 33.3285 41.7189 34.3444 41.4424 37.2357C42.1536 36.1417 43.2599 36.6106 43.7735 37.5874C44.3267 38.6032 44.0896 40.0098 43.813 41.0648C43.0623 43.917 40.9682 46.6912 38.0839 47.707C37.7678 47.8242 37.7283 48.0978 37.9654 47.9805C46.3417 44.7376 48.7124 38.1735 47.7246 34.696Z" fill="#6BBDDD"/>
<path fill-rule="evenodd" clip-rule="evenodd" d="M33.422 52.7473C32.3552 52.0831 31.9996 51.6143 32.1182 51.2626C32.2367 50.7156 33.3825 50.4421 34.5283 50.2468C32.6318 50.1295 31.6045 50.403 31.2094 50.95C30.6563 51.6533 31.407 52.7864 32.8294 53.6851C33.6591 54.193 34.5678 54.4665 35.5161 54.4665C36.4249 54.4665 37.3336 54.2321 38.2029 53.6851C39.6253 52.8255 40.376 51.6924 39.8228 50.95C39.4277 50.4421 38.4004 50.1295 36.5039 50.2468C37.6497 50.4421 38.7955 50.7156 38.9141 51.2626C38.9931 51.6143 38.677 52.1222 37.6102 52.7473C36.978 53.1381 36.2668 53.3334 35.5556 53.3334C34.8049 53.3334 34.0937 53.1381 33.422 52.7473Z" fill="#6BBDDD"/>
<path d="M35.516 54.7401C34.5283 54.7401 33.5405 54.4666 32.6712 53.9196C31.5649 53.2553 30.8932 52.4348 30.7352 51.7315C30.6562 51.3799 30.7352 51.0283 30.9723 50.7157C31.4859 50.0514 32.7107 49.7779 34.5678 49.8951L35.516 49.9733L36.4643 49.8951C38.3608 49.7779 39.5462 50.0514 40.0598 50.7157C40.2969 50.9892 40.3364 51.3408 40.2969 51.7315C40.1388 52.4739 39.4671 53.2553 38.3608 53.9196C37.4916 54.4275 36.5038 54.7401 35.516 54.7401ZM32.0391 50.7157C31.6835 50.8329 31.5254 50.9892 31.4464 51.0673C31.3279 51.2236 31.3279 51.3799 31.3279 51.5752C31.4464 52.1222 32.0391 52.7865 32.9478 53.3335C34.4887 54.2712 36.4248 54.2712 37.9657 53.3335C38.8745 52.7865 39.5066 52.1222 39.5857 51.5752C39.6252 51.3799 39.5857 51.2236 39.4671 51.0673C39.3881 50.9892 39.2301 50.8329 38.8745 50.7157C38.993 50.8329 39.1115 50.9892 39.151 51.1455C39.3486 51.8878 38.4003 52.5521 37.6891 52.9818C37.0174 53.4116 36.2272 53.607 35.4765 53.607C35.437 53.607 35.437 53.607 35.437 53.607C34.6468 53.607 33.8961 53.3726 33.2244 52.9818C32.5132 52.5521 31.5649 51.8878 31.7625 51.1455C31.8415 50.9892 31.9205 50.872 32.0391 50.7157ZM35.516 53.0209C36.1877 53.0209 36.8199 52.8256 37.4126 52.4739C38.6374 51.7315 38.5979 51.3799 38.5979 51.3408C38.5584 51.1845 38.2423 50.872 36.4643 50.5594L35.516 50.4031L34.6073 50.5594C32.8293 50.872 32.5132 51.1845 32.4737 51.3408C32.4737 51.419 32.4342 51.7315 33.659 52.4739C34.1727 52.8256 34.8443 53.0209 35.516 53.0209C35.4765 53.0209 35.516 53.0209 35.516 53.0209Z" fill="#6BBDDD"/>
<path fill-rule="evenodd" clip-rule="evenodd" d="M40.297 40.3615C39.1907 41.3774 36.8596 41.4555 36.3459 39.7364C37.1756 41.6118 35.8323 42.5886 35.5557 44.1515C35.5557 44.1906 35.5557 44.2687 35.5162 44.3078C35.5162 44.2687 35.4767 44.1906 35.4767 44.1515C35.2001 42.5886 33.8567 41.6118 34.6865 39.7364C34.1333 41.4555 31.8417 41.3774 30.7354 40.3615C34.2518 41.1039 35.0025 37.4702 35.5557 35.0477C36.0298 37.4311 36.7805 41.1039 40.297 40.3615Z" fill="#6BBDDD"/>
<path d="M79.3335 35.282V10.0806H83.5612L92.0956 21.8412L100.63 10.0806H104.897V35.282H100.827V16.3712L94.0316 25.7484H90.1595L83.4031 16.4102V35.282H79.3335Z" fill="#6BBDDD"/>
<path d="M154.443 35.282C151.48 35.282 148.872 34.5787 146.541 33.1721C144.249 31.7655 142.511 30.0073 141.404 27.8974C140.535 26.2173 140.101 24.4591 140.101 22.6617C140.101 20.8644 140.535 19.1062 141.404 17.4652C142.511 15.3162 144.21 13.558 146.541 12.1904C148.833 10.7838 151.48 10.0806 154.443 10.0806C157.209 10.0806 159.777 10.7448 162.069 12.0732L162.464 12.2686L160.488 15.0818L159.935 14.8083C158.276 13.8705 156.419 13.4017 154.404 13.4017C152.349 13.4017 150.492 13.8705 148.833 14.8473C147.173 15.8241 145.909 17.0745 145.039 18.5983C144.328 19.9267 143.933 21.2942 143.933 22.7008C143.933 24.1465 144.289 25.514 145.039 26.8425C145.909 28.3663 147.173 29.6166 148.833 30.5934C150.492 31.5702 152.349 32.039 154.404 32.039C156.419 32.039 158.276 31.5702 159.935 30.6324L160.488 30.3589L162.464 33.1721L162.069 33.3675C159.777 34.6178 157.248 35.282 154.443 35.282Z" fill="#6BBDDD"/>
<path d="M181.233 35.282L177.163 35.2429V10.0806H195.575V13.4798H181.193V20.9426H192.375V24.3419H181.193V35.282H181.233Z" fill="#6BBDDD"/>
<path d="M198.932 35.2819V10.1195H203.002V31.8435H217.384V35.321H198.932V35.2819Z" fill="#6BBDDD"/>
<path d="M235.007 35.282C231.964 35.282 229.278 34.5396 226.946 33.094C224.576 31.6092 222.877 29.7729 221.849 27.5848C221.099 26.0219 220.743 24.3809 220.743 22.6617C220.743 20.9035 221.178 19.1843 222.007 17.5043C223.114 15.3553 224.813 13.597 227.144 12.1904C229.475 10.7838 232.083 10.0806 235.046 10.0806C238.009 10.0806 240.657 10.7838 242.988 12.1904C245.319 13.597 247.018 15.3553 248.085 17.5043C248.914 19.1062 249.349 20.8254 249.349 22.6617C249.349 24.3418 248.994 25.9829 248.243 27.5848C247.176 29.8119 245.477 31.6483 243.146 33.094C240.736 34.5787 238.049 35.282 235.007 35.282ZM235.007 32C238.049 32 240.538 31.0622 242.514 29.1477C244.45 27.2723 245.438 25.0842 245.438 22.6617C245.438 20.2393 244.45 18.0903 242.514 16.2149C240.578 14.3003 238.049 13.3626 235.007 13.3626C232.873 13.3626 230.977 13.8705 229.278 14.8864C227.579 15.9023 226.354 17.2307 225.524 18.7936C224.892 20.0439 224.576 21.3333 224.576 22.6617C224.576 24.0293 224.892 25.3577 225.524 26.5689C226.314 28.1709 227.579 29.4603 229.278 30.4761C230.937 31.492 232.873 32 235.007 32Z" fill="#6BBDDD"/>
<path d="M259.623 35.282L252.629 10.0806H256.818L261.954 28.5616L269.619 10.0806H273.452L281.117 28.6398L286.214 10.0806H290.402L283.567 34.7741L283.527 34.8913L283.448 35.282H279.497L271.437 15.8632L263.455 35.282H259.623Z" fill="#6BBDDD"/>
<path d="M293.72 35.282V10.1196H312.132V13.5189H297.75V20.9816H308.892V24.3809H297.75V31.8437H312.132V35.3211H293.72V35.282Z" fill="#6BBDDD"/>
<path d="M315.492 35.282V10.0806H329.242C332.6 10.0806 335.169 10.8229 337.026 12.2686C338.843 13.7143 339.791 15.7069 339.791 18.2466C339.791 21.6459 338.211 23.9902 335.05 25.3187L340.187 35.282H335.722L331.099 26.2955C330.506 26.3736 329.874 26.3736 329.282 26.3736H319.601V35.282H315.492ZM319.562 22.9352H329.203C330.309 22.9352 331.297 22.818 332.166 22.5836C334.497 21.9975 335.682 20.5519 335.682 18.2466C335.682 17.0744 335.406 16.1367 334.853 15.3944C334.299 14.652 333.351 14.144 332.008 13.8315C330.98 13.597 330.032 13.5189 329.163 13.5189H319.562V22.9352Z" fill="#6BBDDD"/>
<path d="M355.753 35.2822C351.762 35.2822 348.759 34.4617 346.626 32.8597C344.532 31.2187 343.465 28.9525 343.465 25.983V25.5532H347.297V25.983C347.297 28.0929 348.009 29.6167 349.391 30.5935C350.774 31.5703 352.908 32.0783 355.713 32.0783C360.296 32.0783 363.023 31.2968 363.852 29.773C364.05 29.4214 364.129 28.9134 364.129 28.2101C364.129 27.8194 364.129 27.5459 364.09 27.3505C364.05 27.077 363.971 26.8426 363.892 26.6082C363.576 25.944 362.588 25.3579 360.85 24.8499C360.02 24.6155 358.597 24.3029 356.622 23.9122L354.093 23.4824C353.777 23.4433 353.382 23.3652 352.829 23.248C352.315 23.1698 351.802 23.0526 351.406 22.9745C350.972 22.8963 350.577 22.8182 350.221 22.74C348.917 22.4665 347.771 22.1149 346.784 21.6851C344.532 20.6301 343.386 18.8719 343.386 16.4885C343.386 15.5508 343.544 14.7693 343.899 14.027C344.215 13.3237 344.729 12.7376 345.322 12.2687C345.954 11.7999 346.626 11.4092 347.376 11.0966C348.127 10.784 348.957 10.5496 349.945 10.3933C350.932 10.237 351.841 10.1589 352.71 10.0807C353.58 10.0416 354.528 10.0026 355.595 10.0026C363.773 10.0026 367.843 12.425 367.843 17.27V17.6998H364.01V17.27C364.01 16.4494 363.773 15.7852 363.339 15.1991C362.904 14.6521 362.233 14.2223 361.403 13.9488C360.534 13.6753 359.664 13.48 358.756 13.4018C357.847 13.2846 356.78 13.2455 355.595 13.2455C353.856 13.2455 352.394 13.3237 351.248 13.48C349.51 13.7144 348.364 14.1833 347.811 14.8475C347.455 15.2773 347.297 15.7852 347.297 16.4494C347.297 17.2309 347.455 17.817 347.811 18.1686C348.285 18.6765 349.352 19.1064 350.972 19.458C351.486 19.5752 352.829 19.8487 354.923 20.2004C357.491 20.6301 359.348 20.9818 360.494 21.2553C362.983 21.8414 364.722 22.5056 365.67 23.248C366.539 23.8731 367.132 24.6155 367.448 25.3579C367.764 26.1393 367.922 27.038 367.922 28.0929C368.001 32.9378 363.931 35.2822 355.753 35.2822Z" fill="#6BBDDD"/>
<path d="M122.519 35.2818C119.477 35.2818 116.79 34.5394 114.459 33.0937C112.088 31.609 110.389 29.7726 109.362 27.5846C108.611 26.0217 108.256 24.3807 108.256 22.6615C108.256 20.9033 108.69 19.1841 109.52 17.504C110.627 15.355 112.325 13.5968 114.657 12.1902C116.988 10.7836 119.596 10.0803 122.559 10.0803C125.522 10.0803 128.169 10.7836 130.501 12.1902C132.832 13.5968 134.531 15.355 135.597 17.504C136.427 19.106 136.862 20.8251 136.862 22.6615C136.862 24.3416 136.506 25.9826 135.756 27.5846C134.689 29.8117 132.99 31.6481 130.659 33.0937C128.248 34.5785 125.562 35.2818 122.519 35.2818ZM122.519 31.9997C125.562 31.9997 128.051 31.062 130.026 29.1475C131.962 27.272 132.95 25.084 132.95 22.6615C132.95 20.239 131.962 18.0901 130.026 16.2146C128.09 14.3001 125.562 13.3624 122.519 13.3624C120.386 13.3624 118.489 13.8703 116.79 14.8862C115.091 15.902 113.866 17.2305 113.037 18.7934C112.405 20.0437 112.088 21.333 112.088 22.6615C112.088 24.029 112.405 25.3575 113.037 26.5687C113.827 28.1707 115.091 29.46 116.79 30.4759C118.489 31.4918 120.386 31.9997 122.519 31.9997Z" fill="#6BBDDD"/>
<path d="M115.644 7.46262L121.136 3.04749H123.428L128.841 7.46262H123.783L122.242 6.25137L120.701 7.46262H115.644Z" fill="#6BBDDD"/>
<path d="M120.268 41.2601V37.939H124.179V41.2601H120.268Z" fill="#6BBDDD"/>
<path d="M85.8518 44.5812H87.2347V54.9743H85.8518V50.2857H80.7154V54.9743H79.3325V44.5812H80.7154V48.9963H85.8518V44.5812Z" fill="black"/>
<path d="M95.5724 47.5898H96.8763V55.0135H95.5724V53.7241C94.9402 54.7009 93.992 55.2088 92.7276 55.2088C91.6608 55.2088 90.7521 54.8181 90.0409 54.0757C89.2902 53.2943 88.9346 52.3956 88.9346 51.3016C88.9346 50.2076 89.2902 49.3089 90.0409 48.5275C90.7916 47.746 91.6608 47.3944 92.7276 47.3944C93.9525 47.3944 94.9007 47.9023 95.5724 48.8791V47.5898ZM92.8857 53.9585C93.6364 53.9585 94.2686 53.7241 94.7822 53.2161C95.2958 52.7082 95.5329 52.0831 95.5329 51.3016C95.5329 50.5592 95.2958 49.9341 94.7822 49.4261C94.2686 48.9182 93.6364 48.6447 92.8857 48.6447C92.135 48.6447 91.5028 48.9182 90.9891 49.4261C90.4755 49.9341 90.2384 50.5592 90.2384 51.3016C90.2384 52.044 90.4755 52.7082 90.9891 53.2161C91.5028 53.685 92.135 53.9585 92.8857 53.9585Z" fill="black"/>
<path d="M103 47.3944C104.067 47.3944 104.936 47.7851 105.687 48.5275C106.438 49.3089 106.793 50.2076 106.793 51.3016C106.793 52.3956 106.438 53.3333 105.687 54.0757C104.936 54.8181 104.067 55.2088 103 55.2088C101.736 55.2088 100.788 54.7009 100.155 53.7241V57.9829H98.8516V47.5898H100.155V48.8791C100.827 47.8633 101.775 47.3944 103 47.3944ZM102.842 53.9585C103.593 53.9585 104.225 53.7241 104.739 53.2161C105.252 52.7082 105.489 52.0831 105.489 51.3016C105.489 50.5592 105.252 49.9341 104.739 49.4261C104.225 48.9182 103.593 48.6447 102.842 48.6447C102.091 48.6447 101.459 48.9182 100.946 49.4261C100.432 49.9341 100.195 50.5592 100.195 51.3016C100.195 52.044 100.432 52.7082 100.946 53.2161C101.459 53.685 102.091 53.9585 102.842 53.9585Z" fill="black"/>
<path d="M112.522 47.3944C113.589 47.3944 114.458 47.7851 115.209 48.5275C115.96 49.3089 116.315 50.2076 116.315 51.3016C116.315 52.3956 115.96 53.3333 115.209 54.0757C114.458 54.8181 113.589 55.2088 112.522 55.2088C111.258 55.2088 110.31 54.7009 109.677 53.7241V57.9829H108.374V47.5898H109.677V48.8791C110.349 47.8633 111.297 47.3944 112.522 47.3944ZM112.364 53.9585C113.115 53.9585 113.747 53.7241 114.261 53.2161C114.774 52.7082 115.011 52.0831 115.011 51.3016C115.011 50.5592 114.774 49.9341 114.261 49.4261C113.747 48.9182 113.115 48.6447 112.364 48.6447C111.613 48.6447 110.981 48.9182 110.468 49.4261C109.954 49.9341 109.717 50.5592 109.717 51.3016C109.717 52.044 109.954 52.7082 110.468 53.2161C110.981 53.685 111.613 53.9585 112.364 53.9585Z" fill="black"/>
<path d="M118.567 46.652C118.33 46.652 118.093 46.5739 117.935 46.4176C117.777 46.2613 117.698 46.0269 117.698 45.7925C117.698 45.558 117.777 45.3627 117.935 45.1673C118.093 44.9719 118.33 44.8938 118.567 44.8938C118.804 44.8938 119.002 44.9719 119.199 45.1673C119.357 45.3236 119.436 45.558 119.436 45.7925C119.436 46.0269 119.357 46.2223 119.199 46.4176C119.002 46.5739 118.804 46.652 118.567 46.652ZM117.895 55.0135V47.5898H119.199V55.0135H117.895Z" fill="black"/>
<path d="M124.968 47.3944C125.402 47.3944 125.798 47.4725 126.153 47.6288C126.509 47.7851 126.825 47.9805 127.062 48.254C127.299 48.5275 127.497 48.8401 127.655 49.2308C127.813 49.6215 127.852 50.0513 127.852 50.5202V55.0916H126.548V50.5983C126.548 50.0122 126.39 49.5434 126.035 49.1917C125.719 48.8791 125.244 48.6838 124.652 48.6838C124.02 48.6838 123.466 48.8791 123.071 49.2699C122.676 49.6606 122.479 50.2857 122.479 51.1063V55.0525H121.175V47.6288H122.479V48.6838C123.032 47.7851 123.862 47.3944 124.968 47.3944Z" fill="black"/>
<path d="M130.617 51.8878C130.736 52.5521 131.052 53.06 131.526 53.4507C132 53.8414 132.593 53.9977 133.344 53.9977C134.331 53.9977 135.043 53.6461 135.517 52.9037L136.623 53.5288C135.872 54.6619 134.766 55.209 133.304 55.209C132.119 55.209 131.131 54.8573 130.38 54.1149C129.63 53.3726 129.274 52.4348 129.274 51.3018C129.274 50.1687 129.63 49.2309 130.38 48.4886C131.131 47.7462 132.04 47.3555 133.225 47.3555C134.331 47.3555 135.24 47.7462 135.912 48.5276C136.623 49.27 136.979 50.2077 136.979 51.3018C136.979 51.4971 136.979 51.6925 136.939 51.8878H130.617ZM133.225 48.6058C132.514 48.6058 131.961 48.8011 131.487 49.1919C131.012 49.5826 130.736 50.0905 130.617 50.7547H135.635C135.517 50.0514 135.24 49.5044 134.805 49.1528C134.331 48.8011 133.818 48.6058 133.225 48.6058Z" fill="black"/>
<path d="M139.271 49.5824C139.271 49.8559 139.429 50.0904 139.706 50.2857C139.983 50.442 140.338 50.5983 140.773 50.7155C141.049 50.7937 141.365 50.8718 141.681 50.95C141.998 51.0672 142.314 51.1844 142.551 51.3407C142.827 51.497 143.025 51.7314 143.222 52.0049C143.38 52.2784 143.459 52.591 143.459 52.9817C143.459 53.6459 143.183 54.1929 142.669 54.5836C142.156 54.9744 141.484 55.2088 140.654 55.2088C139.903 55.2088 139.311 55.0525 138.758 54.7399C138.244 54.4274 137.849 53.9976 137.651 53.4506L138.797 52.8254C138.916 53.1771 139.153 53.4506 139.469 53.685C139.785 53.8804 140.18 53.9976 140.654 53.9976C141.089 53.9976 141.444 53.9194 141.721 53.7631C141.998 53.6069 142.156 53.3334 142.156 52.9817C142.156 52.7082 141.998 52.4738 141.721 52.2784C141.444 52.1221 141.089 51.9658 140.654 51.8877C140.338 51.8095 140.062 51.7314 139.706 51.6142C139.39 51.497 139.074 51.3798 138.837 51.2235C138.56 51.0672 138.363 50.8327 138.165 50.5983C138.007 50.3248 137.928 50.0122 137.928 49.6215C137.928 48.9963 138.165 48.4493 138.679 48.0196C139.192 47.5898 139.824 47.3944 140.575 47.3944C141.168 47.3944 141.721 47.5116 142.195 47.7851C142.669 48.0586 143.025 48.4493 143.262 48.9182L142.156 49.5434C141.879 48.9182 141.326 48.6056 140.536 48.6056C140.18 48.6056 139.864 48.6838 139.587 48.8791C139.39 49.0354 139.271 49.2699 139.271 49.5824Z" fill="black"/>
<path d="M145.711 49.5824C145.711 49.8559 145.869 50.0904 146.145 50.2857C146.422 50.442 146.778 50.5983 147.212 50.7155C147.489 50.7937 147.805 50.8718 148.121 50.95C148.437 51.0672 148.753 51.1844 148.99 51.3407C149.267 51.497 149.464 51.7314 149.662 52.0049C149.82 52.2784 149.899 52.591 149.899 52.9817C149.899 53.6459 149.622 54.1929 149.109 54.5836C148.595 54.9744 147.923 55.2088 147.094 55.2088C146.343 55.2088 145.75 55.0525 145.197 54.7399C144.683 54.4274 144.288 53.9976 144.091 53.4506L145.237 52.8254C145.355 53.1771 145.592 53.4506 145.908 53.685C146.224 53.8804 146.62 53.9976 147.094 53.9976C147.528 53.9976 147.884 53.9194 148.16 53.7631C148.437 53.6069 148.595 53.3334 148.595 52.9817C148.595 52.7082 148.437 52.4738 148.16 52.2784C147.884 52.1221 147.528 51.9658 147.094 51.8877C146.778 51.8095 146.501 51.7314 146.145 51.6142C145.829 51.497 145.513 51.3798 145.276 51.2235C145 51.0672 144.802 50.8327 144.604 50.5983C144.446 50.3248 144.367 50.0122 144.367 49.6215C144.367 48.9963 144.604 48.4493 145.118 48.0196C145.632 47.5898 146.264 47.3944 147.015 47.3944C147.607 47.3944 148.16 47.5116 148.635 47.7851C149.109 48.0586 149.464 48.4493 149.701 48.9182L148.595 49.5434C148.318 48.9182 147.765 48.6056 146.975 48.6056C146.62 48.6056 146.303 48.6838 146.027 48.8791C145.829 49.0354 145.711 49.2699 145.711 49.5824Z" fill="black"/>
<path d="M160.329 55.2087C158.709 55.2087 157.406 54.7008 156.378 53.6458C155.351 52.6299 154.798 51.3405 154.798 49.8167C154.798 48.2929 155.311 47.0036 156.378 45.9877C157.406 44.9327 158.709 44.4248 160.329 44.4248C160.804 44.4248 161.278 44.5029 161.712 44.6202C162.147 44.7374 162.582 44.8937 162.977 45.1281C163.372 45.3625 163.727 45.597 164.043 45.9095C164.36 46.2221 164.636 46.5738 164.873 46.9645L163.648 47.6678C163.332 47.0817 162.898 46.6519 162.305 46.3003C161.712 45.9486 161.041 45.7923 160.329 45.7923C159.105 45.7923 158.117 46.183 157.366 46.9645C156.615 47.7459 156.22 48.6837 156.22 49.8558C156.22 51.028 156.615 51.9657 157.366 52.7471C158.117 53.5286 159.105 53.9193 160.329 53.9193C161.041 53.9193 161.712 53.763 162.305 53.4114C162.898 53.0597 163.332 52.6299 163.648 52.0438L164.873 52.7471C164.439 53.5286 163.806 54.1537 162.977 54.5835C162.186 54.9743 161.278 55.2087 160.329 55.2087Z" fill="black"/>
<path d="M172.698 54.0757C171.947 54.8181 170.999 55.2088 169.893 55.2088C168.786 55.2088 167.838 54.8181 167.087 54.0757C166.337 53.3333 165.941 52.3956 165.941 51.3016C165.941 50.2076 166.337 49.2699 167.087 48.5275C167.838 47.7851 168.786 47.3944 169.893 47.3944C170.999 47.3944 171.947 47.7851 172.698 48.5275C173.488 49.3089 173.844 50.2076 173.844 51.3016C173.844 52.3956 173.448 53.2943 172.698 54.0757ZM169.893 53.9585C170.643 53.9585 171.275 53.685 171.789 53.1771C172.303 52.6691 172.54 52.044 172.54 51.2625C172.54 50.5202 172.303 49.8559 171.789 49.348C171.275 48.8401 170.643 48.5666 169.893 48.5666C169.142 48.5666 168.51 48.8401 167.996 49.348C167.482 49.8559 167.245 50.4811 167.245 51.2625C167.245 52.0049 167.482 52.6691 167.996 53.1771C168.51 53.685 169.142 53.9585 169.893 53.9585Z" fill="black"/>
<path d="M183.523 47.3944C183.958 47.3944 184.313 47.4726 184.669 47.5898C185.024 47.7461 185.301 47.9414 185.578 48.1758C185.815 48.4494 186.012 48.7619 186.17 49.1136C186.289 49.5043 186.368 49.895 186.368 50.3639V54.9744H185.024V50.4029C185.024 49.8169 184.866 49.3871 184.59 49.0745C184.313 48.7619 183.879 48.6056 183.365 48.6056C182.812 48.6056 182.338 48.801 182.022 49.1527C181.706 49.5043 181.508 50.0904 181.508 50.8718V55.0135H180.204V50.442C180.204 49.8559 180.046 49.4261 179.77 49.1136C179.493 48.801 179.098 48.6447 178.624 48.6447C178.071 48.6447 177.596 48.8401 177.241 49.1917C176.885 49.5824 176.688 50.1294 176.688 50.8718V55.0135H175.384V47.5898H176.688V48.6056C177.201 47.7851 177.952 47.3944 178.94 47.3944C179.967 47.3944 180.678 47.8242 181.152 48.6447C181.666 47.7851 182.456 47.3944 183.523 47.3944Z" fill="black"/>
<path d="M189.094 51.8878C189.213 52.5521 189.529 53.06 190.003 53.4507C190.477 53.8024 191.07 53.9977 191.821 53.9977C192.808 53.9977 193.52 53.6461 193.994 52.9037L195.1 53.5288C194.349 54.6619 193.243 55.209 191.781 55.209C190.596 55.209 189.608 54.8573 188.857 54.1149C188.107 53.3726 187.751 52.4348 187.751 51.3018C187.751 50.1687 188.107 49.2309 188.857 48.4886C189.608 47.7462 190.517 47.3555 191.702 47.3555C192.808 47.3555 193.717 47.7462 194.389 48.5276C195.1 49.27 195.456 50.2077 195.456 51.3018C195.456 51.4971 195.456 51.6925 195.416 51.8878H189.094ZM191.663 48.6058C190.951 48.6058 190.398 48.8011 189.924 49.1919C189.45 49.5826 189.173 50.0905 189.055 50.7547H194.112C193.994 50.0514 193.717 49.5044 193.283 49.1528C192.808 48.8011 192.295 48.6058 191.663 48.6058Z" fill="black"/>
<path d="M197.748 49.5824C197.748 49.8559 197.906 50.0904 198.182 50.2857C198.459 50.442 198.815 50.5983 199.249 50.7155C199.526 50.7937 199.842 50.8718 200.158 50.95C200.474 51.0672 200.79 51.1844 201.027 51.3407C201.304 51.497 201.501 51.7314 201.699 52.0049C201.857 52.2784 201.936 52.591 201.936 52.9817C201.936 53.6459 201.659 54.1929 201.146 54.5836C200.632 54.9744 199.96 55.2088 199.131 55.2088C198.38 55.2088 197.787 55.0525 197.234 54.7399C196.681 54.4274 196.325 53.9976 196.128 53.4506L197.274 52.8254C197.392 53.1771 197.629 53.4506 197.945 53.685C198.262 53.8804 198.657 53.9976 199.131 53.9976C199.565 53.9976 199.921 53.9194 200.198 53.7631C200.474 53.6069 200.632 53.3334 200.632 52.9817C200.632 52.7082 200.474 52.4738 200.198 52.2784C199.921 52.1221 199.565 51.9658 199.131 51.8877C198.815 51.8095 198.538 51.7314 198.182 51.6142C197.827 51.497 197.55 51.3798 197.313 51.2235C197.037 51.0672 196.839 50.8327 196.642 50.5983C196.484 50.3248 196.404 50.0122 196.404 49.6215C196.404 48.9963 196.642 48.4493 197.155 48.0196C197.669 47.5898 198.301 47.3944 199.052 47.3944C199.644 47.3944 200.198 47.5116 200.672 47.7851C201.146 48.0586 201.501 48.4493 201.738 48.9182L200.632 49.5434C200.356 48.9182 199.802 48.6056 199.012 48.6056C198.657 48.6056 198.341 48.6838 198.064 48.8791C197.866 49.0354 197.748 49.2699 197.748 49.5824Z" fill="black"/>
<path d="M213.472 45.9096H208.81V49.2698H213.275V50.5592H208.81V54.9743H207.427V44.5812H213.472V45.9096Z" fill="black"/>
<path d="M216.358 48.8399C216.792 47.9022 217.582 47.4724 218.689 47.4724V48.8399C218.057 48.8009 217.503 48.9962 217.029 49.3479C216.555 49.6995 216.318 50.2856 216.318 51.1061V55.0524H215.054V47.6287H216.358V48.8399Z" fill="black"/>
<path d="M226.313 54.0757C225.562 54.8181 224.614 55.2088 223.508 55.2088C222.401 55.2088 221.453 54.8181 220.702 54.0757C219.952 53.3333 219.557 52.3956 219.557 51.3016C219.557 50.2076 219.952 49.2699 220.702 48.5275C221.453 47.7851 222.401 47.3944 223.508 47.3944C224.614 47.3944 225.562 47.7851 226.313 48.5275C227.103 49.3089 227.459 50.2076 227.459 51.3016C227.459 52.3956 227.064 53.2943 226.313 54.0757ZM223.508 53.9585C224.258 53.9585 224.891 53.685 225.404 53.1771C225.918 52.6691 226.155 52.044 226.155 51.2625C226.155 50.5202 225.918 49.8559 225.404 49.348C224.891 48.8401 224.258 48.5666 223.508 48.5666C222.757 48.5666 222.125 48.8401 221.611 49.348C221.098 49.8559 220.86 50.4811 220.86 51.2625C220.86 52.0049 221.098 52.6691 221.611 53.1771C222.125 53.685 222.757 53.9585 223.508 53.9585Z" fill="black"/>
<path d="M237.139 47.3944C237.573 47.3944 237.929 47.4726 238.285 47.5898C238.64 47.7461 238.917 47.9414 239.193 48.1758C239.43 48.4494 239.628 48.7619 239.786 49.1136C239.905 49.5043 239.984 49.895 239.984 50.3639V54.9744H238.68V50.4029C238.68 49.8169 238.522 49.3871 238.245 49.0745C237.969 48.7619 237.534 48.6056 237.02 48.6056C236.467 48.6056 235.993 48.801 235.677 49.1527C235.361 49.5043 235.163 50.0904 235.163 50.8718V55.0135H233.859V50.442C233.859 49.8559 233.701 49.4261 233.425 49.1136C233.148 48.801 232.753 48.6447 232.279 48.6447C231.726 48.6447 231.252 48.8401 230.896 49.1917C230.54 49.5824 230.343 50.1294 230.343 50.8718V55.0135H229.039V47.5898H230.343V48.6056C230.857 47.7851 231.607 47.3944 232.595 47.3944C233.622 47.3944 234.334 47.8242 234.808 48.6447C235.282 47.7851 236.072 47.3944 237.139 47.3944Z" fill="black"/>
<path d="M252.43 44.5812V45.8705H249.309V54.9743H247.926V45.8705H244.844V44.5812H252.43Z" fill="black"/>
<path d="M257.408 47.3943C257.843 47.3943 258.238 47.4725 258.594 47.6288C258.949 47.7851 259.265 47.9804 259.502 48.2539C259.739 48.5274 259.937 48.84 260.095 49.2307C260.253 49.6214 260.293 50.0512 260.293 50.5201V55.0915H258.989V50.5982C258.989 50.0122 258.831 49.5433 258.475 49.1916C258.159 48.8791 257.685 48.6837 257.092 48.6837C256.46 48.6837 255.907 48.8791 255.512 49.2698C255.117 49.6605 254.919 50.2857 254.919 51.1062V55.0525H253.615V44.6593H254.919V48.7228C255.512 47.785 256.302 47.3943 257.408 47.3943Z" fill="black"/>
<path d="M263.06 51.8878C263.178 52.5521 263.494 53.06 263.968 53.4507C264.443 53.8024 265.035 53.9977 265.786 53.9977C266.774 53.9977 267.485 53.6461 267.959 52.9037L269.065 53.5288C268.315 54.6619 267.208 55.209 265.746 55.209C264.561 55.209 263.573 54.8573 262.823 54.1149C262.072 53.3726 261.716 52.4348 261.716 51.3018C261.716 50.1687 262.072 49.2309 262.823 48.4886C263.573 47.7462 264.482 47.3555 265.667 47.3555C266.774 47.3555 267.682 47.7462 268.354 48.5276C269.065 49.27 269.421 50.2077 269.421 51.3018C269.421 51.4971 269.421 51.6925 269.381 51.8878H263.06ZM265.667 48.6058C264.956 48.6058 264.403 48.8011 263.929 49.1919C263.455 49.5826 263.178 50.0905 263.06 50.7547H268.078C267.959 50.0514 267.682 49.5044 267.248 49.1528C266.813 48.8011 266.26 48.6058 265.667 48.6058Z" fill="black"/>
<path d="M278.192 55.2079C277.204 55.2079 276.374 54.9734 275.663 54.5436C274.952 54.1138 274.478 53.4887 274.201 52.6682L275.387 51.9649C275.782 53.2152 276.73 53.8403 278.192 53.8403C278.903 53.8403 279.456 53.684 279.851 53.4105C280.246 53.137 280.404 52.7463 280.404 52.2384C280.404 51.7695 280.207 51.3788 279.851 51.1053C279.654 50.9881 279.417 50.8318 279.101 50.7146C278.784 50.5974 278.389 50.4411 277.955 50.3239L276.927 50.0113C276.69 49.9331 276.414 49.7768 276.058 49.6205C275.703 49.4252 275.466 49.2689 275.307 49.0736C275.149 48.8782 274.991 48.6438 274.833 48.3312C274.715 48.0186 274.636 47.706 274.636 47.3153C274.636 46.4167 274.952 45.6743 275.584 45.1664C276.216 44.6193 277.006 44.3458 277.915 44.3458C278.745 44.3458 279.496 44.5412 280.088 44.971C280.681 45.4008 281.155 45.9478 281.471 46.612L280.286 47.2762C279.851 46.2213 279.022 45.6743 277.876 45.6743C277.323 45.6743 276.848 45.8306 276.493 46.1041C276.137 46.3776 275.979 46.7683 275.979 47.2372C275.979 47.706 276.137 48.0577 276.493 48.2921C276.848 48.5265 277.402 48.8 278.192 49.0345L278.824 49.2298C278.903 49.2689 278.942 49.2689 279.061 49.308C279.14 49.347 279.259 49.3861 279.377 49.4252C279.496 49.4643 279.614 49.5034 279.693 49.5424C279.772 49.5815 279.851 49.6206 279.93 49.6596C280.009 49.6987 280.088 49.7378 280.167 49.7768C280.246 49.8159 280.325 49.855 280.444 49.9331C280.641 50.0504 280.8 50.1285 280.918 50.2457C281.037 50.3629 281.155 50.4801 281.274 50.6364C281.471 50.8318 281.59 51.0662 281.669 51.3007C281.748 51.5742 281.787 51.8477 281.787 52.1993C281.787 53.098 281.432 53.8403 280.76 54.3873C280.167 54.9343 279.298 55.2079 278.192 55.2079Z" fill="black"/>
<path d="M284.04 46.652C283.803 46.652 283.566 46.5739 283.408 46.4176C283.25 46.2613 283.171 46.0269 283.171 45.7925C283.171 45.558 283.25 45.3627 283.408 45.1673C283.566 45.011 283.803 44.8938 284.04 44.8938C284.277 44.8938 284.475 44.9719 284.672 45.1673C284.83 45.3236 284.909 45.558 284.909 45.7925C284.909 46.0269 284.83 46.2223 284.672 46.4176C284.475 46.5739 284.277 46.652 284.04 46.652ZM283.368 55.0135V47.5898H284.672V55.0135H283.368Z" fill="black"/>
<path d="M294.785 47.3944C295.22 47.3944 295.576 47.4726 295.931 47.5898C296.287 47.7461 296.563 47.9414 296.84 48.1758C297.077 48.4494 297.274 48.7619 297.433 49.1136C297.551 49.5043 297.63 49.895 297.63 50.3639V54.9744H296.326V50.4029C296.326 49.8169 296.168 49.3871 295.892 49.0745C295.615 48.7619 295.18 48.6056 294.667 48.6056C294.114 48.6056 293.639 48.801 293.323 49.1527C293.007 49.5043 292.81 50.0904 292.81 50.8718V55.0135H291.506V50.442C291.506 49.8559 291.348 49.4261 291.071 49.1136C290.795 48.801 290.4 48.6447 289.925 48.6447C289.372 48.6447 288.898 48.8401 288.543 49.1917C288.187 49.5824 287.989 50.1294 287.989 50.8718V55.0135H286.686V47.5898H287.989V48.6056C288.503 47.7851 289.254 47.3944 290.242 47.3944C291.269 47.3944 291.98 47.8242 292.454 48.6447C292.968 47.7851 293.758 47.3944 294.785 47.3944Z" fill="black"/>
<path d="M303.597 47.3944C304.664 47.3944 305.533 47.7851 306.284 48.5275C307.034 49.3089 307.39 50.2076 307.39 51.3016C307.39 52.3956 307.034 53.3333 306.284 54.0757C305.533 54.8181 304.664 55.2088 303.597 55.2088C302.333 55.2088 301.384 54.7009 300.752 53.7241V57.9829H299.448V47.5898H300.752V48.8791C301.384 47.8633 302.333 47.3944 303.597 47.3944ZM303.439 53.9585C304.19 53.9585 304.822 53.7241 305.335 53.2161C305.849 52.7082 306.086 52.0831 306.086 51.3016C306.086 50.5592 305.849 49.9341 305.335 49.4261C304.822 48.9182 304.19 48.6447 303.439 48.6447C302.688 48.6447 302.056 48.9182 301.542 49.4261C301.029 49.9341 300.792 50.5592 300.792 51.3016C300.792 52.044 301.029 52.7082 301.542 53.2161C302.016 53.685 302.649 53.9585 303.439 53.9585Z" fill="black"/>
<path d="M308.97 55.0134V44.1514H310.274V55.0134H308.97Z" fill="black"/>
<path d="M313.199 51.8878C313.317 52.5521 313.633 53.06 314.108 53.4507C314.582 53.8024 315.174 53.9977 315.925 53.9977C316.913 53.9977 317.624 53.6461 318.098 52.9037L319.205 53.5288C318.454 54.6619 317.348 55.209 315.886 55.209C314.7 55.209 313.712 54.8573 312.962 54.1149C312.211 53.3726 311.855 52.4348 311.855 51.3018C311.855 50.1687 312.211 49.2309 312.962 48.4886C313.712 47.7462 314.621 47.3555 315.807 47.3555C316.913 47.3555 317.822 47.7462 318.493 48.5276C319.205 49.27 319.56 50.2077 319.56 51.3018C319.56 51.4971 319.56 51.6925 319.521 51.8878H313.199ZM315.807 48.6058C315.095 48.6058 314.542 48.8011 314.068 49.1919C313.594 49.5826 313.317 50.0905 313.199 50.7547H318.217C318.098 50.0514 317.822 49.5044 317.387 49.1528C316.913 48.8011 316.399 48.6058 315.807 48.6058Z" fill="black"/>
<path d="M331.689 44.5812V45.8705H328.567V54.9743H327.184V45.8705H324.103V44.5812H331.689Z" fill="black"/>
<path d="M336.668 47.3943C337.103 47.3943 337.498 47.4725 337.853 47.6288C338.209 47.7851 338.525 47.9804 338.762 48.2539C338.999 48.5274 339.197 48.84 339.355 49.2307C339.513 49.6214 339.552 50.0512 339.552 50.5201V55.0915H338.248V50.5982C338.248 50.0122 338.09 49.5433 337.735 49.1916C337.419 48.8791 336.945 48.6837 336.352 48.6837C335.72 48.6837 335.167 48.8791 334.772 49.2698C334.376 49.6605 334.179 50.2857 334.179 51.1062V55.0525H332.875V44.6593H334.179V48.7228C334.732 47.785 335.562 47.3943 336.668 47.3943Z" fill="black"/>
<path d="M342.042 46.652C341.805 46.652 341.567 46.5739 341.409 46.4176C341.251 46.2613 341.172 46.0269 341.172 45.7925C341.172 45.558 341.251 45.3627 341.409 45.1673C341.567 45.011 341.805 44.8938 342.042 44.8938C342.279 44.8938 342.476 44.9719 342.674 45.1673C342.832 45.3236 342.911 45.558 342.911 45.7925C342.911 46.0269 342.832 46.2223 342.674 46.4176C342.516 46.5739 342.318 46.652 342.042 46.652ZM341.409 55.0135V47.5898H342.713V55.0135H341.409Z" fill="black"/>
<path d="M348.442 47.3944C348.877 47.3944 349.272 47.4725 349.628 47.6288C349.983 47.7851 350.299 47.9805 350.537 48.254C350.774 48.5275 350.971 48.8401 351.129 49.2308C351.287 49.6215 351.327 50.0513 351.327 50.5202V55.0916H350.023V50.5983C350.023 50.0122 349.865 49.5434 349.509 49.1917C349.193 48.8791 348.719 48.6838 348.126 48.6838C347.494 48.6838 346.941 48.8791 346.546 49.2699C346.151 49.6606 345.953 50.2857 345.953 51.1063V55.0525H344.649V47.6288H345.953V48.6838C346.546 47.7851 347.336 47.3944 348.442 47.3944Z" fill="black"/>
<path d="M359.426 47.5898H360.73V54.7009C360.73 55.7949 360.335 56.6545 359.584 57.2405C358.834 57.8657 357.925 58.1783 356.858 58.1783C355.989 58.1783 355.278 58.022 354.685 57.7094C354.092 57.3968 353.618 56.967 353.302 56.3419L354.448 55.7167C354.843 56.5373 355.673 56.9671 356.898 56.9671C357.688 56.9671 358.281 56.7717 358.755 56.381C359.189 55.9903 359.426 55.4042 359.426 54.7009V53.6459C358.755 54.6227 357.806 55.1307 356.582 55.1307C355.515 55.1307 354.606 54.7399 353.855 53.9976C353.105 53.2161 352.749 52.3175 352.749 51.2625C352.749 50.2076 353.105 49.2699 353.855 48.5275C354.606 47.7851 355.475 47.3944 356.582 47.3944C357.806 47.3944 358.755 47.9023 359.426 48.8791V47.5898ZM359.426 51.2625C359.426 50.5202 359.189 49.895 358.676 49.3871C358.162 48.8791 357.53 48.6447 356.779 48.6447C356.028 48.6447 355.396 48.8791 354.883 49.3871C354.369 49.895 354.132 50.5202 354.132 51.2625C354.132 52.0049 354.369 52.63 354.883 53.138C355.396 53.6459 356.028 53.8804 356.779 53.8804C357.53 53.8804 358.162 53.6459 358.676 53.138C359.189 52.63 359.426 52.0049 359.426 51.2625Z" fill="black"/>
<path d="M363.812 49.5824C363.812 49.8559 363.97 50.0904 364.246 50.2857C364.523 50.442 364.879 50.5983 365.313 50.7155C365.59 50.7937 365.906 50.8718 366.222 50.95C366.538 51.0672 366.854 51.1844 367.091 51.3407C367.368 51.497 367.565 51.7314 367.763 52.0049C367.921 52.2784 368 52.591 368 52.9817C368 53.6459 367.723 54.1929 367.21 54.5836C366.696 54.9744 366.024 55.2088 365.195 55.2088C364.444 55.2088 363.851 55.0525 363.298 54.7399C362.745 54.4274 362.389 53.9976 362.192 53.4506L363.338 52.8254C363.456 53.1771 363.693 53.4506 364.009 53.685C364.325 53.8804 364.721 53.9976 365.195 53.9976C365.629 53.9976 365.985 53.9194 366.262 53.7631C366.538 53.6069 366.696 53.3334 366.696 52.9817C366.696 52.7082 366.538 52.4738 366.262 52.2784C365.985 52.1221 365.629 51.9658 365.195 51.8877C364.879 51.8095 364.602 51.7314 364.246 51.6142C363.93 51.497 363.614 51.3798 363.377 51.2235C363.14 51.0672 362.903 50.8327 362.706 50.5983C362.547 50.3248 362.468 50.0122 362.468 49.6215C362.468 48.9963 362.706 48.4493 363.219 48.0196C363.733 47.5898 364.365 47.3944 365.116 47.3944C365.708 47.3944 366.262 47.5116 366.736 47.7851C367.21 48.0586 367.565 48.4493 367.802 48.9182L366.696 49.5434C366.42 48.9182 365.866 48.6056 365.076 48.6056C364.721 48.6056 364.404 48.6838 364.128 48.8791C363.93 49.0354 363.812 49.2699 363.812 49.5824Z" fill="black"/>
</svg>
