<svg width="64" height="64" viewBox="0 0 64 64" fill="none" xmlns="http://www.w3.org/2000/svg">
<path d="M56.7717 52.4613C56.7717 52.4613 50.2769 41.2989 49.1119 39.2969C50.4374 38.8925 51.8494 38.5355 52.4361 37.5225C53.4138 35.8345 51.6734 33.0656 52.1304 31.2564C52.6012 29.3943 55.3802 27.7831 55.3802 25.8904C55.3802 24.0463 52.5071 21.8921 52.036 20.0409C51.5758 18.232 53.3111 15.4601 52.3301 13.7742C51.3492 12.0882 48.082 12.2267 46.7371 10.9325C45.3532 9.60071 45.3575 6.34218 43.6884 5.44967C42.0125 4.55383 39.2887 6.36432 37.428 5.93546C35.5884 5.5115 33.9449 2.74176 32.0234 2.74176C30.0734 2.74176 26.9719 5.88359 26.4855 5.99665C24.6257 6.429 21.8985 4.62293 20.2243 5.52257C18.5568 6.41808 18.567 9.67693 17.1857 11.011C15.843 12.3075 12.5756 12.175 11.5977 13.8629C10.62 15.5505 12.3604 18.3189 11.9035 20.129C11.4454 21.9438 8.56958 23.7826 8.56958 25.8813C8.56958 27.7742 11.3556 29.3804 11.8292 31.2415C12.2895 33.0504 10.5543 35.822 11.5352 37.5085C12.0693 38.4265 13.2809 38.8034 14.4909 39.1656C14.6322 39.2079 14.8992 39.3658 14.7183 39.6295C13.8905 41.0584 7.22748 52.5578 7.22748 52.5578C6.69742 53.4724 7.12786 54.2565 8.18373 54.3009L13.3521 54.5164C14.4079 54.5609 15.7325 55.3282 16.2961 56.2221L19.0539 60.5983C19.6175 61.4923 20.5118 61.4755 21.0417 60.561C21.0417 60.561 28.7582 47.2388 28.7614 47.235C28.9162 47.0541 29.0718 47.0912 29.1463 47.1545C29.9906 47.8734 31.1676 48.5905 32.1499 48.5905C33.1132 48.5905 34.0053 47.9154 34.8877 47.1625C34.9595 47.1013 35.1342 46.9759 35.262 47.2362C35.264 47.2403 42.972 60.4897 42.972 60.4897C43.5034 61.4031 44.3978 61.4186 44.9596 60.5235L47.7097 56.1421C48.2718 55.2475 49.5949 54.4772 50.6507 54.4312L55.8186 54.206C56.874 54.1597 57.303 53.3746 56.7717 52.4613ZM40.5647 40.4777C34.8504 43.8022 27.9913 43.4459 22.7522 40.1413C15.0756 35.2241 12.5497 25.0522 17.1645 17.0871C21.832 9.03016 32.0923 6.18721 40.2219 10.6148C40.2646 10.6381 40.3068 10.6621 40.3492 10.6858C40.4094 10.7192 40.4695 10.753 40.5295 10.7872C43.0375 12.2332 45.2123 14.3318 46.7696 17.0085C51.5292 25.1898 48.7458 35.7181 40.5647 40.4777Z" fill="#59C8E0"/>
<path d="M39.2579 13.1952C39.2341 13.1815 39.2101 13.1686 39.1864 13.155C34.8437 10.6416 29.3086 10.4579 24.6698 13.1568C17.7858 17.1617 15.4434 26.0203 19.4483 32.9041C20.6704 35.0047 22.345 36.6816 24.2771 37.885C24.4414 37.9891 24.6076 38.0914 24.7774 38.1897C31.6688 42.1822 40.5226 39.8237 44.5149 32.9327C48.507 26.0413 46.1492 17.1877 39.2579 13.1952ZM40.9819 24.4609L38.5689 26.8129C37.8215 27.5412 37.3544 28.979 37.531 30.0077L38.1006 33.3287C38.2771 34.3573 37.6658 34.8015 36.7419 34.3159L33.7594 32.7478C32.8355 32.2622 31.3239 32.2622 30.4001 32.7478L27.4177 34.3159C26.4938 34.8015 25.8823 34.3573 26.0588 33.3287L26.6284 30.0077C26.8049 28.979 26.3378 27.5412 25.5904 26.8129L23.1776 24.4609C22.4301 23.7325 22.6638 23.0137 23.6966 22.8634L27.031 22.3789C28.0638 22.2288 29.2868 21.3403 29.7487 20.4044L31.24 17.3829C31.7019 16.4471 32.4577 16.4471 32.9195 17.3829L34.4109 20.4044C34.8728 21.3403 36.0956 22.2288 37.1286 22.3789L40.463 22.8634C41.4956 23.0137 41.7292 23.7325 40.9819 24.4609Z" fill="#178EA8"/>
</svg>
