<svg width="56" height="57" viewBox="0 0 56 57" fill="none" xmlns="http://www.w3.org/2000/svg">
<g clip-path="url(#clip0)">
<path d="M38.2671 6.59393V18.3267H49.9999L38.2671 6.59393Z" fill="#59C8E0"/>
<path d="M20.6269 48.7704L18.3801 39.7566C19.7822 38.422 20.668 36.5448 20.668 34.4593C20.668 30.4173 17.3769 27.1263 13.335 27.1263C9.29305 27.1263 6.002 30.4173 6.002 34.4593C6.002 36.5448 6.88783 38.422 8.2899 39.7566L6.04307 48.7704C5.90521 49.3247 6.10466 49.9114 6.55051 50.2722C6.99636 50.63 7.61233 50.6916 8.12271 50.4393L13.335 47.8317L18.5444 50.4393C18.7526 50.5391 18.9785 50.5919 19.2014 50.5919C19.527 50.5919 19.8526 50.4833 20.1195 50.2722C20.5653 49.9114 20.7648 49.3277 20.6269 48.7704ZM13.335 38.8591C10.9092 38.8591 8.9352 36.885 8.9352 34.4593C8.9352 32.0335 10.9092 30.0595 13.335 30.0595C15.7608 30.0595 17.7348 32.0335 17.7348 34.4593C17.7348 36.885 15.7608 38.8591 13.335 38.8591Z" fill="#178EA8"/>
<path d="M38.2673 21.2599C36.6512 21.2599 35.3342 19.9429 35.3342 18.3267V6.59393H17.735C16.1188 6.59393 14.8018 7.91094 14.8018 9.52713V24.3427C19.7647 25.0614 23.6014 29.2998 23.6014 34.4593C23.6014 36.6768 22.8974 38.7829 21.595 40.534L23.3726 47.6587H47.0669C48.6861 47.6587 50.0001 46.3446 50.0001 44.7255V21.2599H38.2673ZM22.1348 18.3267C21.3252 18.3267 20.6682 17.6697 20.6682 16.8601C20.6682 16.0506 21.3252 15.3935 22.1348 15.3935H30.9344C31.7439 15.3935 32.401 16.0506 32.401 16.8601C32.401 17.6697 31.7439 18.3267 30.9344 18.3267H22.1348ZM42.6671 35.9259H28.0012C27.1916 35.9259 26.5346 35.2689 26.5346 34.4593C26.5346 33.6498 27.1916 32.9927 28.0012 32.9927H42.6671C43.4767 32.9927 44.1337 33.6498 44.1337 34.4593C44.1337 35.2689 43.4767 35.9259 42.6671 35.9259ZM42.6671 27.1263H25.068C24.2584 27.1263 23.6014 26.4693 23.6014 25.6597C23.6014 24.8502 24.2584 24.1931 25.068 24.1931H42.6671C43.4767 24.1931 44.1337 24.8502 44.1337 25.6597C44.1337 26.4693 43.4767 27.1263 42.6671 27.1263Z" fill="#59C8E0"/>
</g>
<defs>
<clipPath id="clip0">
<rect width="44" height="44" fill="white" transform="translate(6 6.59326)"/>
</clipPath>
</defs>
</svg>
