<svg width="24" height="24" viewBox="0 0 24 24" fill="none" xmlns="http://www.w3.org/2000/svg">
<path d="M12 1.00003C9.48509 0.994005 7.04525 1.85662 5.093 3.44203L4.53908 2.71123C4.3654 2.48208 4 2.60491 4 2.89245V5.73981C4 5.88911 4.10978 6.01568 4.25757 6.0368L6.83577 6.40511C7.09248 6.44178 7.27165 6.15748 7.12781 5.94171L6.5 5C7.83375 3.98626 9.49422 3.1984 11.162 3.04038C12.8298 2.88236 14.5086 3.1935 16.009 3.93871C17.5094 4.68392 18.7717 5.83355 19.6536 7.25793C20.5355 8.6823 21.0018 10.3248 21 12V12.019C20.9975 14.406 20.0469 16.6942 18.3572 18.3802C16.6676 20.0663 14.3774 21.0121 11.9905 21.0095C9.60355 21.007 7.31537 20.0564 5.62932 18.3668C3.94328 16.6772 2.99748 14.387 3 12C3 11.7348 2.89464 11.4805 2.70711 11.2929C2.51957 11.1054 2.26522 11 2 11C1.73478 11 1.48043 11.1054 1.29289 11.2929C1.10536 11.4805 1 11.7348 1 12C1 14.1756 1.64514 16.3024 2.85383 18.1113C4.06253 19.9202 5.78049 21.3301 7.79048 22.1627C9.80047 22.9953 12.0122 23.2131 14.146 22.7887C16.2798 22.3642 18.2398 21.3166 19.7782 19.7782C21.3166 18.2398 22.3642 16.2798 22.7886 14.146C23.2131 12.0122 22.9952 9.8005 22.1627 7.79051C21.3301 5.78053 19.9202 4.06256 18.1113 2.85387C16.3023 1.64517 14.1756 1.00003 12 1.00003Z" fill="white"/>
<path d="M16.947 16.9525C18.0927 15.808 18.8062 14.3017 18.9659 12.6902C19.1256 11.0787 18.7215 9.46163 17.8227 8.11458C16.9238 6.76753 15.5857 5.77381 14.0363 5.30273C12.4869 4.83164 10.8221 4.91233 9.32556 5.53105C7.829 6.14977 6.59326 7.26824 5.82887 8.6959C5.06449 10.1236 4.81875 11.7721 5.13352 13.3606C5.4483 14.9492 6.30411 16.3794 7.55516 17.4077C8.8062 18.436 10.3751 18.9987 11.9945 19C12.914 19.0007 13.8247 18.8203 14.6744 18.469C15.5242 18.1176 16.2964 17.6023 16.947 16.9525ZM10.1695 15.5C9.72767 15.5 9.3695 15.1418 9.3695 14.7V14.55C9.3695 14.1082 9.72767 13.75 10.1695 13.75H12.8695V12.875H10.2445C10.0124 12.875 9.78988 12.7828 9.62578 12.6187C9.46169 12.4546 9.3695 12.2321 9.3695 12V9.375C9.3695 9.14293 9.46169 8.92037 9.62578 8.75628C9.78988 8.59219 10.0124 8.5 10.2445 8.5H11.1195V8.425C11.1195 7.98317 11.4777 7.625 11.9195 7.625H12.0695C12.5113 7.625 12.8695 7.98317 12.8695 8.425V8.5H13.8195C14.2613 8.5 14.6195 8.85817 14.6195 9.3V9.45C14.6195 9.89183 14.2613 10.25 13.8195 10.25H11.1195V11.125H13.7445C13.9766 11.125 14.1991 11.2172 14.3632 11.3813C14.5273 11.5454 14.6195 11.7679 14.6195 12V14.625C14.6195 14.8571 14.5273 15.0796 14.3632 15.2437C14.1991 15.4078 13.9766 15.5 13.7445 15.5H12.8695V15.575C12.8695 16.0168 12.5113 16.375 12.0695 16.375H11.9195C11.4777 16.375 11.1195 16.0168 11.1195 15.575V15.5H10.1695Z" fill="white"/>
</svg>
