<svg width="24" height="24" viewBox="0 0 24 24" fill="none" xmlns="http://www.w3.org/2000/svg">
<g clip-path="url(#clip0)">
<path d="M14.981 10.1936L18.7445 5.6936C19.0245 5.35879 18.9945 4.84414 18.6775 4.54411C18.3605 4.24408 17.8765 4.27227 17.5965 4.60708L13.833 9.10706C13.553 9.44187 13.583 9.95651 13.9 10.2565C14.217 10.5566 14.7009 10.5284 14.981 10.1936Z" fill="#FF9D00"/>
<path d="M16.4479 17.3962L21.8955 18.5835C22.3354 18.6794 22.7611 18.3987 22.8463 17.9565C22.9315 17.5143 22.6438 17.0781 22.2039 16.9823L16.7563 15.7949C16.3163 15.699 15.8906 15.9798 15.8054 16.4219C15.7203 16.8641 16.0079 17.3003 16.4479 17.3962Z" fill="#FF9D00"/>
<path d="M16.21 13.6881L21.6343 12.3767C22.0718 12.2709 22.3502 11.8284 22.2562 11.3883C22.1622 10.9481 21.7313 10.677 21.2938 10.7828L15.8695 12.0942C15.4321 12.2 15.1537 12.6425 15.2477 13.0826C15.3417 13.5228 15.7726 13.7938 16.21 13.6881Z" fill="#FF9D00"/>
<path d="M5.51123 14.0348L8.20781 18.9999H11.3284L7.46498 11.8806L5.51123 14.0348Z" fill="#FF9D00"/>
<path d="M14.4907 19C15.2474 19 15.73 18.1919 15.371 17.5257L11.1881 9.76191C10.8609 9.15453 10.0314 9.05316 9.56755 9.56387L8.57422 10.6575L13.1024 19H14.4907Z" fill="#FF9D00"/>
<path d="M2.51897 17.3276C1.93542 17.9701 2.39127 18.9999 3.25921 18.9999H6.43047L4.39871 15.2581L2.51897 17.3276Z" fill="#FF9D00"/>
</g>
<defs>
<clipPath id="clip0">
<rect width="22" height="15" fill="white" transform="translate(1 4)"/>
</clipPath>
</defs>
</svg>
